# https://github.com/mikedh/trimesh

o l_gripper_link.STL
v -0.04123641 -0.02872391 0.00625004
v -0.04213713 -0.02810863 0.00634738
v -0.04103862 -0.02649184 0.00654084
v -0.04320195 -0.02785806 0.00639958
v -0.04375130 -0.02788222 0.00640627
v -0.04673721 -0.02726897 0.00654084
v -0.04428705 -0.02800604 0.00639958
v -0.04524589 -0.02853259 0.00634738
v -0.04594897 -0.02936658 0.00625004
v -0.04630134 -0.03039539 0.00612071
v -0.04062143 -0.02962081 0.00612071
v -0.04014817 -0.03000320 0.00606177
v -0.04037525 -0.03067818 0.00597684
v -0.04005443 -0.03099692 0.00592903
v -0.04053112 -0.03175324 0.00583787
v -0.04026695 -0.03197319 0.00580411
v -0.04106798 -0.03270078 0.00572256
v -0.04076598 -0.03284135 0.00569859
v -0.04191333 -0.03339283 0.00564650
v -0.04150519 -0.03352077 0.00562229
v -0.04295301 -0.03373593 0.00561995
v -0.04241592 -0.03394837 0.00558228
v -0.04341360 -0.03408442 0.00558228
v -0.04404659 -0.03368375 0.00564650
v -0.04440557 -0.03391631 0.00562229
v -0.04504638 -0.03324332 0.00572256
v -0.04529971 -0.03345963 0.00569859
v -0.04581736 -0.03247414 0.00583787
v -0.04601299 -0.03275679 0.00580411
v -0.04625540 -0.03148008 0.00597684
v -0.04647915 -0.03187308 0.00592903
v -0.04665492 -0.03089055 0.00606177
v -0.04685476 0.00597612 0.00963714
v -0.04671416 0.00494512 0.00929564
v -0.04667018 0.00462255 0.00894822
v -0.04656639 0.00386151 0.00935309
v -0.04617650 0.00100253 0.00887340
v -0.04643140 0.00287163 0.00980172
v -0.04626260 0.00163383 0.01267982
v -0.04607405 0.00025125 0.01457032
v -0.04626850 0.00167713 0.01158555
v -0.04632742 0.00210918 0.01058096
v -0.04680410 0.00560464 0.00912187
v -0.04692475 0.00648931 0.00958600
v -0.04696920 0.00681526 0.01033146
v -0.04702090 0.00719439 0.01029748
v -0.04704202 0.00734922 0.01128484
v -0.04708364 0.00765441 0.01119026
v -0.04706338 0.00750588 0.01236852
v -0.04710713 0.00782665 0.01218141
v -0.04703041 0.00726409 0.01343613
v -0.04708919 0.00769510 0.01317890
v -0.04703149 0.00727200 0.01409008
v -0.04694755 0.00665649 0.01434349
v -0.04693938 0.00659662 0.01483034
v -0.04682599 0.00576515 0.01496806
v -0.04682143 0.00573169 0.01533093
v -0.04668216 0.00471045 0.01522549
v -0.04668858 0.00475754 0.01554536
v -0.04653548 0.00363483 0.01508100
v -0.04655318 0.00376463 0.01545372
v -0.04640575 0.00268356 0.01455412
v -0.04631050 0.00198512 0.01371599
v -0.04560242 -0.03123660 0.00873356
v -0.04551566 -0.03179276 0.00865865
v -0.04574145 -0.03177714 0.00807165
v -0.04489253 -0.02951877 0.00894733
v -0.04522782 -0.02991920 0.00890055
v -0.04542559 -0.02972121 0.00833710
v -0.04140411 -0.03244426 0.00849879
v -0.04137978 -0.03240810 0.00850312
v -0.04120297 -0.03245238 0.00790098
v -0.04181257 -0.03289601 0.00844656
v -0.04167789 -0.03298778 0.00783892
v -0.04209545 -0.03310093 0.00842463
v -0.04228538 -0.03336918 0.00779955
v -0.04089909 -0.03180635 0.00798071
v -0.04110286 -0.03181937 0.00857578
v -0.04104123 -0.03156615 0.00860807
v -0.04079088 -0.03110202 0.00807165
v -0.04100424 -0.03117752 0.00865865
v -0.04106957 -0.03061845 0.00873356
v -0.04088710 -0.03039645 0.00816643
v -0.04109193 -0.03053455 0.00874502
v -0.04117996 -0.02974682 0.00825737
v -0.04135881 -0.02994254 0.00882789
v -0.04148424 -0.02976502 0.00885356
v -0.04164572 -0.02920574 0.00833710
v -0.04178325 -0.02944946 0.00890055
v -0.04224666 -0.02881706 0.00839916
v -0.04221352 -0.02915342 0.00894733
v -0.04233089 -0.02909525 0.00895711
v -0.04293410 -0.02861225 0.00843854
v -0.04295734 -0.02890862 0.00899299
v -0.04313132 -0.02888942 0.00899865
v -0.04365233 -0.02860792 0.00845202
v -0.04361186 -0.02890467 0.00900528
v -0.04434318 -0.02880441 0.00843854
v -0.04407894 -0.02901865 0.00899865
v -0.04424142 -0.02908373 0.00899299
v -0.04495067 -0.02918581 0.00839916
v -0.04479503 -0.02943129 0.00895711
v -0.04572946 -0.03036725 0.00825737
v -0.04560335 -0.03114978 0.00874502
v -0.04583767 -0.03107158 0.00816643
v -0.04550474 -0.03050793 0.00882789
v -0.04543142 -0.03030331 0.00885356
v -0.04544860 -0.03242677 0.00798071
v -0.04537597 -0.03215729 0.00860807
v -0.04524879 -0.03238476 0.00857578
v -0.04498284 -0.03296785 0.00790098
v -0.04427671 -0.03323206 0.00844656
v -0.04438189 -0.03335654 0.00783892
v -0.04479122 -0.03290617 0.00849879
v -0.04482434 -0.03287784 0.00850312
v -0.04394928 -0.03335375 0.00842463
v -0.04369446 -0.03356134 0.00779955
v -0.04365025 -0.03341869 0.00841068
v -0.04297623 -0.03356568 0.00778606
v -0.04299573 -0.03342264 0.00839839
v -0.04236617 -0.03324358 0.00841068
v -0.04125755 -0.03256243 0.00725744
v -0.04074926 -0.03065384 0.00750000
v -0.04072592 -0.03102084 0.00745118
v -0.04081209 -0.03165782 0.00736873
v -0.04083739 -0.03174641 0.00735750
v -0.04115043 -0.03241193 0.00727537
v -0.04082504 -0.03029400 0.00754882
v -0.04107862 -0.02970335 0.00763127
v -0.04112672 -0.02962477 0.00764250
v -0.04160653 -0.02906737 0.00772463
v -0.04175004 -0.02895105 0.00774256
v -0.04222560 -0.02866697 0.00778857
v -0.04266130 -0.02851146 0.00781691
v -0.04293377 -0.02845599 0.00782913
v -0.04367366 -0.02845152 0.00784303
v -0.04438534 -0.02865394 0.00782913
v -0.04463300 -0.02878035 0.00781691
v -0.04501115 -0.02904684 0.00778857
v -0.04539328 -0.02944789 0.00774256
v -0.04590157 -0.03135648 0.00750000
v -0.04592491 -0.03098948 0.00754882
v -0.04583874 -0.03035250 0.00763127
v -0.04581343 -0.03026391 0.00764250
v -0.04550039 -0.02959839 0.00772463
v -0.04582578 -0.03171632 0.00745118
v -0.04557220 -0.03230697 0.00736873
v -0.04552410 -0.03238555 0.00735750
v -0.04504429 -0.03294294 0.00727537
v -0.04490078 -0.03305927 0.00725744
v -0.04442522 -0.03334335 0.00721143
v -0.04398952 -0.03349886 0.00718309
v -0.04163967 -0.03296348 0.00721143
v -0.04201782 -0.03322997 0.00718309
v -0.04226549 -0.03335638 0.00717087
v -0.04297717 -0.03355880 0.00715697
v -0.04371706 -0.03355433 0.00717087
v -0.04842800 0.00178962 0.01191661
v -0.04903794 0.00191101 0.01218612
v -0.04842902 0.00179708 0.01263494
v -0.04904146 0.00193687 0.01260076
v -0.04845734 0.00200476 0.01332205
v -0.04906131 0.00208238 0.01312674
v -0.04906727 0.00212612 0.01322692
v -0.04911587 0.00248251 0.01377390
v -0.04851067 0.00239583 0.01392228
v -0.04913435 0.00261801 0.01391570
v -0.04858470 0.00293862 0.01438700
v -0.04918333 0.00297714 0.01419740
v -0.04867341 0.00358914 0.01467856
v -0.04924444 0.00342529 0.01441657
v -0.04926417 0.00356996 0.01446309
v -0.04930760 0.00388839 0.01452948
v -0.04876963 0.00429471 0.01477334
v -0.04935186 0.00421294 0.01454946
v -0.04937254 0.00436463 0.01454275
v -0.04886556 0.00499814 0.01466365
v -0.04943928 0.00485398 0.01444951
v -0.04895343 0.00564247 0.01435840
v -0.04949650 0.00527361 0.01427242
v -0.04951935 0.00544115 0.01417133
v -0.04902612 0.00617549 0.01388230
v -0.04958559 0.00592688 0.01373747
v -0.04959489 0.00599506 0.01365233
v -0.04907774 0.00655401 0.01327393
v -0.04963263 0.00627183 0.01318306
v -0.04910411 0.00674738 0.01258257
v -0.04965069 0.00640424 0.01278969
v -0.04965666 0.00644804 0.01255304
v -0.04910309 0.00673992 0.01186424
v -0.04965574 0.00644124 0.01189842
v -0.04965426 0.00643039 0.01183366
v -0.04907477 0.00653224 0.01117713
v -0.04962993 0.00625198 0.01127226
v -0.04902144 0.00614116 0.01057690
v -0.04960497 0.00606899 0.01094955
v -0.04958133 0.00589560 0.01072527
v -0.04894742 0.00559837 0.01011218
v -0.04951387 0.00540096 0.01030178
v -0.04885870 0.00494785 0.00982062
v -0.04943303 0.00480814 0.01003609
v -0.04938960 0.00448972 0.00996969
v -0.04876248 0.00424229 0.00972584
v -0.04934534 0.00416517 0.00994972
v -0.04866655 0.00353885 0.00983552
v -0.04925792 0.00352413 0.01004967
v -0.04857868 0.00289452 0.01014078
v -0.04911161 0.00245122 0.01076171
v -0.04850600 0.00236150 0.01061688
v -0.04914710 0.00271148 0.01049854
v -0.04917785 0.00293696 0.01032784
v -0.04906828 0.00213354 0.01125647
v -0.04845437 0.00198298 0.01122525
v -0.04906457 0.00210628 0.01131611
v -0.04904053 0.00193007 0.01194614
v -0.04788420 0.00242374 0.01397273
v -0.04786826 0.00230685 0.01382944
v -0.04796045 0.00298290 0.01445146
v -0.04797119 0.00306164 0.01449941
v -0.04805185 0.00365304 0.01475181
v -0.04810093 0.00401300 0.01482686
v -0.04815096 0.00437988 0.01484945
v -0.04823773 0.00501611 0.01476195
v -0.04824979 0.00510453 0.01473646
v -0.04834031 0.00576829 0.01442200
v -0.04836076 0.00591824 0.01431455
v -0.04841519 0.00631738 0.01393154
v -0.04845128 0.00658207 0.01355278
v -0.04846837 0.00670732 0.01330482
v -0.04849553 0.00690652 0.01259262
v -0.04849448 0.00689883 0.01185262
v -0.04848676 0.00684220 0.01158022
v -0.04846530 0.00668489 0.01114478
v -0.04842630 0.00639890 0.01066974
v -0.04841036 0.00628202 0.01052645
v -0.04833411 0.00572286 0.01004772
v -0.04832337 0.00564412 0.00999977
v -0.04824272 0.00505272 0.00974737
v -0.04819363 0.00469276 0.00967232
v -0.04814360 0.00432588 0.00964973
v -0.04805684 0.00368965 0.00973723
v -0.04804478 0.00360123 0.00976272
v -0.04795426 0.00293747 0.01007718
v -0.04793381 0.00278752 0.01018463
v -0.04787938 0.00238838 0.01056764
v -0.04784328 0.00212369 0.01094639
v -0.04782926 0.00202087 0.01335440
v -0.04780781 0.00186356 0.01291895
v -0.04780009 0.00180693 0.01264656
v -0.04779904 0.00179924 0.01190656
v -0.04782620 0.00199844 0.01119436
v -0.04941928 0.00257916 0.01391570
v -0.04934623 0.00204353 0.01312674
v -0.04904654 -0.00015412 0.01457032
v -0.04932287 0.00187216 0.01218612
v -0.04914899 0.00059717 0.00887340
v -0.04964266 0.00421719 0.00894822
v -0.04967453 0.00445086 0.00996969
v -0.04977659 0.00519928 0.00912187
v -0.04979628 0.00534368 0.01029022
v -0.04993562 0.00636538 0.01278969
v -0.05007961 0.00742128 0.01218141
v -0.04993918 0.00639153 0.01183366
v -0.05005613 0.00724905 0.01119026
v -0.04988990 0.00603013 0.01094955
v -0.04999339 0.00678903 0.01029748
v -0.04989724 0.00608394 0.00958600
v -0.04978143 0.00523475 0.01427242
v -0.04991187 0.00619125 0.01483034
v -0.04987982 0.00595620 0.01365233
v -0.05000398 0.00686663 0.01409008
v -0.05006167 0.00728974 0.01317890
v -0.04952937 0.00338643 0.01441657
v -0.04952567 0.00335927 0.01545372
v -0.04965747 0.00432577 0.01454275
v -0.04966107 0.00435218 0.01554536
v -0.04979392 0.00532633 0.01533093
v -0.04935321 0.00209468 0.01125647
v -0.04943202 0.00267263 0.01049854
v -0.04954568 0.00350605 0.01004338
v -0.04762730 -0.01842178 0.00819088
v -0.04759033 -0.01869285 0.01024633
v -0.04782228 -0.01337002 0.00851722
v -0.04777318 -0.01373007 0.01124746
v -0.04787701 -0.01240190 0.00856270
v -0.04782497 -0.01278350 0.01145639
v -0.04816901 -0.00831884 0.00869384
v -0.04810239 -0.00880737 0.01239831
v -0.04860090 -0.00385447 0.00878359
v -0.04851637 -0.00447433 0.01348394
v -0.04749212 -0.02313075 0.00948173
v -0.04752281 -0.02290571 0.00777526
v -0.04739174 -0.02758706 0.00883303
v -0.04742034 -0.02737737 0.00724292
v -0.04730946 -0.03120864 0.00835396
v -0.04733806 -0.03099894 0.00676385
v -0.04712527 -0.03218840 0.00660316
v -0.04709667 -0.03239809 0.00819327
v -0.04656092 -0.03325822 0.00645193
v -0.04653233 -0.03346792 0.00804203
v -0.04569743 -0.03410907 0.00632419
v -0.04566884 -0.03431877 0.00791430
v -0.04461498 -0.03466193 0.00623181
v -0.04458638 -0.03487163 0.00782192
v -0.04341410 -0.03486546 0.00618338
v -0.04338550 -0.03507516 0.00777348
v -0.04220631 -0.03470075 0.00618338
v -0.04217771 -0.03491045 0.00777348
v -0.04110377 -0.03418310 0.00623181
v -0.04107517 -0.03439280 0.00782192
v -0.04020888 -0.03336059 0.00632419
v -0.04018029 -0.03357029 0.00791430
v -0.03960475 -0.03230959 0.00645193
v -0.03957615 -0.03251928 0.00804203
v -0.03934748 -0.03112772 0.00660316
v -0.03931888 -0.03133741 0.00819327
v -0.03946095 -0.02992472 0.00676385
v -0.03943235 -0.03013442 0.00835396
v -0.04032281 -0.02662305 0.00883303
v -0.04035141 -0.02641336 0.00724292
v -0.04141935 -0.02230259 0.00948173
v -0.04145004 -0.02207755 0.00777526
v -0.04251304 -0.01800044 0.01024633
v -0.04255001 -0.01772938 0.00819088
v -0.04551259 -0.00343330 0.00878359
v -0.04542805 -0.00405317 0.01348394
v -0.04473330 -0.00785030 0.00869384
v -0.04466667 -0.00833883 0.01239831
v -0.04392133 -0.01186245 0.00856270
v -0.04386929 -0.01224406 0.01145639
v -0.04371483 -0.01280987 0.00851722
v -0.04366573 -0.01316993 0.01124746
v -0.04394415 -0.03339134 0.00870968
v -0.04336012 -0.03447659 0.00855605
v -0.04299061 -0.03346023 0.00868344
v -0.04236244 -0.03434054 0.00855605
v -0.04209033 -0.03313852 0.00870968
v -0.04145171 -0.03391294 0.00859606
v -0.04139898 -0.03248185 0.00878384
v -0.04537084 -0.03219488 0.00889312
v -0.04595951 -0.03314896 0.00877788
v -0.04478609 -0.03294376 0.00878384
v -0.04524623 -0.03385179 0.00867237
v -0.04435209 -0.03430847 0.00859606
v -0.04542629 -0.03034090 0.00913861
v -0.04668372 -0.02766114 0.00951462
v -0.04559730 -0.03127419 0.00901861
v -0.04660144 -0.03128272 0.00903554
v -0.04642567 -0.03226525 0.00890281
v -0.04488741 -0.02955636 0.00923238
v -0.04407381 -0.02905624 0.00928370
v -0.04098514 -0.02688401 0.00951462
v -0.04312619 -0.02892701 0.00928370
v -0.04071250 -0.03323352 0.00867237
v -0.04021347 -0.03236536 0.00877788
v -0.04103610 -0.03160374 0.00889312
v -0.04000095 -0.03138909 0.00890281
v -0.04106445 -0.03065604 0.00901861
v -0.04009468 -0.03039537 0.00903554
v -0.04147911 -0.02980261 0.00913861
v -0.04220839 -0.02919101 0.00923238
v -0.04532752 -0.00863573 0.01307073
v -0.04738617 -0.00891647 0.01307073
v -0.04432518 -0.01346684 0.01192188
v -0.04705831 -0.01383957 0.01192188
v -0.04411569 -0.01439274 0.01171874
v -0.04701222 -0.01478775 0.01171874
v -0.04317049 -0.01829721 0.01092214
v -0.04687743 -0.01880273 0.01092214
v -0.04207923 -0.02258149 0.01016066
v -0.04678166 -0.02322277 0.01016066
v -0.04213480 -0.02217404 0.00707100
v -0.04683722 -0.02281532 0.00707100
v -0.04323230 -0.01784392 0.00748492
v -0.04693925 -0.01834945 0.00748492
v -0.04418686 -0.01387086 0.00776134
v -0.04708339 -0.01426586 0.00776134
v -0.04439908 -0.01292493 0.00781264
v -0.04713221 -0.01329766 0.00781264
v -0.04541887 -0.00796586 0.00799124
v -0.04747752 -0.00824661 0.00799124
v -0.04721986 0.00350343 0.01613095
v -0.04881339 0.00328612 0.01613095
v -0.04674073 -0.00000995 0.01524755
v -0.04833426 -0.00022726 0.01524755
v -0.04609206 -0.00433226 0.01415877
v -0.04780188 -0.00456543 0.01415877
v -0.04895511 0.00432537 0.00825043
v -0.04736159 0.00454268 0.00825043
v -0.04846144 0.00070535 0.00817561
v -0.04686791 0.00092267 0.00817561
v -0.04791114 -0.00376423 0.00808339
v -0.04620131 -0.00353106 0.00808339
v -0.04738389 0.00470621 0.01624196
v -0.04897741 0.00448889 0.01624196
v -0.04754481 0.00588626 0.01598221
v -0.04913834 0.00566894 0.01598221
v -0.04768770 0.00693400 0.01537581
v -0.04928122 0.00671668 0.01537581
v -0.04779927 0.00775212 0.01447909
v -0.04939279 0.00753481 0.01447909
v -0.04786916 0.00826466 0.01337532
v -0.04946269 0.00804735 0.01337532
v -0.04789089 0.00842401 0.01216700
v -0.04948442 0.00820669 0.01216700
v -0.04786244 0.00821537 0.01096636
v -0.04945597 0.00799805 0.01096636
v -0.04778645 0.00765812 0.00988488
v -0.04937997 0.00744080 0.00988488
v -0.04766997 0.00680401 0.00902301
v -0.04926350 0.00658669 0.00902301
v -0.04752383 0.00573235 0.00846079
v -0.04911735 0.00551504 0.00846079
v -0.04631744 0.00425622 0.01482686
v -0.04618770 0.00330486 0.01449941
v -0.04608477 0.00255007 0.01382944
v -0.04602432 0.00210678 0.01291895
v -0.04601555 0.00204246 0.01190656
v -0.04605979 0.00236691 0.01094639
v -0.04615032 0.00303074 0.01018463
v -0.04627334 0.00393287 0.00973723
v -0.04641014 0.00493598 0.00967232
v -0.04653988 0.00588734 0.00999977
v -0.04664281 0.00664212 0.01066974
v -0.04670327 0.00708542 0.01158022
v -0.04671204 0.00714974 0.01259262
v -0.04666779 0.00682529 0.01355278
v -0.04657726 0.00616146 0.01431455
v -0.04645424 0.00525933 0.01476195
v -0.04370575 -0.02821622 0.00605876
v -0.04269338 -0.02827616 0.00603265
v -0.04178213 -0.02871575 0.00595829
v -0.04111071 -0.02946805 0.00584701
v -0.04078135 -0.03041854 0.00571573
v -0.04084418 -0.03142252 0.00558446
v -0.04128964 -0.03232713 0.00547318
v -0.04204991 -0.03299467 0.00539882
v -0.04300925 -0.03332350 0.00537271
v -0.04402161 -0.03326356 0.00539882
v -0.04493287 -0.03282397 0.00547318
v -0.04560429 -0.03207167 0.00558446
v -0.04593366 -0.03112117 0.00571573
v -0.04587083 -0.03011720 0.00584701
v -0.04542536 -0.02921258 0.00595829
v -0.04466509 -0.02854505 0.00603265
v -0.04638491 0.00475099 0.01522549
v -0.04631067 0.00420654 0.01520354
v -0.04623823 0.00367537 0.01508100
v -0.04610850 0.00272410 0.01455412
v -0.04601325 0.00202566 0.01371599
v -0.04596535 0.00167436 0.01267982
v -0.04597125 0.00171767 0.01158555
v -0.04603017 0.00214972 0.01058096
v -0.04613415 0.00291217 0.00980172
v -0.04626914 0.00390204 0.00935309
v -0.04641692 0.00498565 0.00929564
v -0.04655752 0.00601665 0.00963714
v -0.04667195 0.00685580 0.01033146
v -0.04674477 0.00738976 0.01128484
v -0.04676613 0.00754642 0.01236852
v -0.04673316 0.00730462 0.01343613
v -0.04665030 0.00669703 0.01434349
v -0.04652875 0.00580569 0.01496806
v -0.04429240 -0.02796682 0.00610220
v -0.04375665 -0.02784300 0.00610889
v -0.04320730 -0.02781884 0.00610220
v -0.04214248 -0.02806942 0.00605001
v -0.04124176 -0.02868470 0.00595267
v -0.04062678 -0.02958159 0.00582333
v -0.04038060 -0.03063897 0.00567946
v -0.04053646 -0.03171402 0.00554049
v -0.04107333 -0.03266156 0.00542519
v -0.04191868 -0.03335362 0.00534912
v -0.04295836 -0.03369672 0.00532257
v -0.04405194 -0.03364453 0.00534912
v -0.04505173 -0.03320410 0.00542519
v -0.04582271 -0.03243492 0.00554049
v -0.04626075 -0.03144086 0.00567946
v -0.04630668 -0.03035618 0.00582333
v -0.04595432 -0.02932736 0.00595267
v -0.04525124 -0.02849337 0.00605001
f 11 12 13
f 13 12 14
f 13 14 15
f 15 14 16
f 15 16 17
f 17 16 18
f 1 2 3
f 2 4 3
f 19 20 21
f 20 22 21
f 21 22 23
f 21 23 24
f 24 23 25
f 24 25 26
f 1 3 11
f 11 3 12
f 28 27 29
f 28 29 30
f 30 29 31
f 30 31 10
f 10 31 32
f 10 32 6
f 17 18 19
f 19 18 20
f 200 202 203
f 203 202 204
f 203 204 205
f 205 204 206
f 189 191 190
f 190 191 192
f 26 25 27
f 26 27 28
f 173 175 174
f 174 175 176
f 174 176 177
f 177 176 178
f 177 178 179
f 178 180 179
f 179 180 181
f 179 181 182
f 181 183 182
f 182 183 184
f 182 184 185
f 185 184 186
f 185 186 187
f 186 188 187
f 187 188 189
f 187 189 190
f 138 101 139
f 67 69 101
f 190 192 193
f 193 192 194
f 193 194 195
f 194 196 195
f 195 196 197
f 195 197 198
f 3 4 5
f 69 144 145
f 69 145 140
f 146 141 66
f 66 141 105
f 66 105 64
f 64 105 104
f 146 66 147
f 228 185 229
f 229 185 230
f 230 185 187
f 230 187 231
f 231 187 190
f 231 190 232
f 232 190 193
f 232 193 233
f 233 193 234
f 234 193 195
f 234 195 235
f 235 195 236
f 236 195 198
f 236 198 237
f 237 198 200
f 237 200 238
f 238 200 239
f 239 200 203
f 239 203 240
f 240 203 241
f 241 203 205
f 241 205 242
f 242 205 243
f 243 205 207
f 243 207 244
f 244 207 209
f 244 209 245
f 208 213 209
f 209 213 246
f 209 246 245
f 217 247 162
f 162 247 248
f 162 248 160
f 160 248 249
f 160 249 158
f 158 249 250
f 158 250 213
f 213 250 251
f 213 251 246
f 252 253 254
f 254 253 255
f 254 255 256
f 257 258 259
f 259 258 260
f 261 262 263
f 263 262 264
f 263 264 265
f 265 264 266
f 265 266 260
f 260 266 267
f 260 267 259
f 268 269 270
f 270 269 271
f 270 271 261
f 261 271 272
f 261 272 262
f 252 254 273
f 273 254 274
f 273 274 275
f 275 274 276
f 275 276 268
f 268 276 277
f 268 277 269
f 255 278 256
f 256 278 279
f 256 279 257
f 257 279 280
f 257 280 258
f 281 282 283
f 283 282 284
f 283 284 285
f 285 284 286
f 285 286 287
f 287 286 288
f 287 288 289
f 288 290 289
f 289 290 254
f 289 254 256
f 282 281 291
f 291 281 292
f 291 292 293
f 293 292 294
f 293 294 295
f 295 294 296
f 295 296 297
f 295 297 298
f 298 297 299
f 298 299 300
f 300 299 301
f 300 301 302
f 302 301 303
f 302 303 304
f 304 303 305
f 304 305 306
f 306 305 307
f 306 307 308
f 308 307 309
f 308 309 310
f 310 309 311
f 310 311 312
f 312 311 313
f 312 313 314
f 314 313 315
f 314 315 316
f 316 315 317
f 316 317 318
f 318 317 319
f 319 317 320
f 319 320 321
f 321 320 322
f 321 322 323
f 323 322 324
f 37 40 325
f 325 40 326
f 325 326 327
f 327 326 328
f 327 328 329
f 329 328 330
f 329 330 331
f 331 330 332
f 331 332 324
f 324 332 323
f 333 334 335
f 335 334 336
f 335 336 337
f 337 336 338
f 337 338 339
f 340 341 342
f 342 341 343
f 342 343 333
f 333 343 344
f 333 344 334
f 345 346 347
f 347 346 348
f 347 348 340
f 340 348 349
f 340 349 341
f 345 350 346
f 346 350 351
f 346 351 352
f 352 351 353
f 338 354 339
f 339 354 355
f 339 355 356
f 356 355 357
f 356 357 358
f 358 357 359
f 358 359 360
f 360 359 352
f 360 352 361
f 361 352 353
f 362 363 364
f 364 363 365
f 364 365 366
f 366 365 367
f 366 367 368
f 368 367 369
f 368 369 370
f 369 371 370
f 370 371 346
f 370 346 352
f 3 6 372
f 372 6 373
f 372 373 374
f 374 373 375
f 374 375 376
f 376 375 377
f 376 377 378
f 378 377 379
f 378 379 380
f 380 379 381
f 382 383 384
f 384 383 385
f 384 385 386
f 386 385 387
f 386 387 362
f 362 387 363
f 388 389 390
f 390 389 391
f 390 391 392
f 392 391 393
f 392 393 381
f 381 393 380
f 383 382 394
f 383 394 395
f 395 394 396
f 395 396 397
f 397 396 398
f 397 398 399
f 399 398 400
f 399 400 401
f 401 400 402
f 401 402 403
f 403 402 404
f 403 404 405
f 405 404 406
f 405 406 407
f 407 406 408
f 407 408 409
f 409 408 410
f 409 410 411
f 411 410 412
f 411 412 413
f 413 412 389
f 413 389 388
f 327 380 325
f 325 380 393
f 325 393 37
f 37 393 391
f 331 324 374
f 378 380 327
f 374 376 331
f 331 376 378
f 331 378 329
f 329 378 327
f 389 35 391
f 391 35 37
f 320 3 322
f 322 3 372
f 322 372 324
f 324 372 374
f 35 389 412
f 35 412 43
f 43 412 410
f 43 410 44
f 44 410 408
f 44 408 46
f 46 408 406
f 46 406 48
f 48 406 404
f 48 404 50
f 50 404 402
f 50 402 52
f 52 402 400
f 52 400 53
f 53 400 398
f 53 398 55
f 55 398 396
f 55 396 57
f 57 396 394
f 57 394 59
f 59 394 382
f 59 382 61
f 317 12 320
f 320 12 3
f 384 40 382
f 382 40 61
f 12 317 315
f 12 315 14
f 14 315 313
f 14 313 16
f 16 313 311
f 16 311 18
f 18 311 309
f 18 309 20
f 20 309 307
f 20 307 22
f 22 307 305
f 22 305 23
f 23 305 303
f 23 303 25
f 25 303 301
f 25 301 27
f 27 301 299
f 27 299 29
f 29 299 297
f 29 297 31
f 31 297 296
f 31 296 32
f 40 384 326
f 326 384 386
f 326 386 328
f 328 386 362
f 294 6 296
f 296 6 32
f 368 323 366
f 366 323 332
f 366 332 364
f 364 332 330
f 364 330 362
f 362 330 328
f 281 375 292
f 292 375 373
f 292 373 294
f 294 373 6
f 323 368 321
f 321 368 370
f 321 370 319
f 319 370 352
f 375 281 377
f 377 281 283
f 377 283 379
f 379 283 285
f 379 285 381
f 381 285 287
f 359 318 352
f 352 318 319
f 256 390 289
f 289 390 392
f 289 392 287
f 287 392 381
f 348 295 298
f 348 298 349
f 349 298 300
f 349 300 341
f 341 300 302
f 341 302 343
f 343 302 304
f 343 304 344
f 344 304 306
f 344 306 334
f 334 306 308
f 334 308 336
f 336 308 310
f 336 310 338
f 338 310 312
f 338 312 354
f 354 312 314
f 354 314 355
f 355 314 316
f 355 316 357
f 357 316 318
f 357 318 359
f 257 388 256
f 256 388 390
f 346 293 348
f 348 293 295
f 274 383 395
f 274 395 276
f 276 395 397
f 276 397 277
f 277 397 399
f 277 399 269
f 269 399 401
f 269 401 271
f 271 401 403
f 271 403 272
f 272 403 405
f 272 405 262
f 262 405 407
f 262 407 264
f 264 407 409
f 264 409 266
f 266 409 411
f 266 411 267
f 267 411 413
f 267 413 259
f 259 413 388
f 259 388 257
f 293 346 291
f 291 346 371
f 291 371 282
f 282 371 369
f 254 385 274
f 274 385 383
f 284 282 369
f 365 363 288
f 369 367 284
f 284 367 365
f 284 365 286
f 286 365 288
f 288 363 290
f 290 363 387
f 290 387 254
f 254 387 385
f 220 414 415
f 217 216 416
f 416 216 218
f 416 218 415
f 415 218 219
f 415 219 220
f 217 416 247
f 247 416 417
f 247 417 248
f 248 417 249
f 249 417 418
f 249 418 250
f 250 418 251
f 251 418 419
f 251 419 246
f 246 419 245
f 245 419 420
f 245 420 244
f 244 420 243
f 243 420 421
f 243 421 242
f 422 240 421
f 421 240 241
f 421 241 242
f 423 238 422
f 422 238 239
f 422 239 240
f 234 235 424
f 424 235 236
f 424 236 423
f 423 236 237
f 423 237 238
f 234 424 233
f 233 424 425
f 233 425 232
f 232 425 231
f 231 425 426
f 231 426 230
f 230 426 229
f 229 426 427
f 229 427 228
f 228 427 227
f 227 427 428
f 227 428 226
f 226 428 225
f 225 428 429
f 225 429 224
f 220 221 414
f 414 221 222
f 414 222 429
f 429 222 223
f 429 223 224
f 430 431 135
f 432 133 431
f 431 133 134
f 431 134 135
f 129 130 433
f 433 130 131
f 433 131 432
f 432 131 132
f 432 132 133
f 129 433 128
f 128 433 434
f 128 434 123
f 123 434 124
f 124 434 435
f 124 435 125
f 125 435 126
f 126 435 436
f 126 436 127
f 437 153 436
f 436 153 122
f 436 122 127
f 438 155 437
f 437 155 154
f 437 154 153
f 439 157 438
f 438 157 156
f 438 156 155
f 440 151 439
f 439 151 152
f 439 152 157
f 147 148 441
f 441 148 149
f 441 149 440
f 440 149 150
f 440 150 151
f 147 441 146
f 146 441 442
f 146 442 141
f 141 442 142
f 142 442 443
f 142 443 143
f 143 443 144
f 144 443 444
f 144 444 145
f 445 139 444
f 444 139 140
f 444 140 145
f 135 136 430
f 430 136 137
f 430 137 445
f 445 137 138
f 445 138 139
f 92 91 361
f 84 82 358
f 73 337 70
f 70 337 339
f 70 339 71
f 71 339 78
f 78 339 356
f 78 356 79
f 358 82 356
f 356 82 81
f 356 81 79
f 84 358 86
f 86 358 360
f 86 360 87
f 361 91 360
f 360 91 89
f 360 89 87
f 92 361 94
f 94 361 353
f 94 353 95
f 95 353 97
f 97 353 351
f 97 351 99
f 350 67 102
f 350 102 351
f 351 102 100
f 351 100 99
f 67 350 68
f 68 350 345
f 68 345 107
f 347 64 104
f 347 104 345
f 345 104 106
f 345 106 107
f 64 347 65
f 65 347 340
f 65 340 109
f 342 114 115
f 342 115 340
f 340 115 110
f 340 110 109
f 114 342 112
f 112 342 333
f 112 333 116
f 73 75 337
f 337 75 121
f 337 121 335
f 335 121 120
f 335 120 333
f 333 120 118
f 333 118 116
f 164 163 253
f 214 212 278
f 204 258 206
f 206 258 280
f 206 280 211
f 211 280 279
f 211 279 210
f 278 212 279
f 279 212 208
f 279 208 210
f 214 278 215
f 215 278 255
f 215 255 159
f 253 163 255
f 255 163 161
f 255 161 159
f 164 253 165
f 165 253 252
f 165 252 167
f 273 171 252
f 252 171 169
f 252 169 167
f 176 175 275
f 275 175 173
f 275 173 273
f 273 173 172
f 273 172 171
f 176 275 178
f 178 275 268
f 178 268 180
f 270 184 183
f 270 183 268
f 268 183 181
f 268 181 180
f 184 270 186
f 186 270 261
f 186 261 188
f 263 192 191
f 263 191 261
f 261 191 189
f 261 189 188
f 192 263 194
f 194 263 265
f 194 265 196
f 204 202 258
f 258 202 201
f 258 201 260
f 260 201 199
f 260 199 265
f 265 199 197
f 265 197 196
f 446 447 414
f 414 447 448
f 414 448 415
f 415 448 449
f 415 449 416
f 416 449 450
f 416 450 417
f 417 450 451
f 417 451 418
f 418 451 452
f 418 452 419
f 419 452 453
f 419 453 420
f 420 453 454
f 420 454 421
f 421 454 455
f 421 455 422
f 422 455 456
f 422 456 423
f 423 456 457
f 423 457 424
f 424 457 458
f 424 458 425
f 425 458 459
f 425 459 426
f 426 459 460
f 426 460 427
f 427 460 461
f 427 461 428
f 428 461 462
f 428 462 429
f 429 462 463
f 429 463 414
f 414 463 446
f 447 446 58
f 58 446 463
f 58 463 56
f 56 463 462
f 56 462 54
f 54 462 461
f 54 461 51
f 51 461 460
f 51 460 49
f 49 460 459
f 49 459 47
f 47 459 458
f 47 458 45
f 45 458 457
f 45 457 33
f 33 457 456
f 33 456 34
f 34 456 455
f 34 455 36
f 36 455 454
f 36 454 38
f 38 454 453
f 38 453 42
f 42 453 452
f 42 452 41
f 41 452 451
f 41 451 39
f 39 451 450
f 39 450 63
f 63 450 449
f 63 449 62
f 62 449 448
f 62 448 60
f 60 448 447
f 60 447 58
f 464 465 430
f 430 465 466
f 430 466 431
f 431 466 467
f 431 467 432
f 432 467 468
f 432 468 433
f 433 468 469
f 433 469 434
f 434 469 470
f 434 470 435
f 435 470 471
f 435 471 436
f 436 471 472
f 436 472 437
f 437 472 473
f 437 473 438
f 438 473 474
f 438 474 439
f 439 474 475
f 439 475 440
f 440 475 476
f 440 476 441
f 441 476 477
f 441 477 442
f 442 477 478
f 442 478 443
f 443 478 479
f 443 479 444
f 444 479 480
f 444 480 445
f 445 480 481
f 445 481 430
f 430 481 464
f 466 465 5
f 5 465 7
f 465 464 7
f 7 464 481
f 7 481 8
f 8 481 480
f 8 480 9
f 9 480 479
f 9 479 10
f 10 479 478
f 10 478 30
f 30 478 477
f 30 477 28
f 28 477 476
f 28 476 26
f 26 476 475
f 26 475 24
f 24 475 474
f 24 474 21
f 21 474 473
f 21 473 19
f 19 473 472
f 19 472 17
f 17 472 471
f 17 471 15
f 15 471 470
f 15 470 13
f 13 470 469
f 13 469 11
f 11 469 468
f 160 159 161
f 160 161 162
f 162 161 163
f 164 165 166
f 113 117 152
f 113 152 151
f 122 153 74
f 74 153 154
f 170 169 171
f 171 172 170
f 170 172 173
f 170 173 174
f 119 156 117
f 117 156 157
f 117 157 152
f 158 159 160
f 131 88 132
f 132 88 90
f 132 90 133
f 133 90 134
f 166 165 167
f 166 167 168
f 168 167 169
f 168 169 170
f 136 96 137
f 137 96 98
f 137 98 138
f 138 98 101
f 129 83 85
f 129 85 130
f 130 85 131
f 131 85 88
f 33 44 45
f 45 44 46
f 45 46 47
f 47 46 48
f 47 48 49
f 49 48 50
f 33 34 35
f 35 34 36
f 51 52 53
f 51 53 54
f 54 53 55
f 54 55 56
f 56 55 57
f 56 57 58
f 35 43 33
f 33 43 44
f 60 59 61
f 60 61 62
f 62 61 40
f 62 40 63
f 63 40 39
f 64 65 66
f 49 50 51
f 50 52 51
f 11 468 1
f 1 468 467
f 1 467 2
f 2 467 466
f 2 466 4
f 4 466 5
f 58 57 59
f 58 59 60
f 83 84 85
f 84 86 85
f 85 86 87
f 85 87 88
f 88 87 89
f 88 89 90
f 67 68 69
f 70 71 72
f 90 92 93
f 92 94 93
f 93 94 95
f 93 95 96
f 96 95 97
f 96 97 98
f 81 82 83
f 83 82 84
f 98 100 101
f 101 100 102
f 101 102 67
f 69 68 103
f 104 105 106
f 106 105 103
f 89 91 90
f 90 91 92
f 35 36 37
f 37 36 38
f 39 40 41
f 41 40 37
f 41 37 42
f 42 37 38
f 97 99 98
f 98 99 100
f 66 65 108
f 65 109 108
f 108 109 110
f 108 110 111
f 112 113 114
f 114 113 111
f 77 126 72
f 72 126 127
f 112 116 117
f 117 116 118
f 117 118 119
f 119 118 120
f 119 120 76
f 76 120 121
f 106 103 107
f 107 103 68
f 72 74 73
f 72 73 70
f 123 124 80
f 80 124 125
f 80 125 77
f 77 125 126
f 114 111 115
f 115 111 110
f 73 74 75
f 75 74 76
f 72 71 77
f 71 78 77
f 77 78 79
f 77 79 80
f 76 121 75
f 122 74 72
f 149 111 150
f 150 111 113
f 150 113 151
f 112 117 113
f 198 197 199
f 198 199 200
f 199 201 200
f 200 201 202
f 74 154 76
f 76 154 155
f 76 155 119
f 119 155 156
f 147 66 108
f 147 108 148
f 148 108 149
f 149 108 111
f 141 142 105
f 105 142 143
f 105 143 103
f 103 143 144
f 134 90 93
f 134 93 135
f 135 93 136
f 136 93 96
f 72 127 122
f 128 123 83
f 83 123 80
f 83 80 81
f 81 80 79
f 128 83 129
f 101 69 140
f 101 140 139
f 205 206 207
f 208 209 210
f 210 209 207
f 210 207 211
f 211 207 206
f 208 212 213
f 213 212 214
f 213 214 158
f 158 214 215
f 158 215 159
f 216 217 166
f 166 217 162
f 166 162 164
f 164 162 163
f 216 166 218
f 218 166 168
f 218 168 219
f 219 168 170
f 219 170 220
f 220 170 221
f 221 170 174
f 221 174 222
f 222 174 223
f 223 174 177
f 223 177 224
f 224 177 225
f 225 177 179
f 225 179 226
f 226 179 182
f 226 182 227
f 227 182 228
f 228 182 185
f 3 5 6
f 6 5 7
f 7 8 6
f 6 8 9
f 6 9 10
f 103 144 69

