# https://github.com/mikedh/trimesh
v -0.02326634 -0.03166756 -0.00950000
v -0.02326634 -0.03166756 0.00950000
v -0.02251646 -0.03131596 -0.00950000
v -0.02251646 -0.03131596 0.00950000
v -0.02204284 -0.03063652 -0.00950000
v -0.02204284 -0.03063652 0.00950000
v -0.02197240 -0.02981130 -0.00950000
v -0.02197240 -0.02981130 0.00950000
v -0.02232400 -0.02906141 -0.00950000
v -0.02232400 -0.02906141 0.00950000
v -0.02300344 -0.02858780 -0.00950000
v -0.02300344 -0.02858780 0.00950000
v -0.02382866 -0.02851735 -0.00950000
v -0.02382866 -0.02851735 0.00950000
v -0.02457854 -0.02886895 -0.00950000
v -0.02457854 -0.02886895 0.00950000
v -0.02505216 -0.02954839 -0.00950000
v -0.02505216 -0.02954839 0.00950000
v -0.02512260 -0.03037361 -0.00950000
v -0.02512260 -0.03037361 0.00950000
v -0.02477100 -0.03112350 -0.00950000
v -0.02477100 -0.03112350 0.00950000
v -0.02409156 -0.03159712 -0.00950000
v -0.02409156 -0.03159712 0.00950000
v -0.06756613 -0.03957510 -0.00950000
v -0.06756613 -0.03957510 0.00950000
v -0.06681624 -0.03922350 -0.00950000
v -0.06681624 -0.03922350 0.00950000
v -0.06634262 -0.03854406 -0.00950000
v -0.06634262 -0.03854406 0.00950000
v -0.06627218 -0.03771884 -0.00950000
v -0.06627218 -0.03771884 0.00950000
v -0.06662378 -0.03696896 -0.00950000
v -0.06662378 -0.03696896 0.00950000
v -0.06730322 -0.03649534 -0.00950000
v -0.06730322 -0.03649534 0.00950000
v -0.06812844 -0.03642490 -0.00950000
v -0.06812844 -0.03642490 0.00950000
v -0.06887832 -0.03677650 -0.00950000
v -0.06887832 -0.03677650 0.00950000
v -0.06935194 -0.03745594 -0.00950000
v -0.06935194 -0.03745594 0.00950000
v -0.06942239 -0.03828116 -0.00950000
v -0.06942239 -0.03828116 0.00950000
v -0.06907079 -0.03903104 -0.00950000
v -0.06907079 -0.03903104 0.00950000
v -0.06839135 -0.03950466 -0.00950000
v -0.06839135 -0.03950466 0.00950000
v -0.02279276 -0.02770910 -0.01450000
v -0.02398681 -0.02763136 -0.01450000
v -0.02298439 -0.02613229 -0.01450000
v -0.02508022 -0.02811742 -0.01450000
v -0.02723123 -0.02971110 -0.01450000
v -0.02582250 -0.02905593 -0.01450000
v -0.02604361 -0.03023191 -0.01450000
v -0.02267052 -0.02618978 -0.01450000
v -0.02140912 -0.02671202 -0.01450000
v -0.02177161 -0.02833285 -0.01450000
v -0.02039682 -0.02762807 -0.01450000
v -0.02115730 -0.02935970 -0.01450000
v -0.01975155 -0.02883119 -0.01450000
v -0.02109055 -0.03055441 -0.01450000
v -0.06915047 -0.04013347 -0.01450000
v -0.07086933 -0.04062055 -0.01450000
v -0.06999267 -0.03928348 -0.01450000
v -0.07157659 -0.03944648 -0.01450000
v -0.07034339 -0.03813945 -0.01450000
v -0.07184597 -0.03810258 -0.01450000
v -0.07012229 -0.03696348 -0.01450000
v -0.06683176 -0.04028445 -0.01450000
v -0.06714439 -0.04193776 -0.01450000
v -0.06800972 -0.04049472 -0.01450000
v -0.06851501 -0.04194387 -0.01450000
v -0.06980723 -0.04148692 -0.01450000
v -0.02569289 -0.03137593 -0.01450000
v -0.06588645 -0.03955084 -0.01450000
v -0.06539033 -0.03846196 -0.01450000
v -0.06452299 -0.03636770 -0.01450000
v -0.06375804 -0.03653560 -0.01450000
v -0.06545708 -0.03726724 -0.01450000
v -0.06297570 -0.03649979 -0.01450000
v -0.01954849 -0.03018125 -0.01450000
v -0.01981127 -0.03152096 -0.01450000
v -0.02158666 -0.03164330 -0.01450000
v -0.02050931 -0.03269426 -0.01450000
v -0.02253198 -0.03237690 -0.01450000
v -0.02156126 -0.03356447 -0.01450000
v -0.02370994 -0.03258717 -0.01450000
v -0.02284461 -0.03403021 -0.01450000
v -0.02485069 -0.03222593 -0.01450000
v -0.06607139 -0.03624039 -0.01450000
v -0.06709254 -0.03561665 -0.01450000
v -0.06974575 -0.03447923 -0.01450000
v -0.06828659 -0.03553890 -0.01450000
v -0.06998344 -0.03461816 -0.01450000
v -0.06938000 -0.03602496 -0.01450000
v -0.07099971 -0.03553785 -0.01450000
v -0.07164584 -0.03674663 -0.01450000
v -0.02863727 -0.03037035 -0.01450000
v -0.02789085 -0.03013328 -0.01450000
v -0.06974575 -0.03447923 -0.00000000
v -0.06871635 -0.03409555 0.01450000
v -0.06871635 -0.03409555 -0.00000000
v -0.06998344 -0.03461816 0.01450000
v -0.07099971 -0.03553785 0.01450000
v -0.07164584 -0.03674663 0.01450000
v -0.07184597 -0.03810258 0.01450000
v -0.07157659 -0.03944648 0.01450000
v -0.07086933 -0.04062055 0.01450000
v -0.06980723 -0.04148692 0.01450000
v -0.06851501 -0.04194387 0.01450000
v -0.06714439 -0.04193776 0.01450000
v -0.02298439 -0.02613229 -0.00000000
v -0.02403409 -0.02612216 -0.00000000
v -0.02403409 -0.02612216 0.01450000
v -0.02267052 -0.02618978 0.01450000
v -0.02140912 -0.02671202 0.01450000
v -0.02039682 -0.02762807 0.01450000
v -0.01975155 -0.02883119 0.01450000
v -0.01954849 -0.03018125 0.01450000
v -0.01981127 -0.03152096 0.01450000
v -0.02050931 -0.03269426 0.01450000
v -0.02156126 -0.03356447 0.01450000
v -0.02284461 -0.03403021 0.01450000
v -0.06405258 -0.03649568 -0.00750000
v -0.06338236 -0.04025042 -0.00750000
v -0.06398060 -0.03650819 -0.00801954
v -0.06311858 -0.04020334 -0.00850000
v -0.06377351 -0.03653424 -0.00850000
v -0.06239792 -0.04007470 -0.00923205
v -0.06141347 -0.03989898 -0.00950000
v -0.06204974 -0.03633450 -0.00950000
v -0.06297570 -0.03649979 -0.00926501
v -0.06303428 -0.03650965 -0.00923205
v -0.06343845 -0.03654578 -0.00892413
v -0.06442285 -0.03442134 -0.00000000
v -0.06442285 -0.03442134 0.00750000
v -0.06405258 -0.03649568 -0.00000000
v -0.06338236 -0.04025042 0.00750000
v -0.02762831 -0.02999392 -0.00750000
v -0.02695809 -0.03374867 -0.00750000
v -0.02762831 -0.02999392 -0.00000000
v -0.02695809 -0.03374867 0.00750000
v -0.02800496 -0.02788389 -0.00000000
v -0.02800496 -0.02788389 0.00750000
v -0.02956323 -0.03053564 -0.00950000
v -0.02892697 -0.03410011 -0.00950000
v -0.02863727 -0.03037035 -0.00926501
v -0.02794253 -0.03392439 -0.00923205
v -0.02857870 -0.03035930 -0.00923194
v -0.02818674 -0.03025325 -0.00892367
v -0.02722187 -0.03379575 -0.00850000
v -0.02789085 -0.03013328 -0.00852553
v -0.02769125 -0.03003041 -0.00801847
v -0.06469544 -0.03320057 0.00999558
v -0.06539316 -0.03335587 0.00919028
v -0.06377493 -0.03299568 0.01051905
v -0.06586490 -0.03346087 -0.00000000
v -0.06586490 -0.03346087 0.00750000
v -0.06579079 -0.03344437 0.00819260
v -0.04774240 -0.02942712 0.01450000
v -0.04774240 -0.02942712 0.01070000
v -0.06273853 -0.03276499 0.01070000
v -0.04708025 -0.02914741 0.01070000
v -0.04708025 -0.02914741 0.01450000
v -0.04655976 -0.02865165 0.01070000
v -0.04655976 -0.02865165 0.01450000
v -0.04569245 -0.02778070 0.01450000
v -0.04569245 -0.02778070 0.01070000
v -0.04460164 -0.02721422 0.01450000
v -0.04460164 -0.02721422 0.01070000
v -0.04339032 -0.02700569 0.01450000
v -0.04339032 -0.02700569 0.01070000
v -0.04217287 -0.02717480 0.01450000
v -0.04217287 -0.02717480 0.01070000
v -0.04106425 -0.02770559 0.01450000
v -0.04106425 -0.02770559 0.01070000
v -0.04040794 -0.02799876 0.01070000
v -0.04040794 -0.02799876 0.01450000
v -0.03969038 -0.02804095 0.01070000
v -0.03969038 -0.02804095 0.01450000
v -0.02696960 -0.02648193 -0.00000000
v -0.02696960 -0.02648193 0.00750000
v -0.02716407 -0.02650576 0.00860166
v -0.02772494 -0.02657450 0.00957016
v -0.02851555 -0.02667140 0.01024491
v -0.03015060 -0.02687178 0.01070000
v -0.02955693 -0.02679903 0.01064378
v -0.04314969 -0.03198960 0.00950000
v -0.04314969 -0.03198960 0.01450000
v -0.04268101 -0.03176985 0.00950000
v -0.04268101 -0.03176985 0.01450000
v -0.04238500 -0.03134520 0.00950000
v -0.04238500 -0.03134520 0.01450000
v -0.04234097 -0.03082944 0.00950000
v -0.04234097 -0.03082944 0.01450000
v -0.04256072 -0.03036076 0.00950000
v -0.04256072 -0.03036076 0.01450000
v -0.04298537 -0.03006475 0.00950000
v -0.04298537 -0.03006475 0.01450000
v -0.04350113 -0.03002072 0.00950000
v -0.04350113 -0.03002072 0.01450000
v -0.04396981 -0.03024047 0.00950000
v -0.04396981 -0.03024047 0.01450000
v -0.04426582 -0.03066512 0.00950000
v -0.04426582 -0.03066512 0.01450000
v -0.04430985 -0.03118088 0.00950000
v -0.04430985 -0.03118088 0.01450000
v -0.04409010 -0.03164956 0.00950000
v -0.04409010 -0.03164956 0.01450000
v -0.04366545 -0.03194557 0.00950000
v -0.04366545 -0.03194557 0.01450000
v -0.02456302 -0.02780800 0.01450000
v -0.02338506 -0.02759774 0.01450000
v -0.06768484 -0.03550528 0.01450000
v -0.06654410 -0.03586653 0.01450000
v -0.02550834 -0.02854161 0.01450000
v -0.06535117 -0.03786055 0.01450000
v -0.06557228 -0.03903652 0.01450000
v -0.06631456 -0.03997504 0.01450000
v -0.06740797 -0.04046110 0.01450000
v -0.06860203 -0.04038335 0.01450000
v -0.06962317 -0.03975961 0.01450000
v -0.02105139 -0.02995300 0.01450000
v -0.02140212 -0.02880898 0.01450000
v -0.02224432 -0.02795898 0.01450000
v -0.02201478 -0.03206749 0.01450000
v -0.02310819 -0.03255355 0.01450000
v -0.02430224 -0.03247581 0.01450000
v -0.02532339 -0.03185206 0.01450000
v -0.02593770 -0.03082521 0.01450000
v -0.02600445 -0.02963050 0.01450000
v -0.06570189 -0.03671652 0.01450000
v -0.07030423 -0.03753804 0.01450000
v -0.06980812 -0.03644916 0.01450000
v -0.02127250 -0.03112897 0.01450000
v -0.06886280 -0.03571555 0.01450000
v -0.07023749 -0.03873276 0.01450000
v -0.06312259 -0.03409711 0.00938690
v -0.06247781 -0.03393633 0.00950000
v -0.06141347 -0.03989898 0.00950000
v -0.06209494 -0.04002062 0.00937638
v -0.06280568 -0.04014749 0.00891421
v -0.06369529 -0.03423991 0.00905974
v -0.06326066 -0.04022870 0.00819223
v -0.06437675 -0.03440984 0.00793287
v -0.06430262 -0.03439135 0.00819227
v -0.06412937 -0.03434815 0.00855642
v -0.02805950 -0.02788877 0.00796391
v -0.02707979 -0.03377039 0.00819223
v -0.02812860 -0.02789495 0.00819235
v -0.02824550 -0.03397847 0.00937638
v -0.02914360 -0.02798580 0.00930510
v -0.02889367 -0.02796343 0.00916294
v -0.02753476 -0.03385160 0.00891421
v -0.02859064 -0.02793631 0.00891421
v -0.02845005 -0.02792373 0.00875797
v -0.02815717 -0.02789751 0.00826537
v -0.02961451 -0.02802795 0.00946157
v -0.02892697 -0.03410011 0.00950000
v -0.03000462 -0.02806287 0.00950000
v -0.04748168 -0.03059846 0.00950000
v -0.04642224 -0.03015091 0.00950000
v -0.04558945 -0.02935771 0.00950000
v -0.04498234 -0.02874804 0.00950000
v -0.04069251 -0.02916453 0.00950000
v -0.03954440 -0.02923204 0.00950000
v -0.04421877 -0.02835150 0.00950000
v -0.04337085 -0.02820553 0.00950000
v -0.04251863 -0.02832391 0.00950000
v -0.04174260 -0.02869546 0.00950000
v -0.06452299 -0.03636770 -0.00000000
v -0.02723123 -0.02971110 -0.00000000
v -0.06828659 -0.03553890 -0.00950000
v -0.06709254 -0.03561665 -0.00950000
v -0.06607139 -0.03624039 -0.00950000
v -0.06545708 -0.03726724 -0.00950000
v -0.06539033 -0.03846196 -0.00950000
v -0.06588645 -0.03955084 -0.00950000
v -0.06683176 -0.04028445 -0.00950000
v -0.06800972 -0.04049472 -0.00950000
v -0.06915047 -0.04013347 -0.00950000
v -0.06999267 -0.03928348 -0.00950000
v -0.07034339 -0.03813945 -0.00950000
v -0.07012229 -0.03696348 -0.00950000
v -0.06938000 -0.03602496 -0.00950000
v -0.02398681 -0.02763136 -0.00950000
v -0.02279276 -0.02770910 -0.00950000
v -0.02177161 -0.02833285 -0.00950000
v -0.02115730 -0.02935970 -0.00950000
v -0.02109055 -0.03055441 -0.00950000
v -0.02158666 -0.03164330 -0.00950000
v -0.02253198 -0.03237690 -0.00950000
v -0.02370994 -0.03258717 -0.00950000
v -0.02485069 -0.03222593 -0.00950000
v -0.02569289 -0.03137593 -0.00950000
v -0.02604361 -0.03023191 -0.00950000
v -0.02582250 -0.02905593 -0.00950000
v -0.02508022 -0.02811742 -0.00950000
v -0.06740797 -0.04046110 0.00950000
v -0.06631456 -0.03997504 0.00950000
v -0.06557228 -0.03903652 0.00950000
v -0.06535117 -0.03786055 0.00950000
v -0.06570189 -0.03671652 0.00950000
v -0.06654410 -0.03586653 0.00950000
v -0.06768484 -0.03550528 0.00950000
v -0.06886280 -0.03571555 0.00950000
v -0.06980812 -0.03644916 0.00950000
v -0.07030423 -0.03753804 0.00950000
v -0.07023749 -0.03873276 0.00950000
v -0.06962317 -0.03975961 0.00950000
v -0.06860203 -0.04038335 0.00950000
v -0.02310819 -0.03255355 0.00950000
v -0.02201478 -0.03206749 0.00950000
v -0.02127250 -0.03112897 0.00950000
v -0.02105139 -0.02995300 0.00950000
v -0.02140212 -0.02880898 0.00950000
v -0.02224432 -0.02795898 0.00950000
v -0.02338506 -0.02759774 0.00950000
v -0.02456302 -0.02780800 0.00950000
v -0.02550834 -0.02854161 0.00950000
v -0.02600445 -0.02963050 0.00950000
v -0.02593770 -0.03082521 0.00950000
v -0.02532339 -0.03185206 0.00950000
v -0.02430224 -0.03247581 0.00950000
v -0.02210757 -0.03051268 0.02000000
v -0.02224997 -0.03084507 0.02000000
v -0.02224997 -0.03084507 -0.02000000
v -0.02246779 -0.03113372 -0.02000000
v -0.02246779 -0.03113372 0.02000000
v -0.02307536 -0.03151621 0.02000000
v -0.02307536 -0.03151621 -0.02000000
v -0.02379110 -0.03157254 0.02000000
v -0.02379110 -0.03157254 -0.02000000
v -0.02445102 -0.03128980 0.02000000
v -0.02445102 -0.03128980 -0.02000000
v -0.02490397 -0.03073277 0.02000000
v -0.02490397 -0.03073277 -0.02000000
v -0.02504616 -0.03002904 0.02000000
v -0.02504616 -0.03002904 -0.02000000
v -0.02484503 -0.02933984 0.02000000
v -0.02484503 -0.02933984 -0.02000000
v -0.02434665 -0.02882306 0.02000000
v -0.02434665 -0.02882306 -0.02000000
v -0.02366519 -0.02859708 0.02000000
v -0.02366519 -0.02859708 -0.02000000
v -0.02295678 -0.02871367 0.02000000
v -0.02295678 -0.02871367 -0.02000000
v -0.02238369 -0.02914613 0.02000000
v -0.02238369 -0.02914613 -0.02000000
v -0.02207721 -0.02979537 0.02000000
v -0.02207721 -0.02979537 -0.02000000
v -0.02210757 -0.03051268 -0.02000000
v -0.02354750 -0.03009246 0.02000000
v -0.02354750 -0.03009246 -0.02000000
v -0.04329016 -0.02934421 0.00550000
v -0.04344356 -0.02934804 0.00550000
v -0.04345936 -0.02912646 0.00570764
v -0.04364631 -0.02937512 0.00550000
v -0.04368921 -0.02915716 0.00570764
v -0.04384419 -0.02942691 0.00550000
v -0.04391355 -0.02921588 0.00570764
v -0.04403420 -0.02950262 0.00550000
v -0.04412898 -0.02930171 0.00570764
v -0.04421347 -0.02960111 0.00550000
v -0.04433222 -0.02941337 0.00570764
v -0.04437928 -0.02972089 0.00550000
v -0.04452020 -0.02954916 0.00570764
v -0.04452912 -0.02986013 0.00550000
v -0.04469007 -0.02970703 0.00570764
v -0.04466071 -0.03001673 0.00550000
v -0.04483925 -0.02988457 0.00570764
v -0.04477205 -0.03018832 0.00550000
v -0.04496549 -0.03007909 0.00570764
v -0.04486147 -0.03037228 0.00550000
v -0.04506686 -0.03028766 0.00570764
v -0.04492760 -0.03056584 0.00550000
v -0.04514183 -0.03050710 0.00570764
v -0.04496944 -0.03076606 0.00550000
v -0.04518927 -0.03073409 0.00570764
v -0.04498636 -0.03096991 0.00550000
v -0.04520845 -0.03096519 0.00570764
v -0.04497810 -0.03117429 0.00550000
v -0.04519909 -0.03119690 0.00570764
v -0.04494479 -0.03137610 0.00550000
v -0.04516133 -0.03142570 0.00570764
v -0.04488694 -0.03157229 0.00550000
v -0.04509573 -0.03164813 0.00570764
v -0.04480541 -0.03175988 0.00550000
v -0.04500330 -0.03186080 0.00570764
v -0.04470144 -0.03193604 0.00550000
v -0.04488543 -0.03206051 0.00570764
v -0.04457662 -0.03209808 0.00550000
v -0.04474392 -0.03224422 0.00570764
v -0.04443283 -0.03224356 0.00550000
v -0.04458090 -0.03240915 0.00570764
v -0.04427225 -0.03237026 0.00550000
v -0.04439886 -0.03255279 0.00570764
v -0.04409732 -0.03247627 0.00550000
v -0.04420053 -0.03267298 0.00570764
v -0.04391069 -0.03255998 0.00550000
v -0.04398894 -0.03276788 0.00570764
v -0.04371518 -0.03262011 0.00550000
v -0.04376730 -0.03283606 0.00570764
v -0.04351377 -0.03265577 0.00550000
v -0.04353895 -0.03287648 0.00570764
v -0.04330950 -0.03266641 0.00550000
v -0.04330737 -0.03288854 0.00570764
v -0.04310547 -0.03265186 0.00550000
v -0.04307606 -0.03287205 0.00570764
v -0.04290478 -0.03261235 0.00550000
v -0.04284853 -0.03282725 0.00570764
v -0.04271046 -0.03254848 0.00550000
v -0.04262823 -0.03275484 0.00570764
v -0.04252547 -0.03246121 0.00550000
v -0.04241850 -0.03265591 0.00570764
v -0.04235260 -0.03235187 0.00550000
v -0.04222252 -0.03253195 0.00570764
v -0.04219447 -0.03222212 0.00550000
v -0.04204325 -0.03238484 0.00570764
v -0.04205350 -0.03207392 0.00550000
v -0.04188343 -0.03221682 0.00570764
v -0.04193180 -0.03190951 0.00550000
v -0.04174546 -0.03203043 0.00570764
v -0.04183123 -0.03173140 0.00550000
v -0.04163144 -0.03182850 0.00570764
v -0.04175331 -0.03154228 0.00550000
v -0.04154310 -0.03161409 0.00570764
v -0.04169922 -0.03134501 0.00550000
v -0.04148177 -0.03139045 0.00570764
v -0.04166978 -0.03114260 0.00550000
v -0.04144840 -0.03116097 0.00570764
v -0.04166544 -0.03093810 0.00550000
v -0.04144348 -0.03092913 0.00570764
v -0.04168626 -0.03073461 0.00550000
v -0.04146709 -0.03069844 0.00570764
v -0.04173193 -0.03053523 0.00550000
v -0.04151886 -0.03047240 0.00570764
v -0.04180176 -0.03034298 0.00550000
v -0.04159803 -0.03025443 0.00570764
v -0.04189469 -0.03016075 0.00550000
v -0.04170338 -0.03004785 0.00570764
v -0.04200929 -0.02999134 0.00550000
v -0.04183332 -0.02985577 0.00570764
v -0.04214386 -0.02983728 0.00550000
v -0.04198587 -0.02968112 0.00570764
v -0.04229633 -0.02970094 0.00550000
v -0.04215873 -0.02952654 0.00570764
v -0.04246441 -0.02958436 0.00550000
v -0.04234928 -0.02939438 0.00570764
v -0.04264553 -0.02948932 0.00550000
v -0.04255462 -0.02928663 0.00570764
v -0.04283696 -0.02941726 0.00550000
v -0.04277165 -0.02920494 0.00570764
v -0.04303580 -0.02936927 0.00550000
v -0.04299707 -0.02915053 0.00570764
v -0.04323902 -0.02934608 0.00550000
v -0.04322748 -0.02912424 0.00570764
v -0.04321726 -0.02892813 0.00593979
v -0.04296284 -0.02895716 0.00593979
v -0.04271391 -0.02901724 0.00593979
v -0.04247425 -0.02910745 0.00593979
v -0.04224750 -0.02922643 0.00593979
v -0.04203708 -0.02937238 0.00593979
v -0.04184620 -0.02954307 0.00593979
v -0.04167774 -0.02973593 0.00593979
v -0.04153426 -0.02994803 0.00593979
v -0.04141792 -0.03017616 0.00593979
v -0.04133051 -0.03041685 0.00593979
v -0.04127333 -0.03066646 0.00593979
v -0.04124726 -0.03092120 0.00593979
v -0.04125270 -0.03117722 0.00593979
v -0.04128955 -0.03143063 0.00593979
v -0.04135726 -0.03167759 0.00593979
v -0.04145481 -0.03191435 0.00593979
v -0.04158072 -0.03213733 0.00593979
v -0.04173308 -0.03234316 0.00593979
v -0.04190957 -0.03252869 0.00593979
v -0.04210753 -0.03269114 0.00593979
v -0.04232394 -0.03282802 0.00593979
v -0.04255554 -0.03293727 0.00593979
v -0.04279881 -0.03301724 0.00593979
v -0.04305007 -0.03306670 0.00593979
v -0.04330549 -0.03308491 0.00593979
v -0.04356122 -0.03307160 0.00593979
v -0.04381337 -0.03302695 0.00593979
v -0.04405813 -0.03295166 0.00593979
v -0.04429178 -0.03284687 0.00593979
v -0.04451078 -0.03271415 0.00593979
v -0.04471181 -0.03255554 0.00593979
v -0.04489182 -0.03237341 0.00593979
v -0.04504809 -0.03217055 0.00593979
v -0.04517825 -0.03195002 0.00593979
v -0.04528031 -0.03171516 0.00593979
v -0.04535275 -0.03146955 0.00593979
v -0.04539445 -0.03121689 0.00593979
v -0.04540479 -0.03096103 0.00593979
v -0.04538360 -0.03070583 0.00593979
v -0.04533122 -0.03045517 0.00593979
v -0.04524843 -0.03021285 0.00593979
v -0.04513649 -0.02998254 0.00593979
v -0.04499709 -0.02976773 0.00593979
v -0.04483236 -0.02957168 0.00593979
v -0.04464478 -0.02939736 0.00593979
v -0.04443720 -0.02924741 0.00593979
v -0.04421276 -0.02912411 0.00593979
v -0.04397488 -0.02902932 0.00593979
v -0.04372714 -0.02896448 0.00593979
v -0.04347333 -0.02893058 0.00593979
v -0.04320853 -0.02876042 0.00619329
v -0.04293356 -0.02879180 0.00619329
v -0.04266454 -0.02885673 0.00619329
v -0.04240553 -0.02895423 0.00619329
v -0.04216047 -0.02908281 0.00619329
v -0.04193306 -0.02924054 0.00619329
v -0.04172676 -0.02942502 0.00619329
v -0.04154470 -0.02963345 0.00619329
v -0.04138963 -0.02986268 0.00619329
v -0.04126391 -0.03010922 0.00619329
v -0.04116943 -0.03036935 0.00619329
v -0.04110764 -0.03063911 0.00619329
v -0.04107947 -0.03091442 0.00619329
v -0.04108534 -0.03119111 0.00619329
v -0.04112517 -0.03146498 0.00619329
v -0.04119835 -0.03173188 0.00619329
v -0.04130378 -0.03198776 0.00619329
v -0.04143985 -0.03222875 0.00619329
v -0.04160451 -0.03245119 0.00619329
v -0.04179525 -0.03265171 0.00619329
v -0.04200919 -0.03282727 0.00619329
v -0.04224308 -0.03297520 0.00619329
v -0.04249338 -0.03309328 0.00619329
v -0.04275629 -0.03317970 0.00619329
v -0.04302783 -0.03323315 0.00619329
v -0.04330388 -0.03325284 0.00619329
v -0.04358026 -0.03323844 0.00619329
v -0.04385277 -0.03319020 0.00619329
v -0.04411729 -0.03310883 0.00619329
v -0.04436981 -0.03299557 0.00619329
v -0.04460649 -0.03285214 0.00619329
v -0.04482375 -0.03268072 0.00619329
v -0.04501830 -0.03248389 0.00619329
v -0.04518719 -0.03226464 0.00619329
v -0.04532785 -0.03202631 0.00619329
v -0.04543816 -0.03177249 0.00619329
v -0.04551644 -0.03150704 0.00619329
v -0.04556151 -0.03123399 0.00619329
v -0.04557268 -0.03095746 0.00619329
v -0.04554979 -0.03068166 0.00619329
v -0.04549317 -0.03041076 0.00619329
v -0.04540370 -0.03014887 0.00619329
v -0.04528272 -0.02989997 0.00619329
v -0.04513207 -0.02966781 0.00619329
v -0.04495403 -0.02945593 0.00619329
v -0.04475131 -0.02926754 0.00619329
v -0.04452696 -0.02910548 0.00619329
v -0.04428441 -0.02897222 0.00619329
v -0.04402732 -0.02886978 0.00619329
v -0.04375958 -0.02879971 0.00619329
v -0.04348527 -0.02876307 0.00619329
v -0.04320140 -0.02862342 0.00646466
v -0.04290965 -0.02865671 0.00646466
v -0.04262421 -0.02872561 0.00646466
v -0.04234939 -0.02882905 0.00646466
v -0.04208937 -0.02896549 0.00646466
v -0.04184809 -0.02913284 0.00646466
v -0.04162920 -0.02932858 0.00646466
v -0.04143602 -0.02954973 0.00646466
v -0.04127149 -0.02979295 0.00646466
v -0.04113809 -0.03005454 0.00646466
v -0.04103785 -0.03033054 0.00646466
v -0.04097228 -0.03061677 0.00646466
v -0.04094239 -0.03090888 0.00646466
v -0.04094862 -0.03120246 0.00646466
v -0.04099088 -0.03149305 0.00646466
v -0.04106853 -0.03177623 0.00646466
v -0.04118039 -0.03204773 0.00646466
v -0.04132477 -0.03230343 0.00646466
v -0.04149948 -0.03253944 0.00646466
v -0.04170186 -0.03275220 0.00646466
v -0.04192886 -0.03293847 0.00646466
v -0.04217703 -0.03309544 0.00646466
v -0.04244260 -0.03322072 0.00646466
v -0.04272156 -0.03331241 0.00646466
v -0.04300967 -0.03336913 0.00646466
v -0.04330257 -0.03339002 0.00646466
v -0.04359581 -0.03337475 0.00646466
v -0.04388496 -0.03332356 0.00646466
v -0.04416562 -0.03323722 0.00646466
v -0.04443355 -0.03311706 0.00646466
v -0.04468467 -0.03296487 0.00646466
v -0.04491520 -0.03278298 0.00646466
v -0.04512162 -0.03257414 0.00646466
v -0.04530082 -0.03234151 0.00646466
v -0.04545007 -0.03208863 0.00646466
v -0.04556711 -0.03181932 0.00646466
v -0.04565017 -0.03153767 0.00646466
v -0.04569799 -0.03124795 0.00646466
v -0.04570984 -0.03095455 0.00646466
v -0.04568555 -0.03066192 0.00646466
v -0.04562548 -0.03037448 0.00646466
v -0.04553054 -0.03009661 0.00646466
v -0.04540218 -0.02983251 0.00646466
v -0.04524234 -0.02958619 0.00646466
v -0.04505343 -0.02936138 0.00646466
v -0.04483833 -0.02916148 0.00646466
v -0.04460030 -0.02898954 0.00646466
v -0.04434294 -0.02884815 0.00646466
v -0.04407015 -0.02873945 0.00646466
v -0.04378608 -0.02866511 0.00646466
v -0.04349503 -0.02862623 0.00646466
v -0.04319596 -0.02851899 0.00675018
v -0.04289142 -0.02855375 0.00675018
v -0.04259346 -0.02862566 0.00675018
v -0.04230659 -0.02873364 0.00675018
v -0.04203517 -0.02887606 0.00675018
v -0.04178331 -0.02905075 0.00675018
v -0.04155483 -0.02925507 0.00675018
v -0.04135318 -0.02948592 0.00675018
v -0.04118143 -0.02973980 0.00675018
v -0.04104219 -0.03001286 0.00675018
v -0.04093755 -0.03030096 0.00675018
v -0.04086911 -0.03059974 0.00675018
v -0.04083791 -0.03090466 0.00675018
v -0.04084441 -0.03121111 0.00675018
v -0.04088853 -0.03151444 0.00675018
v -0.04096958 -0.03181004 0.00675018
v -0.04108635 -0.03209344 0.00675018
v -0.04123705 -0.03236035 0.00675018
v -0.04141942 -0.03260671 0.00675018
v -0.04163068 -0.03282880 0.00675018
v -0.04186763 -0.03302324 0.00675018
v -0.04212667 -0.03318709 0.00675018
v -0.04240390 -0.03331786 0.00675018
v -0.04269508 -0.03341357 0.00675018
v -0.04299583 -0.03347278 0.00675018
v -0.04330157 -0.03349458 0.00675018
v -0.04360767 -0.03347864 0.00675018
v -0.04390949 -0.03342521 0.00675018
v -0.04420246 -0.03333509 0.00675018
v -0.04448213 -0.03320965 0.00675018
v -0.04474427 -0.03305079 0.00675018
v -0.04498490 -0.03286093 0.00675018
v -0.04520037 -0.03264293 0.00675018
v -0.04538742 -0.03240011 0.00675018
v -0.04554322 -0.03213613 0.00675018
v -0.04566539 -0.03185502 0.00675018
v -0.04575209 -0.03156102 0.00675018
v -0.04580201 -0.03125860 0.00675018
v -0.04581438 -0.03095233 0.00675018
v -0.04578903 -0.03064687 0.00675018
v -0.04572633 -0.03034683 0.00675018
v -0.04562723 -0.03005678 0.00675018
v -0.04549323 -0.02978110 0.00675018
v -0.04532638 -0.02952398 0.00675018
v -0.04512919 -0.02928931 0.00675018
v -0.04490466 -0.02908065 0.00675018
v -0.04465619 -0.02890117 0.00675018
v -0.04438755 -0.02875357 0.00675018
v -0.04410281 -0.02864012 0.00675018
v -0.04380628 -0.02856251 0.00675018
v -0.04350246 -0.02852193 0.00675018
v -0.04319229 -0.02844857 0.00704597
v -0.04287913 -0.02848431 0.00704597
v -0.04257273 -0.02855826 0.00704597
v -0.04227774 -0.02866930 0.00704597
v -0.04199863 -0.02881575 0.00704597
v -0.04173963 -0.02899539 0.00704597
v -0.04150467 -0.02920550 0.00704597
v -0.04129732 -0.02944289 0.00704597
v -0.04112070 -0.02970396 0.00704597
v -0.04097751 -0.02998475 0.00704597
v -0.04086991 -0.03028102 0.00704597
v -0.04079954 -0.03058826 0.00704597
v -0.04076745 -0.03090182 0.00704597
v -0.04077414 -0.03121695 0.00704597
v -0.04081950 -0.03152886 0.00704597
v -0.04090285 -0.03183284 0.00704597
v -0.04102292 -0.03212427 0.00704597
v -0.04117790 -0.03239874 0.00704597
v -0.04136543 -0.03265208 0.00704597
v -0.04158267 -0.03288045 0.00704597
v -0.04182633 -0.03308040 0.00704597
v -0.04209272 -0.03324889 0.00704597
v -0.04237779 -0.03338337 0.00704597
v -0.04267723 -0.03348180 0.00704597
v -0.04298649 -0.03354267 0.00704597
v -0.04330089 -0.03356509 0.00704597
v -0.04361566 -0.03354870 0.00704597
v -0.04392603 -0.03349375 0.00704597
v -0.04422730 -0.03340108 0.00704597
v -0.04451489 -0.03327209 0.00704597
v -0.04478446 -0.03310874 0.00704597
v -0.04503191 -0.03291349 0.00704597
v -0.04525348 -0.03268932 0.00704597
v -0.04544583 -0.03243962 0.00704597
v -0.04560604 -0.03216817 0.00704597
v -0.04573167 -0.03187909 0.00704597
v -0.04582083 -0.03157677 0.00704597
v -0.04587216 -0.03126578 0.00704597
v -0.04588488 -0.03095083 0.00704597
v -0.04585881 -0.03063672 0.00704597
v -0.04579433 -0.03032818 0.00704597
v -0.04569243 -0.03002992 0.00704597
v -0.04555464 -0.02974643 0.00704597
v -0.04538306 -0.02948202 0.00704597
v -0.04518029 -0.02924071 0.00704597
v -0.04494940 -0.02902614 0.00704597
v -0.04469389 -0.02884157 0.00704597
v -0.04441764 -0.02868980 0.00704597
v -0.04412483 -0.02857313 0.00704597
v -0.04381990 -0.02849332 0.00704597
v -0.04350748 -0.02845159 0.00704597
v -0.04319045 -0.02841312 0.00734796
v -0.04287294 -0.02844935 0.00734796
v -0.04256229 -0.02852433 0.00734796
v -0.04226321 -0.02863691 0.00734796
v -0.04198023 -0.02878539 0.00734796
v -0.04171764 -0.02896752 0.00734796
v -0.04147943 -0.02918054 0.00734796
v -0.04126919 -0.02942122 0.00734796
v -0.04109013 -0.02968591 0.00734796
v -0.04094495 -0.02997060 0.00734796
v -0.04083586 -0.03027098 0.00734796
v -0.04076451 -0.03058248 0.00734796
v -0.04073197 -0.03090039 0.00734796
v -0.04073876 -0.03121988 0.00734796
v -0.04078475 -0.03153612 0.00734796
v -0.04086925 -0.03184432 0.00734796
v -0.04099099 -0.03213979 0.00734796
v -0.04114812 -0.03241806 0.00734796
v -0.04133825 -0.03267492 0.00734796
v -0.04155851 -0.03290646 0.00734796
v -0.04180555 -0.03310918 0.00734796
v -0.04207563 -0.03328000 0.00734796
v -0.04236465 -0.03341635 0.00734796
v -0.04266824 -0.03351614 0.00734796
v -0.04298179 -0.03357786 0.00734796
v -0.04330055 -0.03360059 0.00734796
v -0.04361969 -0.03358398 0.00734796
v -0.04393436 -0.03352826 0.00734796
v -0.04423981 -0.03343431 0.00734796
v -0.04453139 -0.03330353 0.00734796
v -0.04480469 -0.03313791 0.00734796
v -0.04505557 -0.03293996 0.00734796
v -0.04528022 -0.03271268 0.00734796
v -0.04547524 -0.03245951 0.00734796
v -0.04563766 -0.03218430 0.00734796
v -0.04576504 -0.03189121 0.00734796
v -0.04585544 -0.03158469 0.00734796
v -0.04590748 -0.03126939 0.00734796
v -0.04592038 -0.03095008 0.00734796
v -0.04589394 -0.03063161 0.00734796
v -0.04582857 -0.03031880 0.00734796
v -0.04572525 -0.03001639 0.00734796
v -0.04558555 -0.02972897 0.00734796
v -0.04541159 -0.02946090 0.00734796
v -0.04520601 -0.02921624 0.00734796
v -0.04497192 -0.02899870 0.00734796
v -0.04471287 -0.02881157 0.00734796
v -0.04443278 -0.02865769 0.00734796
v -0.04413591 -0.02853940 0.00734796
v -0.04382676 -0.02845849 0.00734796
v -0.04351000 -0.02841618 0.00734796
v -0.04319045 -0.02841312 0.00765204
v -0.04287294 -0.02844935 0.00765204
v -0.04256229 -0.02852433 0.00765204
v -0.04226321 -0.02863691 0.00765204
v -0.04198023 -0.02878539 0.00765204
v -0.04171764 -0.02896752 0.00765204
v -0.04147943 -0.02918054 0.00765204
v -0.04126919 -0.02942122 0.00765204
v -0.04109013 -0.02968591 0.00765204
v -0.04094495 -0.02997060 0.00765204
v -0.04083586 -0.03027098 0.00765204
v -0.04076451 -0.03058248 0.00765204
v -0.04073197 -0.03090039 0.00765204
v -0.04073876 -0.03121988 0.00765204
v -0.04078475 -0.03153612 0.00765204
v -0.04086925 -0.03184432 0.00765204
v -0.04099099 -0.03213979 0.00765204
v -0.04114812 -0.03241806 0.00765204
v -0.04133825 -0.03267492 0.00765204
v -0.04155851 -0.03290646 0.00765204
v -0.04180555 -0.03310918 0.00765204
v -0.04207563 -0.03328000 0.00765204
v -0.04236465 -0.03341635 0.00765204
v -0.04266824 -0.03351614 0.00765204
v -0.04298179 -0.03357786 0.00765204
v -0.04330055 -0.03360059 0.00765204
v -0.04361969 -0.03358398 0.00765204
v -0.04393436 -0.03352826 0.00765204
v -0.04423981 -0.03343431 0.00765204
v -0.04453139 -0.03330353 0.00765204
v -0.04480469 -0.03313791 0.00765204
v -0.04505557 -0.03293996 0.00765204
v -0.04528022 -0.03271268 0.00765204
v -0.04547524 -0.03245951 0.00765204
v -0.04563766 -0.03218430 0.00765204
v -0.04576504 -0.03189121 0.00765204
v -0.04585544 -0.03158469 0.00765204
v -0.04590748 -0.03126939 0.00765204
v -0.04592038 -0.03095008 0.00765204
v -0.04589394 -0.03063161 0.00765204
v -0.04582857 -0.03031880 0.00765204
v -0.04572525 -0.03001639 0.00765204
v -0.04558555 -0.02972897 0.00765204
v -0.04541159 -0.02946090 0.00765204
v -0.04520601 -0.02921624 0.00765204
v -0.04497192 -0.02899870 0.00765204
v -0.04471287 -0.02881157 0.00765204
v -0.04443278 -0.02865769 0.00765204
v -0.04413591 -0.02853940 0.00765204
v -0.04382676 -0.02845849 0.00765204
v -0.04351000 -0.02841618 0.00765204
v -0.04319229 -0.02844857 0.00795403
v -0.04287913 -0.02848431 0.00795403
v -0.04257273 -0.02855826 0.00795403
v -0.04227774 -0.02866930 0.00795403
v -0.04199863 -0.02881575 0.00795403
v -0.04173963 -0.02899539 0.00795403
v -0.04150467 -0.02920550 0.00795403
v -0.04129732 -0.02944289 0.00795403
v -0.04112070 -0.02970396 0.00795403
v -0.04097751 -0.02998475 0.00795403
v -0.04086991 -0.03028102 0.00795403
v -0.04079954 -0.03058826 0.00795403
v -0.04076745 -0.03090182 0.00795403
v -0.04077414 -0.03121695 0.00795403
v -0.04081950 -0.03152886 0.00795403
v -0.04090285 -0.03183284 0.00795403
v -0.04102292 -0.03212427 0.00795403
v -0.04117790 -0.03239874 0.00795403
v -0.04136543 -0.03265208 0.00795403
v -0.04158267 -0.03288045 0.00795403
v -0.04182633 -0.03308040 0.00795403
v -0.04209272 -0.03324889 0.00795403
v -0.04237779 -0.03338337 0.00795403
v -0.04267723 -0.03348180 0.00795403
v -0.04298649 -0.03354267 0.00795403
v -0.04330089 -0.03356509 0.00795403
v -0.04361566 -0.03354870 0.00795403
v -0.04392603 -0.03349375 0.00795403
v -0.04422730 -0.03340108 0.00795403
v -0.04451489 -0.03327209 0.00795403
v -0.04478446 -0.03310874 0.00795403
v -0.04503191 -0.03291349 0.00795403
v -0.04525348 -0.03268932 0.00795403
v -0.04544583 -0.03243962 0.00795403
v -0.04560604 -0.03216817 0.00795403
v -0.04573167 -0.03187909 0.00795403
v -0.04582083 -0.03157677 0.00795403
v -0.04587216 -0.03126578 0.00795403
v -0.04588488 -0.03095083 0.00795403
v -0.04585881 -0.03063672 0.00795403
v -0.04579433 -0.03032818 0.00795403
v -0.04569243 -0.03002992 0.00795403
v -0.04555464 -0.02974643 0.00795403
v -0.04538306 -0.02948202 0.00795403
v -0.04518029 -0.02924071 0.00795403
v -0.04494940 -0.02902614 0.00795403
v -0.04469389 -0.02884157 0.00795403
v -0.04441764 -0.02868980 0.00795403
v -0.04412483 -0.02857313 0.00795403
v -0.04381990 -0.02849332 0.00795403
v -0.04350748 -0.02845159 0.00795403
v -0.04319596 -0.02851899 0.00824982
v -0.04289142 -0.02855375 0.00824982
v -0.04259346 -0.02862566 0.00824982
v -0.04230659 -0.02873364 0.00824982
v -0.04203517 -0.02887606 0.00824982
v -0.04178331 -0.02905075 0.00824982
v -0.04155483 -0.02925507 0.00824982
v -0.04135318 -0.02948592 0.00824982
v -0.04118143 -0.02973980 0.00824982
v -0.04104219 -0.03001286 0.00824982
v -0.04093755 -0.03030096 0.00824982
v -0.04086911 -0.03059974 0.00824982
v -0.04083791 -0.03090466 0.00824982
v -0.04084441 -0.03121111 0.00824982
v -0.04088853 -0.03151444 0.00824982
v -0.04096958 -0.03181004 0.00824982
v -0.04108635 -0.03209344 0.00824982
v -0.04123705 -0.03236035 0.00824982
v -0.04141942 -0.03260671 0.00824982
v -0.04163068 -0.03282880 0.00824982
v -0.04186763 -0.03302324 0.00824982
v -0.04212667 -0.03318709 0.00824982
v -0.04240390 -0.03331786 0.00824982
v -0.04269508 -0.03341357 0.00824982
v -0.04299583 -0.03347278 0.00824982
v -0.04330157 -0.03349458 0.00824982
v -0.04360767 -0.03347864 0.00824982
v -0.04390949 -0.03342521 0.00824982
v -0.04420246 -0.03333509 0.00824982
v -0.04448213 -0.03320965 0.00824982
v -0.04474427 -0.03305079 0.00824982
v -0.04498490 -0.03286093 0.00824982
v -0.04520037 -0.03264293 0.00824982
v -0.04538742 -0.03240011 0.00824982
v -0.04554322 -0.03213613 0.00824982
v -0.04566539 -0.03185502 0.00824982
v -0.04575209 -0.03156102 0.00824982
v -0.04580201 -0.03125860 0.00824982
v -0.04581438 -0.03095233 0.00824982
v -0.04578903 -0.03064687 0.00824982
v -0.04572633 -0.03034683 0.00824982
v -0.04562723 -0.03005678 0.00824982
v -0.04549323 -0.02978110 0.00824982
v -0.04532638 -0.02952398 0.00824982
v -0.04512919 -0.02928931 0.00824982
v -0.04490466 -0.02908065 0.00824982
v -0.04465619 -0.02890117 0.00824982
v -0.04438755 -0.02875357 0.00824982
v -0.04410281 -0.02864012 0.00824982
v -0.04380628 -0.02856251 0.00824982
v -0.04350246 -0.02852193 0.00824982
v -0.04320140 -0.02862342 0.00853534
v -0.04290965 -0.02865671 0.00853534
v -0.04262421 -0.02872561 0.00853534
v -0.04234939 -0.02882905 0.00853534
v -0.04208937 -0.02896549 0.00853534
v -0.04184809 -0.02913284 0.00853534
v -0.04162920 -0.02932858 0.00853534
v -0.04143602 -0.02954973 0.00853534
v -0.04127149 -0.02979295 0.00853534
v -0.04113809 -0.03005454 0.00853534
v -0.04103785 -0.03033054 0.00853534
v -0.04097228 -0.03061677 0.00853534
v -0.04094239 -0.03090888 0.00853534
v -0.04094862 -0.03120246 0.00853534
v -0.04099088 -0.03149305 0.00853534
v -0.04106853 -0.03177623 0.00853534
v -0.04118039 -0.03204773 0.00853534
v -0.04132477 -0.03230343 0.00853534
v -0.04149948 -0.03253944 0.00853534
v -0.04170186 -0.03275220 0.00853534
v -0.04192886 -0.03293847 0.00853534
v -0.04217703 -0.03309544 0.00853534
v -0.04244260 -0.03322072 0.00853534
v -0.04272156 -0.03331241 0.00853534
v -0.04300967 -0.03336913 0.00853534
v -0.04330257 -0.03339002 0.00853534
v -0.04359581 -0.03337475 0.00853534
v -0.04388496 -0.03332356 0.00853534
v -0.04416562 -0.03323722 0.00853534
v -0.04443355 -0.03311706 0.00853534
v -0.04468467 -0.03296487 0.00853534
v -0.04491520 -0.03278298 0.00853534
v -0.04512162 -0.03257414 0.00853534
v -0.04530082 -0.03234151 0.00853534
v -0.04545007 -0.03208863 0.00853534
v -0.04556711 -0.03181932 0.00853534
v -0.04565017 -0.03153767 0.00853534
v -0.04569799 -0.03124795 0.00853534
v -0.04570984 -0.03095455 0.00853534
v -0.04568555 -0.03066192 0.00853534
v -0.04562548 -0.03037448 0.00853534
v -0.04553054 -0.03009661 0.00853534
v -0.04540218 -0.02983251 0.00853534
v -0.04524234 -0.02958619 0.00853534
v -0.04505343 -0.02936138 0.00853534
v -0.04483833 -0.02916148 0.00853534
v -0.04460030 -0.02898954 0.00853534
v -0.04434294 -0.02884815 0.00853534
v -0.04407015 -0.02873945 0.00853534
v -0.04378608 -0.02866511 0.00853534
v -0.04349503 -0.02862623 0.00853534
v -0.04320853 -0.02876042 0.00880671
v -0.04293356 -0.02879180 0.00880671
v -0.04266454 -0.02885673 0.00880671
v -0.04240553 -0.02895423 0.00880671
v -0.04216047 -0.02908281 0.00880671
v -0.04193306 -0.02924054 0.00880671
v -0.04172676 -0.02942502 0.00880671
v -0.04154470 -0.02963345 0.00880671
v -0.04138963 -0.02986268 0.00880671
v -0.04126391 -0.03010922 0.00880671
v -0.04116943 -0.03036935 0.00880671
v -0.04110764 -0.03063911 0.00880671
v -0.04107947 -0.03091442 0.00880671
v -0.04108534 -0.03119111 0.00880671
v -0.04112517 -0.03146498 0.00880671
v -0.04119835 -0.03173188 0.00880671
v -0.04130378 -0.03198776 0.00880671
v -0.04143985 -0.03222875 0.00880671
v -0.04160451 -0.03245119 0.00880671
v -0.04179525 -0.03265171 0.00880671
v -0.04200919 -0.03282727 0.00880671
v -0.04224308 -0.03297520 0.00880671
v -0.04249338 -0.03309328 0.00880671
v -0.04275629 -0.03317970 0.00880671
v -0.04302783 -0.03323315 0.00880671
v -0.04330388 -0.03325284 0.00880671
v -0.04358026 -0.03323844 0.00880671
v -0.04385277 -0.03319020 0.00880671
v -0.04411729 -0.03310883 0.00880671
v -0.04436981 -0.03299557 0.00880671
v -0.04460649 -0.03285214 0.00880671
v -0.04482375 -0.03268072 0.00880671
v -0.04501830 -0.03248389 0.00880671
v -0.04518719 -0.03226464 0.00880671
v -0.04532785 -0.03202631 0.00880671
v -0.04543816 -0.03177249 0.00880671
v -0.04551644 -0.03150704 0.00880671
v -0.04556151 -0.03123399 0.00880671
v -0.04557268 -0.03095746 0.00880671
v -0.04554979 -0.03068166 0.00880671
v -0.04549317 -0.03041076 0.00880671
v -0.04540370 -0.03014887 0.00880671
v -0.04528272 -0.02989997 0.00880671
v -0.04513207 -0.02966781 0.00880671
v -0.04495403 -0.02945593 0.00880671
v -0.04475131 -0.02926754 0.00880671
v -0.04452696 -0.02910548 0.00880671
v -0.04428441 -0.02897222 0.00880671
v -0.04402732 -0.02886978 0.00880671
v -0.04375958 -0.02879971 0.00880671
v -0.04348527 -0.02876307 0.00880671
v -0.04321726 -0.02892813 0.00906021
v -0.04296284 -0.02895716 0.00906021
v -0.04271391 -0.02901724 0.00906021
v -0.04247425 -0.02910745 0.00906021
v -0.04224750 -0.02922643 0.00906021
v -0.04203708 -0.02937238 0.00906021
v -0.04184620 -0.02954307 0.00906021
v -0.04167774 -0.02973593 0.00906021
v -0.04153426 -0.02994803 0.00906021
v -0.04141792 -0.03017616 0.00906021
v -0.04133051 -0.03041685 0.00906021
v -0.04127333 -0.03066646 0.00906021
v -0.04124726 -0.03092120 0.00906021
v -0.04125270 -0.03117722 0.00906021
v -0.04128955 -0.03143063 0.00906021
v -0.04135726 -0.03167759 0.00906021
v -0.04145481 -0.03191435 0.00906021
v -0.04158072 -0.03213733 0.00906021
v -0.04173308 -0.03234316 0.00906021
v -0.04190957 -0.03252869 0.00906021
v -0.04210753 -0.03269114 0.00906021
v -0.04232394 -0.03282802 0.00906021
v -0.04255554 -0.03293727 0.00906021
v -0.04279881 -0.03301724 0.00906021
v -0.04305007 -0.03306670 0.00906021
v -0.04330549 -0.03308491 0.00906021
v -0.04356122 -0.03307160 0.00906021
v -0.04381337 -0.03302695 0.00906021
v -0.04405813 -0.03295166 0.00906021
v -0.04429178 -0.03284687 0.00906021
v -0.04451078 -0.03271415 0.00906021
v -0.04471181 -0.03255554 0.00906021
v -0.04489182 -0.03237341 0.00906021
v -0.04504809 -0.03217055 0.00906021
v -0.04517825 -0.03195002 0.00906021
v -0.04528031 -0.03171516 0.00906021
v -0.04535275 -0.03146955 0.00906021
v -0.04539445 -0.03121689 0.00906021
v -0.04540479 -0.03096103 0.00906021
v -0.04538360 -0.03070583 0.00906021
v -0.04533122 -0.03045517 0.00906021
v -0.04524843 -0.03021285 0.00906021
v -0.04513649 -0.02998254 0.00906021
v -0.04499709 -0.02976773 0.00906021
v -0.04483236 -0.02957168 0.00906021
v -0.04464478 -0.02939736 0.00906021
v -0.04443720 -0.02924741 0.00906021
v -0.04421276 -0.02912411 0.00906021
v -0.04397488 -0.02902932 0.00906021
v -0.04372714 -0.02896448 0.00906021
v -0.04347333 -0.02893058 0.00906021
v -0.04322748 -0.02912424 0.00929236
v -0.04299707 -0.02915053 0.00929236
v -0.04277165 -0.02920494 0.00929236
v -0.04255462 -0.02928663 0.00929236
v -0.04234928 -0.02939438 0.00929236
v -0.04215873 -0.02952654 0.00929236
v -0.04198587 -0.02968112 0.00929236
v -0.04183332 -0.02985577 0.00929236
v -0.04170338 -0.03004785 0.00929236
v -0.04159803 -0.03025443 0.00929236
v -0.04151886 -0.03047240 0.00929236
v -0.04146709 -0.03069844 0.00929236
v -0.04144348 -0.03092913 0.00929236
v -0.04144840 -0.03116097 0.00929236
v -0.04148177 -0.03139045 0.00929236
v -0.04154310 -0.03161409 0.00929236
v -0.04163144 -0.03182850 0.00929236
v -0.04174546 -0.03203043 0.00929236
v -0.04188343 -0.03221682 0.00929236
v -0.04204325 -0.03238484 0.00929236
v -0.04222252 -0.03253195 0.00929236
v -0.04241850 -0.03265591 0.00929236
v -0.04262823 -0.03275484 0.00929236
v -0.04284853 -0.03282725 0.00929236
v -0.04307606 -0.03287205 0.00929236
v -0.04330737 -0.03288854 0.00929236
v -0.04353895 -0.03287648 0.00929236
v -0.04376730 -0.03283606 0.00929236
v -0.04398894 -0.03276788 0.00929236
v -0.04420053 -0.03267298 0.00929236
v -0.04439886 -0.03255279 0.00929236
v -0.04458090 -0.03240915 0.00929236
v -0.04474392 -0.03224422 0.00929236
v -0.04488543 -0.03206051 0.00929236
v -0.04500330 -0.03186080 0.00929236
v -0.04509573 -0.03164813 0.00929236
v -0.04516133 -0.03142570 0.00929236
v -0.04519909 -0.03119690 0.00929236
v -0.04520845 -0.03096519 0.00929236
v -0.04518927 -0.03073409 0.00929236
v -0.04514183 -0.03050710 0.00929236
v -0.04506686 -0.03028766 0.00929236
v -0.04496549 -0.03007909 0.00929236
v -0.04483925 -0.02988457 0.00929236
v -0.04469007 -0.02970703 0.00929236
v -0.04452020 -0.02954916 0.00929236
v -0.04433222 -0.02941337 0.00929236
v -0.04412898 -0.02930171 0.00929236
v -0.04391355 -0.02921588 0.00929236
v -0.04368921 -0.02915716 0.00929236
v -0.04345936 -0.02912646 0.00929236
v -0.04344356 -0.02934804 0.00950000
v -0.04329016 -0.02934421 0.00950000
v -0.04323902 -0.02934608 0.00950000
v -0.04303580 -0.02936927 0.00950000
v -0.04283696 -0.02941726 0.00950000
v -0.04264553 -0.02948932 0.00950000
v -0.04246441 -0.02958436 0.00950000
v -0.04229633 -0.02970094 0.00950000
v -0.04214386 -0.02983728 0.00950000
v -0.04200929 -0.02999134 0.00950000
v -0.04189469 -0.03016075 0.00950000
v -0.04180176 -0.03034298 0.00950000
v -0.04173193 -0.03053523 0.00950000
v -0.04168626 -0.03073461 0.00950000
v -0.04166544 -0.03093810 0.00950000
v -0.04166978 -0.03114260 0.00950000
v -0.04169922 -0.03134501 0.00950000
v -0.04175331 -0.03154228 0.00950000
v -0.04183123 -0.03173140 0.00950000
v -0.04193180 -0.03190951 0.00950000
v -0.04205350 -0.03207392 0.00950000
v -0.04219447 -0.03222212 0.00950000
v -0.04235260 -0.03235187 0.00950000
v -0.04252547 -0.03246121 0.00950000
v -0.04271046 -0.03254848 0.00950000
v -0.04290478 -0.03261235 0.00950000
v -0.04310547 -0.03265186 0.00950000
v -0.04330950 -0.03266641 0.00950000
v -0.04351377 -0.03265577 0.00950000
v -0.04371518 -0.03262011 0.00950000
v -0.04391069 -0.03255998 0.00950000
v -0.04409732 -0.03247627 0.00950000
v -0.04427225 -0.03237026 0.00950000
v -0.04443283 -0.03224356 0.00950000
v -0.04457662 -0.03209808 0.00950000
v -0.04470144 -0.03193604 0.00950000
v -0.04480541 -0.03175988 0.00950000
v -0.04488694 -0.03157229 0.00950000
v -0.04494479 -0.03137610 0.00950000
v -0.04497810 -0.03117429 0.00950000
v -0.04498636 -0.03096991 0.00950000
v -0.04496944 -0.03076606 0.00950000
v -0.04492760 -0.03056584 0.00950000
v -0.04486147 -0.03037228 0.00950000
v -0.04477205 -0.03018832 0.00950000
v -0.04466071 -0.03001673 0.00950000
v -0.04452912 -0.02986013 0.00950000
v -0.04437928 -0.02972089 0.00950000
v -0.04421347 -0.02960111 0.00950000
v -0.04403420 -0.02950262 0.00950000
v -0.04384419 -0.02942691 0.00950000
v -0.04364631 -0.02937512 0.00950000
v -0.04348257 -0.03199273 0.00950000
v -0.04321030 -0.03199851 0.00950000
v -0.04239047 -0.03135996 0.00950000
v -0.04232942 -0.03109456 0.00950000
v -0.04252086 -0.03159904 0.00950000
v -0.04234223 -0.03082253 0.00950000
v -0.04415444 -0.03156437 0.00950000
v -0.04427456 -0.03131997 0.00950000
v -0.04429996 -0.03078097 0.00950000
v -0.04420333 -0.03052636 0.00950000
v -0.04278781 -0.03016196 0.00950000
v -0.04303524 -0.03004818 0.00950000
v -0.04271093 -0.03179409 0.00950000
v -0.04294656 -0.03193062 0.00950000
v -0.04397282 -0.03176730 0.00950000
v -0.04432430 -0.03105222 0.00950000
v -0.04404160 -0.03030725 0.00950000
v -0.04382675 -0.03013991 0.00950000
v -0.04357471 -0.03003673 0.00950000
v -0.04330419 -0.03000538 0.00950000
v -0.04374319 -0.03191371 0.00950000
v -0.04258025 -0.03033827 0.00950000
v -0.04242796 -0.03056404 0.00950000
v -0.04330419 -0.03000538 0.00550000
v -0.04303524 -0.03004818 0.00550000
v -0.04278781 -0.03016196 0.00550000
v -0.04258025 -0.03033827 0.00550000
v -0.04242796 -0.03056404 0.00550000
v -0.04234223 -0.03082253 0.00550000
v -0.04232942 -0.03109456 0.00550000
v -0.04239047 -0.03135996 0.00550000
v -0.04252086 -0.03159904 0.00550000
v -0.04271093 -0.03179409 0.00550000
v -0.04294656 -0.03193062 0.00550000
v -0.04321030 -0.03199851 0.00550000
v -0.04348257 -0.03199273 0.00550000
v -0.04374319 -0.03191371 0.00550000
v -0.04397282 -0.03176730 0.00550000
v -0.04415444 -0.03156437 0.00550000
v -0.04427456 -0.03131997 0.00550000
v -0.04432430 -0.03105222 0.00550000
v -0.04429996 -0.03078097 0.00550000
v -0.04420333 -0.03052636 0.00550000
v -0.04404160 -0.03030725 0.00550000
v -0.04382675 -0.03013991 0.00550000
v -0.04357471 -0.03003673 0.00550000
v -0.06929339 -0.03760152 0.02000000
v -0.06915601 -0.03726703 0.02000000
v -0.06915601 -0.03726703 -0.02000000
v -0.06894256 -0.03697513 -0.02000000
v -0.06894256 -0.03697513 0.02000000
v -0.06834082 -0.03658352 0.02000000
v -0.06834082 -0.03658352 -0.02000000
v -0.06762602 -0.03651641 0.02000000
v -0.06762602 -0.03651641 -0.02000000
v -0.06696191 -0.03678917 0.02000000
v -0.06696191 -0.03678917 -0.02000000
v -0.06650062 -0.03733932 0.02000000
v -0.06650062 -0.03733932 -0.02000000
v -0.06634784 -0.03804082 0.02000000
v -0.06634784 -0.03804082 -0.02000000
v -0.06653856 -0.03873298 0.02000000
v -0.06653856 -0.03873298 -0.02000000
v -0.06702910 -0.03925721 0.02000000
v -0.06702910 -0.03925721 -0.02000000
v -0.06770707 -0.03949343 0.02000000
v -0.06770707 -0.03949343 -0.02000000
v -0.06841716 -0.03938753 0.02000000
v -0.06841716 -0.03938753 -0.02000000
v -0.06899671 -0.03896376 0.02000000
v -0.06899671 -0.03896376 -0.02000000
v -0.06931292 -0.03831920 0.02000000
v -0.06931292 -0.03831920 -0.02000000
v -0.06929339 -0.03760152 -0.02000000
v -0.06784728 -0.03800000 0.02000000
v -0.06784728 -0.03800000 -0.02000000
f 47 48 25
f 25 48 26
f 49 50 51
f 51 50 52
f 3 4 5
f 5 4 6
f 5 6 7
f 7 6 8
f 102 163 157
f 162 161 164
f 53 54 55
f 51 56 49
f 39 40 41
f 41 40 42
f 41 42 43
f 43 42 44
f 155 156 102
f 155 102 157
f 158 103 159
f 159 103 102
f 144 143 145
f 146 147 148
f 148 147 149
f 148 149 150
f 75 81 99
f 75 99 55
f 55 99 100
f 55 100 53
f 75 70 76
f 80 91 78
f 78 91 92
f 78 92 93
f 59 118 119
f 59 119 61
f 61 119 120
f 61 120 82
f 110 74 73
f 110 73 111
f 111 73 71
f 111 71 112
f 56 51 113
f 114 115 113
f 113 115 116
f 113 116 56
f 159 102 160
f 160 102 156
f 161 162 102
f 102 162 163
f 132 133 130
f 130 133 134
f 164 161 165
f 164 165 166
f 154 152 141
f 154 141 140
f 132 131 146
f 146 131 147
f 11 12 13
f 85 123 87
f 87 123 124
f 87 124 89
f 56 116 117
f 56 117 57
f 57 117 118
f 57 118 59
f 178 176 179
f 178 179 180
f 180 179 181
f 114 182 115
f 166 165 167
f 166 167 168
f 166 168 169
f 169 168 170
f 169 170 171
f 171 170 172
f 171 172 173
f 173 172 174
f 198 176 200
f 200 176 174
f 200 174 172
f 213 196 217
f 218 219 124
f 124 219 220
f 124 220 112
f 112 220 221
f 213 214 196
f 212 215 216
f 200 172 202
f 202 172 170
f 202 170 204
f 204 170 168
f 204 168 206
f 206 168 167
f 205 206 207
f 207 206 208
f 207 208 209
f 209 208 210
f 209 210 211
f 211 210 212
f 211 212 189
f 189 212 190
f 197 198 199
f 199 198 200
f 199 200 201
f 201 200 202
f 201 202 203
f 203 202 204
f 203 204 205
f 205 204 206
f 124 123 227
f 227 123 122
f 227 122 236
f 236 122 121
f 236 121 224
f 224 121 120
f 224 120 119
f 117 116 214
f 196 232 217
f 194 192 124
f 124 192 190
f 124 190 218
f 218 190 212
f 218 212 233
f 233 212 216
f 234 235 105
f 226 117 214
f 227 228 124
f 124 228 229
f 124 229 194
f 229 230 194
f 194 230 231
f 194 231 196
f 196 231 232
f 112 221 111
f 111 221 222
f 111 222 110
f 110 222 223
f 224 119 225
f 225 119 118
f 225 118 226
f 226 118 117
f 71 89 112
f 112 89 124
f 239 240 241
f 241 242 239
f 239 242 243
f 239 243 244
f 245 139 137
f 137 246 245
f 167 165 206
f 206 165 161
f 206 161 208
f 212 210 215
f 215 210 208
f 215 208 237
f 237 208 161
f 237 161 102
f 104 237 102
f 105 106 234
f 234 106 107
f 234 107 238
f 238 107 108
f 238 108 223
f 223 108 109
f 223 109 110
f 214 116 115
f 214 115 196
f 196 115 181
f 196 181 198
f 198 181 179
f 198 179 176
f 105 235 104
f 104 235 237
f 262 263 205
f 205 263 264
f 205 264 203
f 203 264 265
f 203 265 201
f 195 197 266
f 189 191 260
f 260 191 193
f 259 260 261
f 207 240 262
f 260 241 189
f 189 241 211
f 207 262 205
f 240 207 241
f 241 207 209
f 241 209 211
f 252 254 255
f 254 256 255
f 255 256 257
f 255 257 250
f 250 257 258
f 250 258 251
f 253 252 259
f 259 252 260
f 245 246 247
f 245 247 243
f 243 247 248
f 243 248 244
f 145 143 249
f 249 143 250
f 249 250 251
f 252 253 254
f 241 139 245
f 241 245 242
f 242 245 243
f 272 78 101
f 101 78 93
f 53 273 51
f 51 273 113
f 136 138 272
f 130 128 131
f 131 128 126
f 131 126 147
f 149 147 141
f 141 147 126
f 141 126 143
f 143 126 139
f 143 139 241
f 199 270 197
f 197 270 271
f 197 271 266
f 255 250 252
f 252 250 143
f 252 143 260
f 260 143 241
f 141 152 149
f 260 193 261
f 261 193 195
f 261 195 267
f 267 195 266
f 265 268 201
f 201 268 269
f 201 269 199
f 199 269 270
f 129 79 127
f 127 79 78
f 127 78 125
f 125 78 272
f 125 272 138
f 145 183 144
f 144 183 182
f 186 185 256
f 146 148 99
f 146 99 132
f 132 99 81
f 132 81 133
f 133 81 134
f 134 81 79
f 134 79 135
f 135 79 129
f 100 153 53
f 142 273 140
f 140 273 53
f 140 53 154
f 154 53 153
f 99 148 100
f 100 148 150
f 100 150 151
f 158 136 103
f 103 136 272
f 103 272 101
f 273 142 144
f 144 182 273
f 273 182 114
f 273 114 113
f 151 153 100
f 268 173 269
f 269 173 175
f 269 175 270
f 270 175 177
f 270 177 271
f 166 264 164
f 164 264 263
f 164 263 162
f 178 267 266
f 178 266 177
f 177 266 271
f 264 166 169
f 264 169 265
f 265 169 171
f 265 171 268
f 268 171 173
f 259 187 188
f 259 188 253
f 253 188 186
f 253 186 254
f 254 186 256
f 267 180 261
f 261 180 187
f 180 267 178
f 183 145 184
f 184 145 249
f 249 251 184
f 184 251 258
f 184 258 185
f 185 258 257
f 185 257 256
f 261 187 259
f 278 77 279
f 279 77 76
f 279 76 280
f 280 76 70
f 280 70 281
f 281 70 72
f 281 72 282
f 282 72 63
f 274 94 275
f 275 94 92
f 275 92 276
f 276 92 91
f 276 91 277
f 277 91 80
f 277 80 278
f 278 80 77
f 155 239 244
f 155 244 156
f 156 244 248
f 156 248 160
f 160 248 247
f 160 247 246
f 159 137 158
f 158 137 136
f 162 263 262
f 240 163 262
f 262 163 162
f 160 246 159
f 159 246 137
f 163 240 157
f 157 240 239
f 157 239 155
f 37 274 35
f 35 274 275
f 35 275 33
f 33 275 276
f 33 276 31
f 31 276 277
f 31 277 29
f 29 277 278
f 45 283 43
f 43 283 284
f 43 284 41
f 41 284 285
f 41 285 39
f 39 285 286
f 39 286 37
f 37 286 274
f 286 96 274
f 274 96 94
f 279 280 25
f 25 280 281
f 25 281 47
f 47 281 282
f 47 282 45
f 45 282 283
f 282 63 283
f 283 63 65
f 283 65 284
f 284 65 67
f 284 67 285
f 285 67 69
f 285 69 286
f 286 69 96
f 298 55 54
f 298 54 299
f 299 54 52
f 299 52 287
f 287 52 50
f 292 293 1
f 1 293 294
f 1 294 23
f 294 86 88
f 294 88 295
f 295 88 90
f 295 90 296
f 296 90 75
f 296 75 297
f 297 75 55
f 297 55 298
f 290 58 60
f 290 60 291
f 291 60 62
f 291 62 292
f 292 62 84
f 292 84 293
f 293 84 86
f 293 86 294
f 29 278 27
f 27 278 279
f 27 279 25
f 287 50 288
f 288 50 49
f 288 49 289
f 289 49 58
f 289 58 290
f 301 220 302
f 302 220 219
f 302 219 303
f 303 219 218
f 303 218 304
f 304 218 233
f 304 233 305
f 305 233 216
f 7 289 290
f 7 290 5
f 5 290 291
f 5 291 3
f 3 291 292
f 3 292 1
f 300 221 301
f 301 221 220
f 15 298 299
f 15 299 13
f 13 299 287
f 13 287 11
f 11 287 288
f 11 288 9
f 9 288 289
f 9 289 7
f 23 294 295
f 23 295 21
f 21 295 296
f 21 296 19
f 19 296 297
f 19 297 17
f 17 297 298
f 17 298 15
f 44 310 46
f 46 310 311
f 46 311 48
f 48 311 312
f 48 312 26
f 26 312 300
f 26 300 28
f 28 300 301
f 305 306 38
f 38 306 307
f 38 307 40
f 40 307 308
f 40 308 42
f 42 308 309
f 42 309 44
f 44 309 310
f 309 234 310
f 310 234 238
f 310 238 311
f 311 238 223
f 311 223 312
f 312 223 222
f 312 222 300
f 300 222 221
f 305 216 306
f 306 216 215
f 306 215 307
f 307 215 237
f 307 237 308
f 308 237 235
f 308 235 309
f 309 235 234
f 321 213 217
f 321 217 322
f 322 217 232
f 322 232 323
f 323 232 231
f 323 231 324
f 324 231 230
f 324 230 325
f 317 224 225
f 317 225 318
f 318 225 226
f 318 226 319
f 319 226 214
f 319 214 320
f 320 214 213
f 320 213 321
f 36 305 38
f 313 228 314
f 314 228 227
f 314 227 315
f 37 38 39
f 39 38 40
f 23 24 1
f 1 24 2
f 25 26 27
f 27 26 28
f 43 44 45
f 45 44 46
f 29 30 31
f 31 30 32
f 84 85 86
f 86 85 87
f 86 87 88
f 88 87 89
f 35 36 37
f 37 36 38
f 90 71 75
f 75 71 70
f 75 76 77
f 78 79 80
f 80 79 81
f 80 81 77
f 27 28 29
f 29 28 30
f 6 314 315
f 6 315 8
f 8 315 316
f 8 316 10
f 18 321 322
f 18 322 20
f 20 322 323
f 20 323 22
f 28 301 30
f 30 301 302
f 30 302 32
f 32 302 303
f 14 319 320
f 14 320 16
f 16 320 321
f 16 321 18
f 10 316 317
f 10 317 12
f 12 317 318
f 12 318 14
f 315 227 236
f 315 236 316
f 316 236 224
f 316 224 317
f 2 325 313
f 2 313 4
f 4 313 314
f 4 314 6
f 32 303 34
f 34 303 304
f 34 304 36
f 36 304 305
f 45 46 47
f 47 46 48
f 31 32 33
f 33 32 34
f 33 34 35
f 35 34 36
f 51 52 53
f 53 52 54
f 63 73 74
f 63 74 64
f 49 56 57
f 49 57 58
f 58 57 59
f 58 59 60
f 61 82 62
f 62 82 83
f 63 64 65
f 65 64 66
f 106 98 68
f 106 68 107
f 107 68 66
f 107 66 108
f 72 71 73
f 72 73 63
f 109 64 74
f 109 74 110
f 101 93 95
f 102 103 104
f 104 103 101
f 101 95 104
f 60 59 61
f 60 61 62
f 22 323 324
f 22 324 24
f 24 324 325
f 24 325 2
f 325 230 229
f 325 229 313
f 313 229 228
f 318 319 14
f 93 92 94
f 93 94 95
f 95 94 96
f 95 96 97
f 125 126 127
f 127 126 128
f 127 128 129
f 130 131 132
f 108 66 64
f 108 64 109
f 130 134 128
f 128 134 135
f 82 120 121
f 82 121 83
f 83 121 122
f 83 122 85
f 104 95 97
f 104 97 105
f 105 97 98
f 105 98 106
f 97 96 69
f 97 69 98
f 98 69 68
f 77 81 75
f 62 83 84
f 84 83 85
f 65 66 67
f 67 66 68
f 67 68 69
f 70 71 72
f 88 89 90
f 90 89 71
f 150 149 151
f 151 149 152
f 151 152 153
f 153 152 154
f 128 135 129
f 136 137 138
f 138 137 139
f 138 139 125
f 125 139 126
f 140 141 142
f 142 141 143
f 142 143 144
f 189 190 191
f 191 190 192
f 191 192 193
f 193 192 194
f 193 194 195
f 195 194 196
f 195 196 197
f 197 196 198
f 115 182 183
f 183 184 115
f 115 184 185
f 115 185 186
f 180 181 187
f 187 181 115
f 187 115 188
f 188 115 186
f 173 174 175
f 175 174 176
f 175 176 177
f 177 176 178
f 13 12 14
f 13 14 15
f 15 14 16
f 1 2 3
f 3 2 4
f 19 20 21
f 21 20 22
f 21 22 23
f 23 22 24
f 7 8 9
f 9 8 10
f 9 10 11
f 11 10 12
f 15 16 17
f 17 16 18
f 17 18 19
f 19 18 20
f 85 122 123
f 354 345 343
f 354 333 331
f 335 333 354
f 327 354 330
f 352 351 326
f 347 345 354
f 326 351 354
f 327 326 354
f 350 351 352
f 350 349 351
f 348 349 350
f 348 347 349
f 346 347 348
f 354 337 335
f 354 339 337
f 341 339 354
f 354 331 330
f 342 341 343
f 340 341 342
f 340 339 341
f 338 339 340
f 353 326 328
f 352 326 353
f 332 333 334
f 328 327 329
f 326 327 328
f 329 332 355
f 355 332 334
f 355 334 336
f 338 337 339
f 336 337 338
f 334 333 335
f 327 330 329
f 332 331 333
f 329 331 332
f 346 345 347
f 344 345 346
f 342 344 355
f 355 352 353
f 344 343 345
f 354 343 341
f 329 330 331
f 355 340 342
f 336 335 337
f 334 335 336
f 355 338 340
f 336 338 355
f 355 346 348
f 355 344 346
f 355 350 352
f 348 350 355
f 328 355 353
f 328 329 355
f 354 349 347
f 354 351 349
f 342 343 344
f 996 1047 1048
f 1002 1054 1003
f 1002 1053 1054
f 1001 1053 1002
f 1001 1052 1053
f 1000 1052 1001
f 1000 1051 1052
f 999 1051 1000
f 999 1050 1051
f 998 1050 999
f 998 1049 1050
f 997 1049 998
f 997 1048 1049
f 996 1048 997
f 1003 1054 1055
f 995 1047 996
f 995 1046 1047
f 994 1046 995
f 994 1045 1046
f 993 1045 994
f 993 1044 1045
f 992 1044 993
f 992 1043 1044
f 991 1043 992
f 991 1042 1043
f 990 1042 991
f 990 1041 1042
f 1009 1061 1010
f 1016 1067 1068
f 1015 1067 1016
f 1015 1066 1067
f 1014 1066 1015
f 1014 1065 1066
f 1013 1065 1014
f 1013 1064 1065
f 1012 1064 1013
f 1012 1063 1064
f 1011 1063 1012
f 1011 1062 1063
f 1010 1062 1011
f 1010 1061 1062
f 989 1041 990
f 1009 1060 1061
f 1008 1060 1009
f 1008 1059 1060
f 1007 1059 1008
f 1007 1058 1059
f 1006 1058 1007
f 1006 1057 1058
f 1005 1057 1006
f 1005 1056 1057
f 1004 1056 1005
f 1004 1055 1056
f 1003 1055 1004
f 969 1020 1021
f 975 1027 976
f 975 1026 1027
f 974 1026 975
f 974 1025 1026
f 973 1025 974
f 973 1024 1025
f 972 1024 973
f 972 1023 1024
f 971 1023 972
f 971 1022 1023
f 970 1022 971
f 970 1021 1022
f 969 1021 970
f 976 1027 1028
f 967 1019 968
f 967 1018 1019
f 966 1018 967
f 966 1017 1018
f 965 1017 966
f 965 1016 1017
f 964 1016 965
f 964 1015 1016
f 364 365 366
f 963 1014 1015
f 962 1014 963
f 962 1013 1014
f 982 1034 983
f 989 1040 1041
f 988 1040 989
f 988 1039 1040
f 987 1039 988
f 987 1038 1039
f 986 1038 987
f 986 1037 1038
f 985 1037 986
f 985 1036 1037
f 984 1036 985
f 984 1035 1036
f 983 1035 984
f 983 1034 1035
f 1016 1068 1017
f 982 1033 1034
f 981 1033 982
f 981 1032 1033
f 980 1032 981
f 980 1031 1032
f 979 1031 980
f 979 1030 1031
f 978 1030 979
f 978 1029 1030
f 977 1029 978
f 977 1028 1029
f 976 1028 977
f 1051 1102 1103
f 1057 1109 1058
f 1057 1108 1109
f 1056 1108 1057
f 1056 1107 1108
f 1055 1107 1056
f 1055 1106 1107
f 1054 1106 1055
f 1054 1105 1106
f 1053 1105 1054
f 1053 1104 1105
f 1052 1104 1053
f 1052 1103 1104
f 1051 1103 1052
f 1058 1109 1110
f 1050 1102 1051
f 1050 1101 1102
f 1049 1101 1050
f 1049 1100 1101
f 1048 1100 1049
f 1048 1099 1100
f 1047 1099 1048
f 1047 1098 1099
f 1046 1098 1047
f 1046 1097 1098
f 1045 1097 1046
f 1045 1096 1097
f 1064 1116 1065
f 1071 1124 1125
f 1123 1124 1071
f 1122 1123 1071
f 1069 1121 1070
f 1069 1120 1121
f 1068 1120 1069
f 1068 1119 1120
f 1067 1119 1068
f 1067 1118 1119
f 1066 1118 1067
f 1066 1117 1118
f 1065 1117 1066
f 1065 1116 1117
f 1044 1096 1045
f 1064 1115 1116
f 1063 1115 1064
f 1063 1114 1115
f 1062 1114 1063
f 1062 1113 1114
f 1061 1113 1062
f 1061 1112 1113
f 1060 1112 1061
f 1060 1111 1112
f 1059 1111 1060
f 1059 1110 1111
f 1058 1110 1059
f 1024 1075 1076
f 1030 1082 1031
f 1030 1081 1082
f 1029 1081 1030
f 1029 1080 1081
f 1028 1080 1029
f 1028 1079 1080
f 1027 1079 1028
f 1027 1078 1079
f 1026 1078 1027
f 1026 1077 1078
f 1025 1077 1026
f 1025 1076 1077
f 1024 1076 1025
f 1031 1082 1083
f 1023 1075 1024
f 1023 1074 1075
f 1022 1074 1023
f 1022 1073 1074
f 1021 1073 1022
f 1021 1072 1073
f 1020 1072 1021
f 1020 1071 1072
f 1018 1070 1019
f 1018 1069 1070
f 1017 1069 1018
f 1017 1068 1069
f 1037 1089 1038
f 1044 1095 1096
f 1043 1095 1044
f 1043 1094 1095
f 1042 1094 1043
f 1042 1093 1094
f 1041 1093 1042
f 1041 1092 1093
f 1040 1092 1041
f 1040 1091 1092
f 1039 1091 1040
f 1039 1090 1091
f 1038 1090 1039
f 1038 1089 1090
f 961 1013 962
f 1037 1088 1089
f 1036 1088 1037
f 1036 1087 1088
f 1035 1087 1036
f 1035 1086 1087
f 1034 1086 1035
f 1034 1085 1086
f 1033 1085 1034
f 1033 1084 1085
f 1032 1084 1033
f 1032 1083 1084
f 1031 1083 1032
f 886 937 938
f 892 944 893
f 892 943 944
f 891 943 892
f 891 942 943
f 890 942 891
f 890 941 942
f 889 941 890
f 889 940 941
f 888 940 889
f 888 939 940
f 887 939 888
f 887 938 939
f 886 938 887
f 893 944 945
f 885 937 886
f 885 936 937
f 884 936 885
f 884 935 936
f 883 935 884
f 883 934 935
f 882 934 883
f 882 933 934
f 881 933 882
f 881 932 933
f 880 932 881
f 880 931 932
f 899 951 900
f 906 957 958
f 905 957 906
f 905 956 957
f 904 956 905
f 904 955 956
f 903 955 904
f 903 954 955
f 902 954 903
f 902 953 954
f 901 953 902
f 901 952 953
f 900 952 901
f 900 951 952
f 879 931 880
f 899 950 951
f 898 950 899
f 898 949 950
f 897 949 898
f 897 948 949
f 896 948 897
f 896 947 948
f 895 947 896
f 895 946 947
f 894 946 895
f 894 945 946
f 893 945 894
f 858 909 910
f 864 916 865
f 864 915 916
f 863 915 864
f 863 914 915
f 862 914 863
f 862 913 914
f 861 913 862
f 861 912 913
f 860 912 861
f 860 911 912
f 859 911 860
f 859 910 911
f 858 910 859
f 865 916 917
f 857 909 858
f 857 908 909
f 856 908 857
f 856 907 908
f 855 907 856
f 855 906 907
f 854 906 855
f 854 905 906
f 853 905 854
f 853 904 905
f 852 904 853
f 852 903 904
f 872 924 873
f 879 930 931
f 878 930 879
f 878 929 930
f 877 929 878
f 877 928 929
f 876 928 877
f 876 927 928
f 875 927 876
f 875 926 927
f 874 926 875
f 874 925 926
f 873 925 874
f 873 924 925
f 906 958 907
f 872 923 924
f 871 923 872
f 871 922 923
f 870 922 871
f 870 921 922
f 869 921 870
f 869 920 921
f 868 920 869
f 868 919 920
f 867 919 868
f 867 918 919
f 865 917 866
f 941 992 993
f 947 999 948
f 947 998 999
f 946 998 947
f 946 997 998
f 945 997 946
f 945 996 997
f 944 996 945
f 944 995 996
f 943 995 944
f 943 994 995
f 942 994 943
f 942 993 994
f 941 993 942
f 948 999 1000
f 940 992 941
f 940 991 992
f 939 991 940
f 939 990 991
f 938 990 939
f 938 989 990
f 937 989 938
f 937 988 989
f 936 988 937
f 936 987 988
f 935 987 936
f 935 986 987
f 954 1006 955
f 961 1012 1013
f 960 1012 961
f 960 1011 1012
f 959 1011 960
f 959 1010 1011
f 958 1010 959
f 958 1009 1010
f 957 1009 958
f 957 1008 1009
f 956 1008 957
f 956 1007 1008
f 955 1007 956
f 955 1006 1007
f 934 986 935
f 954 1005 1006
f 953 1005 954
f 953 1004 1005
f 952 1004 953
f 952 1003 1004
f 951 1003 952
f 951 1002 1003
f 950 1002 951
f 950 1001 1002
f 949 1001 950
f 949 1000 1001
f 948 1000 949
f 913 964 965
f 920 972 921
f 920 971 972
f 919 971 920
f 919 970 971
f 918 970 919
f 918 969 970
f 916 968 917
f 916 967 968
f 915 967 916
f 915 966 967
f 914 966 915
f 914 965 966
f 913 965 914
f 921 972 973
f 912 964 913
f 912 963 964
f 911 963 912
f 911 962 963
f 910 962 911
f 910 961 962
f 909 961 910
f 909 960 961
f 908 960 909
f 908 959 960
f 907 959 908
f 907 958 959
f 927 979 928
f 934 985 986
f 933 985 934
f 933 984 985
f 932 984 933
f 932 983 984
f 931 983 932
f 931 982 983
f 930 982 931
f 930 981 982
f 929 981 930
f 929 980 981
f 928 980 929
f 928 979 980
f 1071 1125 1072
f 927 978 979
f 926 978 927
f 926 977 978
f 925 977 926
f 925 976 977
f 924 976 925
f 924 975 976
f 923 975 924
f 923 974 975
f 922 974 923
f 922 973 974
f 921 973 922
f 1211 393 1212
f 1211 395 393
f 1211 397 395
f 1210 397 1211
f 1218 365 363
f 1218 367 365
f 1217 367 1218
f 1217 369 367
f 371 369 1217
f 1198 451 1199
f 1198 453 451
f 455 453 1198
f 1212 391 389
f 1212 393 391
f 405 1209 407
f 1213 387 385
f 1213 389 387
f 1212 389 1213
f 1214 383 381
f 1214 385 383
f 1213 385 1214
f 1215 379 377
f 1215 381 379
f 1214 381 1215
f 1216 371 1217
f 1216 373 371
f 375 373 1216
f 1210 401 399
f 1206 419 417
f 1206 421 419
f 1205 421 1206
f 1205 423 421
f 425 423 1205
f 1208 409 407
f 1208 411 409
f 1207 411 1208
f 1207 413 411
f 415 413 1207
f 1206 415 1207
f 417 415 1206
f 1210 399 397
f 1219 361 359
f 1209 401 1210
f 1209 403 401
f 405 403 1209
f 1200 445 443
f 1200 447 445
f 1199 447 1200
f 1199 449 447
f 451 449 1199
f 441 1200 443
f 441 1201 1200
f 439 1201 441
f 407 1209 1208
f 1194 1210 1188
f 1190 1216 1217
f 1183 1216 1190
f 1183 1215 1216
f 1182 1215 1183
f 1182 1214 1215
f 1189 1214 1182
f 1189 1213 1214
f 1181 1213 1189
f 1181 1212 1213
f 1180 1212 1181
f 1180 1211 1212
f 1188 1211 1180
f 1188 1210 1211
f 1190 1217 1191
f 1194 1209 1210
f 1174 1209 1194
f 1174 1208 1209
f 1175 1208 1174
f 1175 1207 1208
f 1187 1207 1175
f 1187 1206 1207
f 1186 1206 1187
f 1186 1205 1206
f 1178 1205 1186
f 1178 1204 1205
f 1176 1204 1178
f 1203 429 1204
f 1219 363 361
f 1218 363 1219
f 1204 425 1205
f 1204 427 425
f 429 427 1204
f 1215 375 1216
f 377 375 1215
f 1197 455 1198
f 1197 457 455
f 356 457 1197
f 437 1201 439
f 437 1202 1201
f 435 1202 437
f 412 413 414
f 1203 431 429
f 433 431 1203
f 1202 433 1203
f 435 433 1202
f 357 1219 359
f 357 1197 1219
f 356 1197 357
f 1193 1219 1197
f 1192 1219 1193
f 1192 1218 1219
f 1191 1218 1192
f 1191 1217 1218
f 436 470 471
f 424 477 422
f 424 476 477
f 426 476 424
f 426 475 476
f 366 365 367
f 428 474 475
f 430 474 428
f 430 473 474
f 432 473 430
f 432 472 473
f 434 472 432
f 434 471 472
f 436 471 434
f 422 477 478
f 438 470 436
f 438 469 470
f 440 469 438
f 444 443 445
f 442 443 444
f 442 441 443
f 440 441 442
f 440 439 441
f 438 439 440
f 438 437 439
f 436 437 438
f 436 435 437
f 394 395 396
f 364 363 365
f 362 363 364
f 362 361 363
f 360 361 362
f 360 359 361
f 358 359 360
f 358 357 359
f 356 357 358
f 400 399 401
f 398 399 400
f 398 397 399
f 396 397 398
f 396 395 397
f 434 435 436
f 394 393 395
f 392 393 394
f 392 391 393
f 390 391 392
f 390 389 391
f 388 389 390
f 396 491 394
f 452 453 454
f 428 475 426
f 420 479 418
f 420 478 479
f 422 478 420
f 426 425 427
f 374 375 376
f 374 373 375
f 372 373 374
f 372 371 373
f 370 371 372
f 370 369 371
f 368 369 370
f 432 431 433
f 430 431 432
f 430 429 431
f 428 429 430
f 428 427 429
f 426 427 428
f 376 375 377
f 424 425 426
f 424 423 425
f 422 423 424
f 422 421 423
f 420 421 422
f 420 419 421
f 418 419 420
f 418 417 419
f 416 417 418
f 416 415 417
f 414 415 416
f 414 413 415
f 408 409 410
f 434 433 435
f 432 433 434
f 452 451 453
f 450 451 452
f 450 449 451
f 448 449 450
f 448 447 449
f 446 447 448
f 446 445 447
f 444 445 446
f 412 411 413
f 410 411 412
f 410 409 411
f 1176 1203 1204
f 408 407 409
f 406 407 408
f 406 405 407
f 404 405 406
f 404 403 405
f 402 403 404
f 402 401 403
f 400 401 402
f 380 379 381
f 378 379 380
f 378 377 379
f 376 377 378
f 1105 1158 1159
f 1111 1165 1112
f 1111 1164 1165
f 1110 1164 1111
f 1110 1163 1164
f 1109 1163 1110
f 1109 1162 1163
f 1108 1162 1109
f 1108 1161 1162
f 1107 1161 1108
f 1107 1160 1161
f 1106 1160 1107
f 1106 1159 1160
f 1105 1159 1106
f 1112 1165 1166
f 1104 1158 1105
f 1104 1157 1158
f 1103 1157 1104
f 1103 1156 1157
f 1102 1156 1103
f 1102 1155 1156
f 1101 1155 1102
f 1101 1154 1155
f 1100 1154 1101
f 1100 1153 1154
f 1099 1153 1100
f 1099 1152 1153
f 1118 1172 1119
f 917 918 867
f 968 918 917
f 968 969 918
f 1019 969 968
f 1019 1020 969
f 1070 1020 1019
f 1070 1071 1020
f 1121 1071 1070
f 1121 1122 1071
f 1120 1122 1121
f 1120 1173 1122
f 1119 1173 1120
f 1119 1172 1173
f 1098 1152 1099
f 1118 1171 1172
f 1117 1171 1118
f 1117 1170 1171
f 1116 1170 1117
f 1116 1169 1170
f 1115 1169 1116
f 1115 1168 1169
f 1114 1168 1115
f 1114 1167 1168
f 1113 1167 1114
f 1113 1166 1167
f 1112 1166 1113
f 1078 1131 1132
f 1084 1138 1085
f 1084 1137 1138
f 1083 1137 1084
f 1083 1136 1137
f 1082 1136 1083
f 1082 1135 1136
f 1081 1135 1082
f 1081 1134 1135
f 1080 1134 1081
f 1080 1133 1134
f 1079 1133 1080
f 1079 1132 1133
f 1078 1132 1079
f 1085 1138 1139
f 1077 1131 1078
f 1077 1130 1131
f 1076 1130 1077
f 1076 1129 1130
f 1075 1129 1076
f 1075 1128 1129
f 1074 1128 1075
f 1074 1127 1128
f 1073 1127 1074
f 1073 1126 1127
f 1072 1126 1073
f 1072 1125 1126
f 1091 1145 1092
f 1098 1151 1152
f 1097 1151 1098
f 1097 1150 1151
f 1096 1150 1097
f 1096 1149 1150
f 1095 1149 1096
f 1095 1148 1149
f 1094 1148 1095
f 1094 1147 1148
f 1093 1147 1094
f 1093 1146 1147
f 1092 1146 1093
f 1092 1145 1146
f 917 867 866
f 1091 1144 1145
f 1090 1144 1091
f 1090 1143 1144
f 1089 1143 1090
f 1089 1142 1143
f 1088 1142 1089
f 1088 1141 1142
f 1087 1141 1088
f 1087 1140 1141
f 1086 1140 1087
f 1086 1139 1140
f 1085 1139 1086
f 1189 1162 1161
f 1129 1184 1195
f 1128 1184 1129
f 1193 1124 1123
f 1193 1125 1124
f 1185 1125 1193
f 1185 1126 1125
f 1127 1126 1185
f 1183 1166 1165
f 1183 1167 1166
f 1190 1167 1183
f 1190 1168 1167
f 1169 1168 1190
f 1189 1161 1160
f 1129 1195 1130
f 1182 1162 1189
f 1182 1163 1162
f 1164 1163 1182
f 1188 1154 1194
f 1188 1155 1154
f 1156 1155 1188
f 1186 1144 1143
f 1186 1145 1144
f 1187 1145 1186
f 1187 1146 1145
f 1147 1146 1187
f 1122 1193 1123
f 1195 1131 1130
f 1177 1203 1176
f 1177 1202 1203
f 1179 1202 1177
f 1179 1201 1202
f 1196 1201 1179
f 1196 1200 1201
f 1195 1200 1196
f 1195 1199 1200
f 1184 1199 1195
f 1184 1198 1199
f 1185 1198 1184
f 1185 1197 1198
f 1193 1197 1185
f 1122 1192 1193
f 1195 1132 1131
f 1196 1132 1195
f 1196 1133 1132
f 1134 1133 1196
f 1174 1151 1150
f 1174 1152 1151
f 1194 1152 1174
f 1194 1153 1152
f 1154 1153 1194
f 1179 1134 1196
f 1179 1135 1134
f 1136 1135 1179
f 560 561 510
f 1140 1178 1141
f 1140 1176 1178
f 1139 1176 1140
f 1176 1138 1177
f 1139 1138 1176
f 1174 1149 1175
f 1150 1149 1174
f 356 458 457
f 358 458 356
f 358 459 458
f 509 459 358
f 509 510 459
f 560 510 509
f 1138 1137 1177
f 611 561 560
f 611 612 561
f 662 612 611
f 662 663 612
f 713 663 662
f 713 714 663
f 764 714 713
f 764 765 714
f 815 765 764
f 815 816 765
f 866 816 815
f 866 867 816
f 1175 1147 1187
f 1173 1192 1122
f 1191 1170 1169
f 1191 1171 1170
f 1192 1171 1191
f 1192 1172 1171
f 1173 1172 1192
f 1169 1190 1191
f 1181 1159 1158
f 1181 1160 1159
f 1189 1160 1181
f 1180 1156 1188
f 1180 1157 1156
f 1158 1157 1180
f 963 1015 964
f 1175 1148 1147
f 1149 1148 1175
f 1142 1186 1143
f 1142 1178 1186
f 1141 1178 1142
f 1184 1127 1185
f 1128 1127 1184
f 1165 1182 1183
f 1164 1182 1165
f 1158 1180 1181
f 1177 1136 1179
f 1177 1137 1136
f 555 606 607
f 562 614 563
f 562 613 614
f 561 613 562
f 561 612 613
f 559 611 560
f 559 610 611
f 558 610 559
f 558 609 610
f 557 609 558
f 557 608 609
f 556 608 557
f 556 607 608
f 555 607 556
f 563 614 615
f 554 606 555
f 554 605 606
f 553 605 554
f 553 604 605
f 552 604 553
f 552 603 604
f 551 603 552
f 551 602 603
f 550 602 551
f 550 601 602
f 549 601 550
f 549 600 601
f 569 621 570
f 576 627 628
f 575 627 576
f 575 626 627
f 574 626 575
f 574 625 626
f 573 625 574
f 573 624 625
f 572 624 573
f 572 623 624
f 571 623 572
f 571 622 623
f 570 622 571
f 570 621 622
f 548 600 549
f 569 620 621
f 568 620 569
f 568 619 620
f 567 619 568
f 567 618 619
f 566 618 567
f 566 617 618
f 565 617 566
f 565 616 617
f 564 616 565
f 564 615 616
f 563 615 564
f 528 579 580
f 534 586 535
f 534 585 586
f 533 585 534
f 533 584 585
f 532 584 533
f 532 583 584
f 531 583 532
f 531 582 583
f 530 582 531
f 530 581 582
f 529 581 530
f 529 580 581
f 528 580 529
f 535 586 587
f 527 579 528
f 527 578 579
f 526 578 527
f 526 577 578
f 525 577 526
f 525 576 577
f 524 576 525
f 524 575 576
f 523 575 524
f 523 574 575
f 522 574 523
f 522 573 574
f 541 593 542
f 548 599 600
f 547 599 548
f 547 598 599
f 546 598 547
f 546 597 598
f 545 597 546
f 545 596 597
f 544 596 545
f 544 595 596
f 543 595 544
f 543 594 595
f 542 594 543
f 542 593 594
f 576 628 577
f 541 592 593
f 540 592 541
f 540 591 592
f 539 591 540
f 539 590 591
f 538 590 539
f 538 589 590
f 537 589 538
f 537 588 589
f 536 588 537
f 536 587 588
f 535 587 536
f 610 661 662
f 617 669 618
f 617 668 669
f 616 668 617
f 616 667 668
f 615 667 616
f 615 666 667
f 614 666 615
f 614 665 666
f 613 665 614
f 613 664 665
f 612 664 613
f 612 663 664
f 610 662 611
f 618 669 670
f 609 661 610
f 609 660 661
f 608 660 609
f 608 659 660
f 607 659 608
f 607 658 659
f 606 658 607
f 606 657 658
f 605 657 606
f 605 656 657
f 604 656 605
f 604 655 656
f 624 676 625
f 631 682 683
f 630 682 631
f 630 681 682
f 629 681 630
f 629 680 681
f 628 680 629
f 628 679 680
f 627 679 628
f 627 678 679
f 626 678 627
f 626 677 678
f 625 677 626
f 625 676 677
f 603 655 604
f 624 675 676
f 623 675 624
f 623 674 675
f 622 674 623
f 622 673 674
f 621 673 622
f 621 672 673
f 620 672 621
f 620 671 672
f 619 671 620
f 619 670 671
f 618 670 619
f 583 634 635
f 589 641 590
f 589 640 641
f 588 640 589
f 588 639 640
f 587 639 588
f 587 638 639
f 586 638 587
f 586 637 638
f 585 637 586
f 585 636 637
f 584 636 585
f 584 635 636
f 583 635 584
f 590 641 642
f 582 634 583
f 582 633 634
f 581 633 582
f 581 632 633
f 580 632 581
f 580 631 632
f 579 631 580
f 579 630 631
f 578 630 579
f 578 629 630
f 577 629 578
f 577 628 629
f 596 648 597
f 603 654 655
f 602 654 603
f 602 653 654
f 601 653 602
f 601 652 653
f 600 652 601
f 600 651 652
f 599 651 600
f 599 650 651
f 598 650 599
f 598 649 650
f 597 649 598
f 597 648 649
f 521 573 522
f 596 647 648
f 595 647 596
f 595 646 647
f 594 646 595
f 594 645 646
f 593 645 594
f 593 644 645
f 592 644 593
f 592 643 644
f 591 643 592
f 591 642 643
f 590 642 591
f 384 496 497
f 372 503 370
f 372 502 503
f 374 502 372
f 374 501 502
f 376 501 374
f 376 500 501
f 378 500 376
f 378 499 500
f 380 499 378
f 380 498 499
f 382 498 380
f 382 497 498
f 384 497 382
f 370 503 504
f 386 496 384
f 386 495 496
f 388 495 386
f 388 387 389
f 386 387 388
f 386 385 387
f 384 385 386
f 384 383 385
f 382 383 384
f 382 381 383
f 380 381 382
f 440 468 469
f 459 511 460
f 466 517 518
f 465 517 466
f 465 516 517
f 464 516 465
f 464 515 516
f 463 515 464
f 463 514 515
f 462 514 463
f 462 513 514
f 461 513 462
f 461 512 513
f 460 512 461
f 460 511 512
f 442 468 440
f 459 510 511
f 360 509 358
f 360 508 509
f 362 508 360
f 362 507 508
f 364 507 362
f 364 506 507
f 366 506 364
f 366 505 506
f 368 505 366
f 368 504 505
f 370 504 368
f 406 485 486
f 394 492 392
f 394 491 492
f 368 367 369
f 396 490 491
f 398 490 396
f 398 489 490
f 400 489 398
f 400 488 489
f 402 488 400
f 402 487 488
f 404 487 402
f 404 486 487
f 406 486 404
f 392 492 493
f 408 485 406
f 408 484 485
f 410 484 408
f 410 483 484
f 412 483 410
f 412 482 483
f 414 482 412
f 414 481 482
f 416 481 414
f 416 480 481
f 418 480 416
f 418 479 480
f 456 461 454
f 442 467 468
f 444 467 442
f 444 466 467
f 446 466 444
f 446 465 466
f 448 465 446
f 448 464 465
f 450 464 448
f 450 463 464
f 452 463 450
f 452 462 463
f 454 462 452
f 454 461 462
f 466 518 467
f 456 460 461
f 458 460 456
f 458 459 460
f 456 457 458
f 456 455 457
f 454 455 456
f 454 453 455
f 366 367 368
f 388 494 495
f 390 494 388
f 390 493 494
f 392 493 390
f 500 551 552
f 506 558 507
f 506 557 558
f 505 557 506
f 505 556 557
f 504 556 505
f 504 555 556
f 503 555 504
f 503 554 555
f 502 554 503
f 502 553 554
f 501 553 502
f 501 552 553
f 500 552 501
f 507 558 559
f 499 551 500
f 499 550 551
f 498 550 499
f 498 549 550
f 497 549 498
f 497 548 549
f 496 548 497
f 496 547 548
f 495 547 496
f 495 546 547
f 494 546 495
f 494 545 546
f 514 566 515
f 521 572 573
f 520 572 521
f 520 571 572
f 851 903 852
f 519 570 571
f 518 570 519
f 518 569 570
f 517 569 518
f 517 568 569
f 516 568 517
f 516 567 568
f 515 567 516
f 515 566 567
f 493 545 494
f 514 565 566
f 513 565 514
f 513 564 565
f 512 564 513
f 512 563 564
f 511 563 512
f 511 562 563
f 510 562 511
f 510 561 562
f 508 560 509
f 508 559 560
f 507 559 508
f 473 524 525
f 479 531 480
f 479 530 531
f 478 530 479
f 478 529 530
f 477 529 478
f 477 528 529
f 476 528 477
f 476 527 528
f 475 527 476
f 475 526 527
f 474 526 475
f 474 525 526
f 473 525 474
f 480 531 532
f 472 524 473
f 472 523 524
f 471 523 472
f 471 522 523
f 470 522 471
f 470 521 522
f 469 521 470
f 469 520 521
f 468 520 469
f 468 519 520
f 467 519 468
f 467 518 519
f 486 538 487
f 493 544 545
f 492 544 493
f 492 543 544
f 491 543 492
f 491 542 543
f 490 542 491
f 490 541 542
f 489 541 490
f 489 540 541
f 488 540 489
f 488 539 540
f 487 539 488
f 487 538 539
f 519 571 520
f 486 537 538
f 485 537 486
f 485 536 537
f 484 536 485
f 484 535 536
f 483 535 484
f 483 534 535
f 482 534 483
f 482 533 534
f 481 533 482
f 481 532 533
f 480 532 481
f 776 827 828
f 782 834 783
f 782 833 834
f 781 833 782
f 781 832 833
f 780 832 781
f 780 831 832
f 779 831 780
f 779 830 831
f 778 830 779
f 778 829 830
f 777 829 778
f 777 828 829
f 776 828 777
f 783 834 835
f 775 827 776
f 775 826 827
f 774 826 775
f 774 825 826
f 773 825 774
f 773 824 825
f 772 824 773
f 772 823 824
f 771 823 772
f 771 822 823
f 770 822 771
f 770 821 822
f 789 841 790
f 796 847 848
f 795 847 796
f 795 846 847
f 794 846 795
f 794 845 846
f 793 845 794
f 793 844 845
f 792 844 793
f 792 843 844
f 791 843 792
f 791 842 843
f 790 842 791
f 790 841 842
f 769 821 770
f 789 840 841
f 788 840 789
f 788 839 840
f 787 839 788
f 787 838 839
f 786 838 787
f 786 837 838
f 785 837 786
f 785 836 837
f 784 836 785
f 784 835 836
f 783 835 784
f 748 799 800
f 754 806 755
f 754 805 806
f 753 805 754
f 753 804 805
f 752 804 753
f 752 803 804
f 751 803 752
f 751 802 803
f 750 802 751
f 750 801 802
f 749 801 750
f 749 800 801
f 748 800 749
f 755 806 807
f 747 799 748
f 747 798 799
f 746 798 747
f 746 797 798
f 745 797 746
f 745 796 797
f 744 796 745
f 744 795 796
f 743 795 744
f 743 794 795
f 742 794 743
f 742 793 794
f 761 813 762
f 769 820 821
f 768 820 769
f 768 819 820
f 767 819 768
f 767 818 819
f 766 818 767
f 766 817 818
f 765 817 766
f 765 816 817
f 763 815 764
f 763 814 815
f 762 814 763
f 762 813 814
f 796 848 797
f 761 812 813
f 760 812 761
f 760 811 812
f 759 811 760
f 759 810 811
f 758 810 759
f 758 809 810
f 757 809 758
f 757 808 809
f 756 808 757
f 756 807 808
f 755 807 756
f 831 882 883
f 837 889 838
f 837 888 889
f 836 888 837
f 836 887 888
f 835 887 836
f 835 886 887
f 834 886 835
f 834 885 886
f 833 885 834
f 833 884 885
f 832 884 833
f 832 883 884
f 831 883 832
f 838 889 890
f 830 882 831
f 830 881 882
f 829 881 830
f 829 880 881
f 828 880 829
f 828 879 880
f 827 879 828
f 827 878 879
f 826 878 827
f 826 877 878
f 825 877 826
f 825 876 877
f 844 896 845
f 851 902 903
f 850 902 851
f 850 901 902
f 849 901 850
f 849 900 901
f 848 900 849
f 848 899 900
f 847 899 848
f 847 898 899
f 846 898 847
f 846 897 898
f 845 897 846
f 845 896 897
f 824 876 825
f 844 895 896
f 843 895 844
f 843 894 895
f 842 894 843
f 842 893 894
f 841 893 842
f 841 892 893
f 840 892 841
f 840 891 892
f 839 891 840
f 839 890 891
f 838 890 839
f 803 854 855
f 809 861 810
f 809 860 861
f 808 860 809
f 808 859 860
f 807 859 808
f 807 858 859
f 806 858 807
f 806 857 858
f 805 857 806
f 805 856 857
f 804 856 805
f 804 855 856
f 803 855 804
f 810 861 862
f 802 854 803
f 802 853 854
f 801 853 802
f 801 852 853
f 800 852 801
f 800 851 852
f 799 851 800
f 799 850 851
f 798 850 799
f 798 849 850
f 797 849 798
f 797 848 849
f 817 869 818
f 824 875 876
f 823 875 824
f 823 874 875
f 822 874 823
f 822 873 874
f 821 873 822
f 821 872 873
f 820 872 821
f 820 871 872
f 819 871 820
f 819 870 871
f 818 870 819
f 818 869 870
f 632 683 684
f 817 868 869
f 816 868 817
f 816 867 868
f 814 866 815
f 814 865 866
f 813 865 814
f 813 864 865
f 812 864 813
f 812 863 864
f 811 863 812
f 811 862 863
f 810 862 811
f 666 718 667
f 673 724 725
f 672 724 673
f 672 723 724
f 671 723 672
f 671 722 723
f 670 722 671
f 670 721 722
f 669 721 670
f 669 720 721
f 668 720 669
f 668 719 720
f 667 719 668
f 667 718 719
f 673 725 674
f 666 717 718
f 665 717 666
f 665 716 717
f 664 716 665
f 664 715 716
f 663 715 664
f 663 714 715
f 661 713 662
f 661 712 713
f 660 712 661
f 660 711 712
f 659 711 660
f 659 710 711
f 680 731 732
f 686 738 687
f 686 737 738
f 685 737 686
f 685 736 737
f 684 736 685
f 684 735 736
f 683 735 684
f 683 734 735
f 682 734 683
f 682 733 734
f 681 733 682
f 681 732 733
f 680 732 681
f 658 710 659
f 679 731 680
f 679 730 731
f 678 730 679
f 678 729 730
f 677 729 678
f 677 728 729
f 676 728 677
f 676 727 728
f 675 727 676
f 675 726 727
f 674 726 675
f 674 725 726
f 638 689 690
f 644 696 645
f 644 695 696
f 643 695 644
f 643 694 695
f 642 694 643
f 642 693 694
f 641 693 642
f 641 692 693
f 640 692 641
f 640 691 692
f 639 691 640
f 639 690 691
f 638 690 639
f 645 696 697
f 637 689 638
f 637 688 689
f 636 688 637
f 636 687 688
f 635 687 636
f 635 686 687
f 634 686 635
f 634 685 686
f 633 685 634
f 633 684 685
f 632 684 633
f 631 683 632
f 651 703 652
f 658 709 710
f 657 709 658
f 657 708 709
f 656 708 657
f 656 707 708
f 655 707 656
f 655 706 707
f 654 706 655
f 654 705 706
f 653 705 654
f 653 704 705
f 652 704 653
f 652 703 704
f 741 792 793
f 651 702 703
f 650 702 651
f 650 701 702
f 649 701 650
f 649 700 701
f 648 700 649
f 648 699 700
f 647 699 648
f 647 698 699
f 646 698 647
f 646 697 698
f 645 697 646
f 707 758 759
f 700 752 701
f 701 752 753
f 701 753 702
f 702 753 754
f 702 754 703
f 703 754 755
f 703 755 704
f 704 755 756
f 704 756 705
f 705 756 757
f 705 757 706
f 706 757 758
f 706 758 707
f 700 751 752
f 707 759 708
f 708 759 760
f 708 760 709
f 709 760 761
f 709 761 710
f 710 761 762
f 710 762 711
f 711 762 763
f 711 763 712
f 712 763 764
f 712 764 713
f 714 765 766
f 693 745 694
f 687 738 739
f 687 739 688
f 688 739 740
f 688 740 689
f 689 740 741
f 689 741 690
f 690 741 742
f 690 742 691
f 691 742 743
f 691 743 692
f 692 743 744
f 692 744 693
f 693 744 745
f 741 793 742
f 694 745 746
f 694 746 695
f 695 746 747
f 695 747 696
f 696 747 748
f 696 748 697
f 697 748 749
f 697 749 698
f 698 749 750
f 698 750 699
f 699 750 751
f 699 751 700
f 734 786 735
f 728 779 780
f 728 780 729
f 729 780 781
f 729 781 730
f 730 781 782
f 730 782 731
f 731 782 783
f 731 783 732
f 732 783 784
f 732 784 733
f 733 784 785
f 733 785 734
f 734 785 786
f 715 766 767
f 735 786 787
f 735 787 736
f 736 787 788
f 736 788 737
f 737 788 789
f 737 789 738
f 738 789 790
f 738 790 739
f 739 790 791
f 739 791 740
f 740 791 792
f 740 792 741
f 727 778 779
f 714 766 715
f 715 767 716
f 716 767 768
f 716 768 717
f 717 768 769
f 717 769 718
f 718 769 770
f 718 770 719
f 719 770 771
f 719 771 720
f 720 771 772
f 720 772 721
f 721 772 773
f 721 773 722
f 722 773 774
f 722 774 723
f 723 774 775
f 723 775 724
f 724 775 776
f 724 776 725
f 725 776 777
f 725 777 726
f 726 777 778
f 726 778 727
f 727 779 728
f 1221 1224 1223
f 1220 1221 1222
f 1222 1223 1249
f 1221 1248 1224
f 1229 1227 1248
f 1248 1227 1225
f 1248 1225 1224
f 1235 1233 1248
f 1248 1233 1231
f 1248 1231 1229
f 1241 1239 1248
f 1248 1239 1237
f 1248 1237 1235
f 1220 1245 1248
f 1248 1245 1243
f 1248 1243 1241
f 1222 1221 1223
f 1222 1249 1247
f 1242 1244 1249
f 1249 1244 1246
f 1249 1246 1247
f 1236 1238 1249
f 1249 1238 1240
f 1249 1240 1242
f 1230 1232 1249
f 1249 1232 1234
f 1249 1234 1236
f 1223 1226 1249
f 1249 1226 1228
f 1249 1228 1230
f 1247 1220 1222
f 1221 1220 1248
f 1223 1224 1225
f 1223 1225 1226
f 1226 1225 1227
f 1226 1227 1228
f 1228 1227 1229
f 1228 1229 1230
f 1230 1229 1231
f 1230 1231 1232
f 1232 1231 1233
f 1232 1233 1234
f 1234 1233 1235
f 1234 1235 1236
f 1236 1237 1238
f 1236 1235 1237
f 1246 1220 1247
f 1246 1245 1220
f 1244 1245 1246
f 1244 1243 1245
f 1242 1243 1244
f 1242 1241 1243
f 1240 1241 1242
f 1240 1239 1241
f 1238 1239 1240
f 1238 1237 1239

