# https://github.com/mikedh/trimesh
v -0.03045347 0.02803341 0.00990000
v -0.03045347 0.02803341 0.01310000
v -0.02443131 0.02258801 0.00990000
v -0.02443131 0.02258801 0.01310000
v -0.02711409 0.01962107 0.00990000
v -0.02711409 0.01962107 0.01310000
v -0.03313625 0.02506647 0.00990000
v -0.03313625 0.02506647 0.01310000
v -0.02435300 0.01813659 0.00950000
v -0.02376715 0.01786191 0.00950000
v -0.02398955 0.01653031 0.00950000
v -0.02295033 0.01656196 0.00950000
v -0.02312245 0.01791694 0.00950000
v -0.02200660 0.01699827 0.00950000
v -0.02259164 0.01828695 0.00950000
v -0.02130927 0.01776945 0.00950000
v -0.02495808 0.01690836 0.00950000
v -0.02570105 0.01763567 0.00950000
v -0.02472301 0.01866741 0.00950000
v -0.02609965 0.01859594 0.00950000
v -0.02477805 0.01931211 0.00950000
v -0.06689142 0.02619450 0.00950000
v -0.06633075 0.02488810 0.00950000
v -0.06742223 0.02582449 0.00950000
v -0.06727947 0.02446276 0.00950000
v -0.06806694 0.02576945 0.00950000
v -0.06831898 0.02444315 0.00950000
v -0.06865279 0.02604414 0.00950000
v -0.06661674 0.02678035 0.00950000
v -0.06512551 0.02623609 0.00950000
v -0.06562453 0.02565116 0.00950000
v -0.02096986 0.01875219 0.00950000
v -0.02231695 0.01887280 0.00950000
v -0.02104264 0.01978935 0.00950000
v -0.02237199 0.01951750 0.00950000
v -0.02151596 0.02071506 0.00950000
v -0.02274200 0.02004831 0.00950000
v -0.02231415 0.02138131 0.00950000
v -0.02332785 0.02032300 0.00950000
v -0.02330956 0.02168155 0.00950000
v -0.02405405 0.02187364 0.00950000
v -0.02397255 0.02026797 0.00950000
v -0.02469959 0.02229131 0.00950000
v -0.06704178 0.02795586 0.00950000
v -0.06565961 0.02960271 0.00950000
v -0.06667177 0.02742505 0.00950000
v -0.05812538 0.03262828 0.00950000
v -0.05661215 0.03300219 0.00950000
v -0.06928307 0.02483239 0.00950000
v -0.07001757 0.02556826 0.00950000
v -0.06902280 0.02657495 0.00950000
v -0.07040501 0.02653308 0.00950000
v -0.06907783 0.02721965 0.00950000
v -0.07038346 0.02757256 0.00950000
v -0.06880314 0.02780550 0.00950000
v -0.06995634 0.02852048 0.00950000
v -0.06827233 0.02817551 0.00950000
v -0.03072175 0.02773671 0.00950000
v -0.02450336 0.01989796 0.00950000
v -0.03201216 0.02861107 0.00950000
v -0.05505448 0.03294451 0.00950000
v -0.05628437 0.02981902 0.00950000
v -0.05693289 0.02965878 0.00950000
v -0.06919198 0.02922527 0.00950000
v -0.06821258 0.02957421 0.00950000
v -0.06762763 0.02823055 0.00950000
v -0.06717476 0.02951152 0.00950000
v -0.06640979 0.02943418 0.00950000
v -0.02684581 0.01991777 0.00950000
v -0.03286797 0.02536317 0.00950000
v -0.03349359 0.02909587 0.00950000
v -0.06446712 0.02663320 0.00950000
v -0.02636548 0.01931739 0.00950000
v -0.03342101 0.02573789 0.00950000
v -0.03405590 0.02594566 0.00950000
v -0.05561680 0.02979430 0.00950000
v -0.02274200 0.02004831 0.01350000
v -0.02231415 0.02138131 0.01350000
v -0.02332785 0.02032300 0.01350000
v -0.02330956 0.02168155 0.01350000
v -0.02397255 0.02026797 0.01350000
v -0.02312245 0.01791694 0.01350000
v -0.02200660 0.01699827 0.01350000
v -0.02259164 0.01828695 0.01350000
v -0.02130927 0.01776945 0.01350000
v -0.02231695 0.01887280 0.01350000
v -0.02096986 0.01875219 0.01350000
v -0.02237199 0.01951750 0.01350000
v -0.02104264 0.01978935 0.01350000
v -0.02151596 0.02071506 0.01350000
v -0.02472301 0.01866741 0.01350000
v -0.02570105 0.01763567 0.01350000
v -0.02435300 0.01813659 0.01350000
v -0.02495808 0.01690836 0.01350000
v -0.02376715 0.01786191 0.01350000
v -0.02398955 0.01653031 0.01350000
v -0.02295033 0.01656196 0.01350000
v -0.02477805 0.01931211 0.01350000
v -0.02636548 0.01931739 0.01350000
v -0.02609965 0.01859594 0.01350000
v -0.06762763 0.02823055 0.01350000
v -0.06704178 0.02795586 0.01350000
v -0.06640979 0.02943418 0.01350000
v -0.06717476 0.02951152 0.01350000
v -0.06821258 0.02957421 0.01350000
v -0.06827233 0.02817551 0.01350000
v -0.06919198 0.02922527 0.01350000
v -0.06880314 0.02780550 0.01350000
v -0.06995634 0.02852048 0.01350000
v -0.06907783 0.02721965 0.01350000
v -0.07038346 0.02757256 0.01350000
v -0.06902280 0.02657495 0.01350000
v -0.06667177 0.02742505 0.01350000
v -0.05812538 0.03262828 0.01350000
v -0.06565961 0.02960271 0.01350000
v -0.06742223 0.02582449 0.01350000
v -0.06633075 0.02488810 0.01350000
v -0.06689142 0.02619450 0.01350000
v -0.06562453 0.02565116 0.01350000
v -0.06661674 0.02678035 0.01350000
v -0.06512551 0.02623609 0.01350000
v -0.06446712 0.02663320 0.01350000
v -0.02405405 0.02187364 0.01350000
v -0.02469959 0.02229131 0.01350000
v -0.02450336 0.01989796 0.01350000
v -0.03072175 0.02773671 0.01350000
v -0.03201216 0.02861107 0.01350000
v -0.07040501 0.02653308 0.01350000
v -0.07001757 0.02556826 0.01350000
v -0.06865279 0.02604414 0.01350000
v -0.06928307 0.02483239 0.01350000
v -0.06806694 0.02576945 0.01350000
v -0.06831898 0.02444315 0.01350000
v -0.06727947 0.02446276 0.01350000
v -0.05693289 0.02965878 0.01350000
v -0.05505448 0.03294451 0.01350000
v -0.05661215 0.03300219 0.01350000
v -0.03349359 0.02909587 0.01350000
v -0.03342101 0.02573789 0.01350000
v -0.03286797 0.02536317 0.01350000
v -0.02684581 0.01991777 0.01350000
v -0.05628437 0.02981902 0.01350000
v -0.05561680 0.02979430 0.01350000
v -0.03405590 0.02594566 0.01350000
v -0.06528258 0.02544364 0.00990000
v -0.06528258 0.02544364 0.01310000
v -0.06609743 0.02456320 0.01310000
v -0.06609743 0.02456320 0.00990000
v -0.06719211 0.02407242 0.01310000
v -0.06719211 0.02407242 0.00990000
v -0.06839155 0.02404978 0.01310000
v -0.06839155 0.02404978 0.00990000
v -0.06950396 0.02449892 0.01310000
v -0.06950396 0.02449892 0.00990000
v -0.07035146 0.02534799 0.01310000
v -0.07035146 0.02534799 0.00990000
v -0.07079851 0.02646124 0.01310000
v -0.07079851 0.02646124 0.00990000
v -0.07077364 0.02766064 0.01310000
v -0.07077364 0.02766064 0.00990000
v -0.07028081 0.02875440 0.01310000
v -0.07028081 0.02875440 0.00990000
v -0.06939885 0.02956761 0.01310000
v -0.06939885 0.02956761 0.00990000
v -0.06826878 0.02997024 0.01310000
v -0.06826878 0.02997024 0.00990000
v -0.06707130 0.02989790 0.01310000
v -0.06707130 0.02989790 0.00990000
v -0.05678383 0.02928759 0.00990000
v -0.05678383 0.02928759 0.01310000
v -0.06431807 0.02626201 0.00990000
v -0.06431807 0.02626201 0.01310000
v -0.06580867 0.02997390 0.00990000
v -0.06580867 0.02997390 0.01310000
v -0.05827444 0.03299947 0.00990000
v -0.05827444 0.03299947 0.01310000
v -0.03412619 0.02555189 0.00990000
v -0.03412619 0.02555189 0.01310000
v -0.05568708 0.02940052 0.00990000
v -0.05568708 0.02940052 0.01310000
v -0.05498419 0.03333828 0.00990000
v -0.05498419 0.03333828 0.01310000
v -0.03342330 0.02948965 0.00990000
v -0.03342330 0.02948965 0.01310000
v -0.02327295 0.02207987 0.00990000
v -0.02327295 0.02207987 0.01310000
v -0.02212440 0.02173344 0.01310000
v -0.02212440 0.02173344 0.00990000
v -0.02120342 0.02096469 0.01310000
v -0.02120342 0.02096469 0.00990000
v -0.02065727 0.01989656 0.01310000
v -0.02065727 0.01989656 0.00990000
v -0.02057330 0.01869985 0.01310000
v -0.02057330 0.01869985 0.00990000
v -0.02096493 0.01756591 0.01310000
v -0.02096493 0.01756591 0.00990000
v -0.02176954 0.01667609 0.01310000
v -0.02176954 0.01667609 0.00990000
v -0.02285845 0.01617266 0.01310000
v -0.02285845 0.01617266 0.00990000
v -0.02405756 0.01613613 0.01310000
v -0.02405756 0.01613613 0.00990000
v -0.02517509 0.01657235 0.01310000
v -0.02517509 0.01657235 0.00990000
v -0.02603237 0.01741155 0.01310000
v -0.02603237 0.01741155 0.00990000
v -0.02649229 0.01851955 0.01310000
v -0.02649229 0.01851955 0.00990000
v -0.05665312 0.03340008 0.01310000
v -0.05665312 0.03340008 0.00990000
v -0.03183606 0.02897022 0.01310000
v -0.03183606 0.02897022 0.00990000
v -0.06643382 0.02983345 0.00990000
v -0.06643382 0.02983345 0.01310000
v -0.06486672 0.02593109 0.00990000
v -0.06486672 0.02593109 0.01310000
v -0.05624339 0.02942112 0.01310000
v -0.05624339 0.02942112 0.00990000
v -0.02671381 0.01912076 0.00990000
v -0.02671381 0.01912076 0.01310000
v -0.02389336 0.02223995 0.00990000
v -0.02389336 0.02223995 0.01310000
v -0.03359711 0.02537875 0.01310000
v -0.03359711 0.02537875 0.00990000
v -0.06804112 0.02576512 0.02130000
v -0.06836709 0.02586321 0.02130000
v -0.06896750 0.02363138 0.02130000
v -0.06906606 0.02727765 0.02130000
v -0.07138782 0.02725899 0.02130000
v -0.06909577 0.02693853 0.02130000
v -0.07138216 0.02667270 0.02130000
v -0.06903289 0.02660397 0.02130000
v -0.06888208 0.02629879 0.02130000
v -0.07043577 0.02457055 0.02130000
v -0.06865452 0.02604561 0.02130000
v -0.07000059 0.02417763 0.02130000
v -0.06950668 0.02386170 0.02130000
v -0.07128008 0.02609534 0.02130000
v -0.07108436 0.02554266 0.02130000
v -0.07080034 0.02502973 0.02130000
v -0.06839776 0.02349294 0.02130000
v -0.06781301 0.02345017 0.02130000
v -0.06770076 0.02575862 0.02130000
v -0.06722920 0.02350422 0.02130000
v -0.06737127 0.02584418 0.02130000
v -0.06894595 0.02759618 0.02130000
v -0.07111190 0.02839457 0.02130000
v -0.07129691 0.02783821 0.02130000
v -0.06847624 0.02808023 0.02130000
v -0.07005468 0.02978027 0.02130000
v -0.06874436 0.02787049 0.02130000
v -0.07048219 0.02937902 0.02130000
v -0.07083783 0.02891288 0.02130000
v -0.06660205 0.02689089 0.02130000
v -0.06431241 0.02732730 0.02130000
v -0.06661879 0.02723090 0.02130000
v -0.06441449 0.02790466 0.02130000
v -0.06672665 0.02755378 0.02130000
v -0.06816148 0.02820987 0.02130000
v -0.06903233 0.03034637 0.02130000
v -0.06956696 0.03010567 0.02130000
v -0.06748711 0.02819698 0.02130000
v -0.06729680 0.03050706 0.02130000
v -0.06782341 0.02824977 0.02130000
v -0.06788155 0.03054984 0.02130000
v -0.06846537 0.03049578 0.02130000
v -0.06667767 0.02655898 0.02130000
v -0.06439766 0.02616179 0.02130000
v -0.06430674 0.02674101 0.02130000
v -0.06707709 0.02601547 0.02130000
v -0.06521237 0.02462098 0.02130000
v -0.06684002 0.02625978 0.02130000
v -0.06485674 0.02508712 0.02130000
v -0.06458267 0.02560543 0.02130000
v -0.06666224 0.02365363 0.02130000
v -0.06612761 0.02389432 0.02130000
v -0.06563988 0.02421973 0.02130000
v -0.06691761 0.02783559 0.02130000
v -0.06569397 0.02982237 0.02130000
v -0.06717752 0.02805542 0.02130000
v -0.06618789 0.03013830 0.02130000
v -0.06672707 0.03036862 0.02130000
v -0.06461021 0.02845734 0.02130000
v -0.06489423 0.02897027 0.02130000
v -0.06525880 0.02942945 0.02130000
v -0.06781301 0.02345017 0.02050000
v -0.06722920 0.02350422 0.02050000
v -0.06666224 0.02365363 0.02050000
v -0.06612761 0.02389432 0.02050000
v -0.06563988 0.02421973 0.02050000
v -0.06521237 0.02462098 0.02050000
v -0.06485674 0.02508712 0.02050000
v -0.06458267 0.02560543 0.02050000
v -0.06439766 0.02616179 0.02050000
v -0.06430674 0.02674101 0.02050000
v -0.06431241 0.02732730 0.02050000
v -0.06441449 0.02790466 0.02050000
v -0.06461021 0.02845734 0.02050000
v -0.06489423 0.02897027 0.02050000
v -0.06525880 0.02942945 0.02050000
v -0.06569397 0.02982237 0.02050000
v -0.06618789 0.03013830 0.02050000
v -0.06672707 0.03036862 0.02050000
v -0.06729680 0.03050706 0.02050000
v -0.06788155 0.03054984 0.02050000
v -0.06846537 0.03049578 0.02050000
v -0.06903233 0.03034637 0.02050000
v -0.06956696 0.03010567 0.02050000
v -0.07005468 0.02978027 0.02050000
v -0.07048219 0.02937902 0.02050000
v -0.07083783 0.02891288 0.02050000
v -0.07111190 0.02839457 0.02050000
v -0.07129691 0.02783821 0.02050000
v -0.07138782 0.02725899 0.02050000
v -0.07138216 0.02667270 0.02050000
v -0.07128008 0.02609534 0.02050000
v -0.07108436 0.02554266 0.02050000
v -0.07080034 0.02502973 0.02050000
v -0.07043577 0.02457055 0.02050000
v -0.07000059 0.02417763 0.02050000
v -0.06950668 0.02386170 0.02050000
v -0.06896750 0.02363138 0.02050000
v -0.06839776 0.02349294 0.02050000
v -0.06711829 0.02991008 0.02050000
v -0.06661040 0.02973315 0.02050000
v -0.06614225 0.02946837 0.02050000
v -0.06572891 0.02912426 0.02050000
v -0.06538365 0.02871187 0.02050000
v -0.06511758 0.02824446 0.02050000
v -0.06493923 0.02773705 0.02050000
v -0.06485436 0.02720596 0.02050000
v -0.06486569 0.02666824 0.02050000
v -0.06497284 0.02614119 0.02050000
v -0.06517237 0.02564174 0.02050000
v -0.06545789 0.02518594 0.02050000
v -0.07067756 0.02600524 0.02050000
v -0.07080969 0.02652659 0.02050000
v -0.07084662 0.02706315 0.02050000
v -0.07078714 0.02759769 0.02050000
v -0.07063317 0.02811302 0.02050000
v -0.07038967 0.02859257 0.02050000
v -0.07006445 0.02902094 0.02050000
v -0.06966797 0.02938435 0.02050000
v -0.06921296 0.02967113 0.02050000
v -0.06871407 0.02987205 0.02050000
v -0.06818731 0.02998067 0.02050000
v -0.06764963 0.02999348 0.02050000
v -0.06582020 0.02478845 0.02050000
v -0.06624766 0.02446204 0.02050000
v -0.06672654 0.02421721 0.02050000
v -0.06724144 0.02406181 0.02050000
v -0.06777581 0.02400085 0.02050000
v -0.06831247 0.02403629 0.02050000
v -0.06883419 0.02416698 0.02050000
v -0.06932419 0.02438872 0.02050000
v -0.06976672 0.02469440 0.02050000
v -0.07014755 0.02507418 0.02050000
v -0.07045445 0.02551586 0.02050000
v -0.06777581 0.02400085 0.01870000
v -0.06724144 0.02406181 0.01870000
v -0.06672654 0.02421721 0.01870000
v -0.06624766 0.02446204 0.01870000
v -0.06582020 0.02478845 0.01870000
v -0.06545789 0.02518594 0.01870000
v -0.06517237 0.02564174 0.01870000
v -0.06497284 0.02614119 0.01870000
v -0.06486569 0.02666824 0.01870000
v -0.06485436 0.02720596 0.01870000
v -0.06493923 0.02773705 0.01870000
v -0.06511758 0.02824446 0.01870000
v -0.06538365 0.02871187 0.01870000
v -0.06572891 0.02912426 0.01870000
v -0.06614225 0.02946837 0.01870000
v -0.06661040 0.02973315 0.01870000
v -0.06711829 0.02991008 0.01870000
v -0.06764963 0.02999348 0.01870000
v -0.06818731 0.02998067 0.01870000
v -0.06871407 0.02987205 0.01870000
v -0.06921296 0.02967113 0.01870000
v -0.06966797 0.02938435 0.01870000
v -0.07006445 0.02902094 0.01870000
v -0.07038967 0.02859257 0.01870000
v -0.07063317 0.02811302 0.01870000
v -0.07078714 0.02759769 0.01870000
v -0.07084662 0.02706315 0.01870000
v -0.07080969 0.02652659 0.01870000
v -0.07067756 0.02600524 0.01870000
v -0.07045445 0.02551586 0.01870000
v -0.07014755 0.02507418 0.01870000
v -0.06976672 0.02469440 0.01870000
v -0.06932419 0.02438872 0.01870000
v -0.06883419 0.02416698 0.01870000
v -0.06831247 0.02403629 0.01870000
v -0.06804112 0.02576512 0.01870000
v -0.06836709 0.02586321 0.01870000
v -0.06865452 0.02604561 0.01870000
v -0.06816148 0.02820987 0.01870000
v -0.06782341 0.02824977 0.01870000
v -0.06748711 0.02819698 0.01870000
v -0.06770076 0.02575862 0.01870000
v -0.06903289 0.02660397 0.01870000
v -0.06909577 0.02693853 0.01870000
v -0.06906606 0.02727765 0.01870000
v -0.06707709 0.02601547 0.01870000
v -0.06737127 0.02584418 0.01870000
v -0.06874436 0.02787049 0.01870000
v -0.06847624 0.02808023 0.01870000
v -0.06894595 0.02759618 0.01870000
v -0.06888208 0.02629879 0.01870000
v -0.06667767 0.02655898 0.01870000
v -0.06684002 0.02625978 0.01870000
v -0.06691761 0.02783559 0.01870000
v -0.06672665 0.02755378 0.01870000
v -0.06661879 0.02723090 0.01870000
v -0.06717752 0.02805542 0.01870000
v -0.06660205 0.02689089 0.01870000
v -0.02389097 0.02029434 0.02130000
v -0.02355397 0.02034244 0.02130000
v -0.02394783 0.02261981 0.02130000
v -0.02232498 0.01935310 0.02130000
v -0.02022636 0.02034645 0.02130000
v -0.02244063 0.01967327 0.02130000
v -0.02047805 0.02087599 0.02130000
v -0.02263838 0.01995036 0.02130000
v -0.02290356 0.02016383 0.02130000
v -0.02222075 0.02238521 0.02130000
v -0.02321649 0.02029783 0.02130000
v -0.02278081 0.02255868 0.02130000
v -0.02336179 0.02263759 0.02130000
v -0.02081348 0.02135688 0.02130000
v -0.02122348 0.02177600 0.02130000
v -0.02169687 0.02212192 0.02130000
v -0.02452296 0.02250581 0.02130000
v -0.02507147 0.02229870 0.02130000
v -0.02420250 0.02015710 0.02130000
v -0.02557842 0.02200413 0.02130000
v -0.02446545 0.01994091 0.02130000
v -0.02229999 0.01901361 0.02130000
v -0.01999913 0.01920013 0.02130000
v -0.02006525 0.01978271 0.02130000
v -0.02252257 0.01837690 0.02130000
v -0.02037556 0.01749832 0.02130000
v -0.02236752 0.01867996 0.02130000
v -0.02015643 0.01804215 0.02130000
v -0.02002981 0.01861462 0.02130000
v -0.02472314 0.01866777 0.02130000
v -0.02661695 0.01730892 0.02130000
v -0.02456497 0.01836633 0.02130000
v -0.02628152 0.01682803 0.02130000
v -0.02433133 0.01811875 0.02130000
v -0.02275363 0.01812691 0.02130000
v -0.02106504 0.01655477 0.02130000
v -0.02068120 0.01699798 0.02130000
v -0.02337089 0.01785500 0.02130000
v -0.02257205 0.01567910 0.02130000
v -0.02304357 0.01794853 0.02130000
v -0.02202353 0.01588621 0.02130000
v -0.02151658 0.01618078 0.02130000
v -0.02479413 0.01900070 0.02130000
v -0.02702975 0.01840220 0.02130000
v -0.02686864 0.01783846 0.02130000
v -0.02466032 0.01966179 0.02130000
v -0.02693857 0.02014276 0.02130000
v -0.02477266 0.01934044 0.02130000
v -0.02706520 0.01957029 0.02130000
v -0.02709587 0.01898478 0.02130000
v -0.02602996 0.02163015 0.02130000
v -0.02641380 0.02118693 0.02130000
v -0.02671945 0.02068659 0.02130000
v -0.02403956 0.01794338 0.02130000
v -0.02431419 0.01562623 0.02130000
v -0.02371130 0.01785323 0.02130000
v -0.02373321 0.01554732 0.02130000
v -0.02314717 0.01556510 0.02130000
v -0.02587152 0.01640891 0.02130000
v -0.02539813 0.01606299 0.02130000
v -0.02487426 0.01579970 0.02130000
v -0.02507147 0.02229870 0.02050000
v -0.02557842 0.02200413 0.02050000
v -0.02602996 0.02163015 0.02050000
v -0.02641380 0.02118693 0.02050000
v -0.02671945 0.02068659 0.02050000
v -0.02693857 0.02014276 0.02050000
v -0.02706520 0.01957029 0.02050000
v -0.02709587 0.01898478 0.02050000
v -0.02702975 0.01840220 0.02050000
v -0.02686864 0.01783846 0.02050000
v -0.02661695 0.01730892 0.02050000
v -0.02628152 0.01682803 0.02050000
v -0.02587152 0.01640891 0.02050000
v -0.02539813 0.01606299 0.02050000
v -0.02487426 0.01579970 0.02050000
v -0.02431419 0.01562623 0.02050000
v -0.02373321 0.01554732 0.02050000
v -0.02314717 0.01556510 0.02050000
v -0.02257205 0.01567910 0.02050000
v -0.02202353 0.01588621 0.02050000
v -0.02151658 0.01618078 0.02050000
v -0.02106504 0.01655477 0.02050000
v -0.02068120 0.01699798 0.02050000
v -0.02037556 0.01749832 0.02050000
v -0.02015643 0.01804215 0.02050000
v -0.02002981 0.01861462 0.02050000
v -0.01999913 0.01920013 0.02050000
v -0.02006525 0.01978271 0.02050000
v -0.02022636 0.02034645 0.02050000
v -0.02047805 0.02087599 0.02050000
v -0.02081348 0.02135688 0.02050000
v -0.02122348 0.02177600 0.02050000
v -0.02169687 0.02212192 0.02050000
v -0.02222075 0.02238521 0.02050000
v -0.02278081 0.02255868 0.02050000
v -0.02336179 0.02263759 0.02050000
v -0.02394783 0.02261981 0.02050000
v -0.02452296 0.02250581 0.02050000
v -0.02298506 0.01614565 0.02050000
v -0.02352027 0.01609258 0.02050000
v -0.02405635 0.01613593 0.02050000
v -0.02457609 0.01627430 0.02050000
v -0.02506276 0.01650325 0.02050000
v -0.02550073 0.01681542 0.02050000
v -0.02587592 0.01720077 0.02050000
v -0.02617627 0.01764693 0.02050000
v -0.02639214 0.01813954 0.02050000
v -0.02651657 0.01866279 0.02050000
v -0.02654558 0.01919984 0.02050000
v -0.02647822 0.01973344 0.02050000
v -0.02139802 0.02118524 0.02050000
v -0.02105889 0.02076780 0.02050000
v -0.02079973 0.02029652 0.02050000
v -0.02062890 0.01978654 0.02050000
v -0.02055187 0.01925425 0.02050000
v -0.02057112 0.01871676 0.02050000
v -0.02068603 0.01819134 0.02050000
v -0.02089292 0.01769489 0.02050000
v -0.02118512 0.01724335 0.02050000
v -0.02155326 0.01685125 0.02050000
v -0.02198549 0.01653118 0.02050000
v -0.02246792 0.01629343 0.02050000
v -0.02631667 0.02024644 0.02050000
v -0.02606612 0.02072235 0.02050000
v -0.02573461 0.02114587 0.02050000
v -0.02533281 0.02150340 0.02050000
v -0.02487363 0.02178344 0.02050000
v -0.02437183 0.02197698 0.02050000
v -0.02384353 0.02207781 0.02050000
v -0.02330572 0.02208270 0.02050000
v -0.02277567 0.02199147 0.02050000
v -0.02227044 0.02180707 0.02050000
v -0.02180625 0.02153541 0.02050000
v -0.02487363 0.02178344 0.01870000
v -0.02533281 0.02150340 0.01870000
v -0.02573461 0.02114587 0.01870000
v -0.02606612 0.02072235 0.01870000
v -0.02631667 0.02024644 0.01870000
v -0.02647822 0.01973344 0.01870000
v -0.02654558 0.01919984 0.01870000
v -0.02651657 0.01866279 0.01870000
v -0.02639214 0.01813954 0.01870000
v -0.02617627 0.01764693 0.01870000
v -0.02587592 0.01720077 0.01870000
v -0.02550073 0.01681542 0.01870000
v -0.02506276 0.01650325 0.01870000
v -0.02457609 0.01627430 0.01870000
v -0.02405635 0.01613593 0.01870000
v -0.02352027 0.01609258 0.01870000
v -0.02298506 0.01614565 0.01870000
v -0.02246792 0.01629343 0.01870000
v -0.02198549 0.01653118 0.01870000
v -0.02155326 0.01685125 0.01870000
v -0.02118512 0.01724335 0.01870000
v -0.02089292 0.01769489 0.01870000
v -0.02068603 0.01819134 0.01870000
v -0.02057112 0.01871676 0.01870000
v -0.02055187 0.01925425 0.01870000
v -0.02062890 0.01978654 0.01870000
v -0.02079973 0.02029652 0.01870000
v -0.02105889 0.02076780 0.01870000
v -0.02139802 0.02118524 0.01870000
v -0.02180625 0.02153541 0.01870000
v -0.02227044 0.02180707 0.01870000
v -0.02277567 0.02199147 0.01870000
v -0.02330572 0.02208270 0.01870000
v -0.02384353 0.02207781 0.01870000
v -0.02437183 0.02197698 0.01870000
v -0.02389097 0.02029434 0.01870000
v -0.02355397 0.02034244 0.01870000
v -0.02321649 0.02029783 0.01870000
v -0.02275363 0.01812691 0.01870000
v -0.02304357 0.01794853 0.01870000
v -0.02337089 0.01785500 0.01870000
v -0.02420250 0.02015710 0.01870000
v -0.02263838 0.01995036 0.01870000
v -0.02244063 0.01967327 0.01870000
v -0.02232498 0.01935310 0.01870000
v -0.02466032 0.01966179 0.01870000
v -0.02446545 0.01994091 0.01870000
v -0.02236752 0.01867996 0.01870000
v -0.02252257 0.01837690 0.01870000
v -0.02229999 0.01901361 0.01870000
v -0.02290356 0.02016383 0.01870000
v -0.02479413 0.01900070 0.01870000
v -0.02477266 0.01934044 0.01870000
v -0.02403956 0.01794338 0.01870000
v -0.02433133 0.01811875 0.01870000
v -0.02456497 0.01836633 0.01870000
v -0.02371130 0.01785323 0.01870000
v -0.02472314 0.01866777 0.01870000
v -0.02240299 0.01858987 0.01370000
v -0.02230983 0.01891729 0.01370000
v -0.02010649 0.01821957 0.01370000
v -0.02312419 0.02026860 0.01370000
v -0.02185661 0.02221389 0.01370000
v -0.02282257 0.02011077 0.01370000
v -0.02136590 0.02189301 0.01370000
v -0.02257471 0.01987743 0.01370000
v -0.02239900 0.01958586 0.01370000
v -0.02010577 0.01996252 0.01370000
v -0.02230847 0.01925770 0.01370000
v -0.02000951 0.01938416 0.01370000
v -0.02000975 0.01879785 0.01370000
v -0.02093470 0.02149574 0.01370000
v -0.02057477 0.02103290 0.01370000
v -0.02029592 0.02051714 0.01370000
v -0.02029709 0.01766510 0.01370000
v -0.02057635 0.01714957 0.01370000
v -0.02258103 0.01829972 0.01370000
v -0.02093667 0.01668704 0.01370000
v -0.02283075 0.01806836 0.01370000
v -0.02345720 0.02033919 0.01370000
v -0.02296176 0.02259380 0.01370000
v -0.02239344 0.02244963 0.01370000
v -0.02411813 0.02020461 0.01370000
v -0.02469881 0.02245058 0.01370000
v -0.02379692 0.02031732 0.01370000
v -0.02413038 0.02259428 0.01370000
v -0.02354605 0.02264245 0.01370000
v -0.02412702 0.01798491 0.01370000
v -0.02572910 0.01629190 0.01370000
v -0.02440434 0.01818233 0.01370000
v -0.02616031 0.01668918 0.01370000
v -0.02461812 0.01844726 0.01370000
v -0.02439703 0.02000941 0.01370000
v -0.02572681 0.02189480 0.01370000
v -0.02523584 0.02221528 0.01370000
v -0.02474979 0.01943452 0.01370000
v -0.02679791 0.02051980 0.01370000
v -0.02461292 0.01974621 0.01370000
v -0.02651865 0.02103534 0.01370000
v -0.02615834 0.02149787 0.01370000
v -0.02380672 0.01786963 0.01370000
v -0.02470156 0.01573528 0.01370000
v -0.02523839 0.01597102 0.01370000
v -0.02313362 0.01791296 0.01370000
v -0.02296462 0.01559063 0.01370000
v -0.02346719 0.01784504 0.01370000
v -0.02354895 0.01554246 0.01370000
v -0.02413324 0.01559111 0.01370000
v -0.02136819 0.01629011 0.01370000
v -0.02185917 0.01596963 0.01370000
v -0.02239619 0.01573433 0.01370000
v -0.02475249 0.01876003 0.01370000
v -0.02708549 0.01880075 0.01370000
v -0.02479749 0.01909746 0.01370000
v -0.02708526 0.01938706 0.01370000
v -0.02698851 0.01996534 0.01370000
v -0.02652024 0.01715201 0.01370000
v -0.02679908 0.01766777 0.01370000
v -0.02698923 0.01822239 0.01370000
v -0.02057635 0.01714957 0.01450000
v -0.02093667 0.01668704 0.01450000
v -0.02136819 0.01629011 0.01450000
v -0.02185917 0.01596963 0.01450000
v -0.02239619 0.01573433 0.01450000
v -0.02296462 0.01559063 0.01450000
v -0.02354895 0.01554246 0.01450000
v -0.02413324 0.01559111 0.01450000
v -0.02470156 0.01573528 0.01450000
v -0.02523839 0.01597102 0.01450000
v -0.02572910 0.01629190 0.01450000
v -0.02616031 0.01668918 0.01450000
v -0.02652024 0.01715201 0.01450000
v -0.02679908 0.01766777 0.01450000
v -0.02698923 0.01822239 0.01450000
v -0.02708549 0.01880075 0.01450000
v -0.02708526 0.01938706 0.01450000
v -0.02698851 0.01996534 0.01450000
v -0.02679791 0.02051980 0.01450000
v -0.02651865 0.02103534 0.01450000
v -0.02615834 0.02149787 0.01450000
v -0.02572681 0.02189480 0.01450000
v -0.02523584 0.02221528 0.01450000
v -0.02469881 0.02245058 0.01450000
v -0.02413038 0.02259428 0.01450000
v -0.02354605 0.02264245 0.01450000
v -0.02296176 0.02259380 0.01450000
v -0.02239344 0.02244963 0.01450000
v -0.02185661 0.02221389 0.01450000
v -0.02136590 0.02189301 0.01450000
v -0.02093470 0.02149574 0.01450000
v -0.02057477 0.02103290 0.01450000
v -0.02029592 0.02051714 0.01450000
v -0.02010577 0.01996252 0.01450000
v -0.02000951 0.01938416 0.01450000
v -0.02000975 0.01879785 0.01450000
v -0.02010649 0.01821957 0.01450000
v -0.02029709 0.01766510 0.01450000
v -0.02639139 0.02004759 0.01450000
v -0.02651624 0.01952444 0.01450000
v -0.02654566 0.01898741 0.01450000
v -0.02647872 0.01845376 0.01450000
v -0.02631757 0.01794063 0.01450000
v -0.02606739 0.01746453 0.01450000
v -0.02573622 0.01704074 0.01450000
v -0.02533470 0.01668290 0.01450000
v -0.02487573 0.01640251 0.01450000
v -0.02437408 0.01620857 0.01450000
v -0.02384586 0.01610733 0.01450000
v -0.02330805 0.01610203 0.01450000
v -0.02118368 0.02093971 0.01450000
v -0.02155151 0.02133210 0.01450000
v -0.02198349 0.02165251 0.01450000
v -0.02246574 0.02189063 0.01450000
v -0.02298276 0.02203882 0.01450000
v -0.02351793 0.02209231 0.01450000
v -0.02405405 0.02204938 0.01450000
v -0.02457389 0.02191141 0.01450000
v -0.02506074 0.02168284 0.01450000
v -0.02549895 0.02137102 0.01450000
v -0.02587444 0.02098596 0.01450000
v -0.02617515 0.02054003 0.01450000
v -0.02277794 0.01619284 0.01450000
v -0.02227256 0.01637685 0.01450000
v -0.02180815 0.01664814 0.01450000
v -0.02139966 0.01699799 0.01450000
v -0.02106019 0.01741516 0.01450000
v -0.02080067 0.01788624 0.01450000
v -0.02062944 0.01839609 0.01450000
v -0.02055199 0.01892832 0.01450000
v -0.02057083 0.01946583 0.01450000
v -0.02068533 0.01999134 0.01450000
v -0.02089183 0.02048795 0.01450000
v -0.02106019 0.01741516 0.01630000
v -0.02139966 0.01699799 0.01630000
v -0.02180815 0.01664814 0.01630000
v -0.02227256 0.01637685 0.01630000
v -0.02277794 0.01619284 0.01630000
v -0.02330805 0.01610203 0.01630000
v -0.02384586 0.01610733 0.01630000
v -0.02437408 0.01620857 0.01630000
v -0.02487573 0.01640251 0.01630000
v -0.02533470 0.01668290 0.01630000
v -0.02573622 0.01704074 0.01630000
v -0.02606739 0.01746453 0.01630000
v -0.02631757 0.01794063 0.01630000
v -0.02647872 0.01845376 0.01630000
v -0.02654566 0.01898741 0.01630000
v -0.02651624 0.01952444 0.01630000
v -0.02639139 0.02004759 0.01630000
v -0.02617515 0.02054003 0.01630000
v -0.02587444 0.02098596 0.01630000
v -0.02549895 0.02137102 0.01630000
v -0.02506074 0.02168284 0.01630000
v -0.02457389 0.02191141 0.01630000
v -0.02405405 0.02204938 0.01630000
v -0.02351793 0.02209231 0.01630000
v -0.02298276 0.02203882 0.01630000
v -0.02246574 0.02189063 0.01630000
v -0.02198349 0.02165251 0.01630000
v -0.02155151 0.02133210 0.01630000
v -0.02118368 0.02093971 0.01630000
v -0.02089183 0.02048795 0.01630000
v -0.02068533 0.01999134 0.01630000
v -0.02057083 0.01946583 0.01630000
v -0.02055199 0.01892832 0.01630000
v -0.02062944 0.01839609 0.01630000
v -0.02080067 0.01788624 0.01630000
v -0.02240299 0.01858987 0.01630000
v -0.02230983 0.01891729 0.01630000
v -0.02230847 0.01925770 0.01630000
v -0.02439703 0.02000941 0.01630000
v -0.02461292 0.01974621 0.01630000
v -0.02474979 0.01943452 0.01630000
v -0.02258103 0.01829972 0.01630000
v -0.02257471 0.01987743 0.01630000
v -0.02282257 0.02011077 0.01630000
v -0.02312419 0.02026860 0.01630000
v -0.02313362 0.01791296 0.01630000
v -0.02283075 0.01806836 0.01630000
v -0.02379692 0.02031732 0.01630000
v -0.02411813 0.02020461 0.01630000
v -0.02345720 0.02033919 0.01630000
v -0.02239900 0.01958586 0.01630000
v -0.02380672 0.01786963 0.01630000
v -0.02346719 0.01784504 0.01630000
v -0.02475249 0.01876003 0.01630000
v -0.02461812 0.01844726 0.01630000
v -0.02440434 0.01818233 0.01630000
v -0.02479749 0.01909746 0.01630000
v -0.02412702 0.01798491 0.01630000
v -0.06902725 0.02658747 0.01370000
v -0.06887219 0.02628442 0.01370000
v -0.07095984 0.02529282 0.01370000
v -0.06735519 0.02585094 0.01370000
v -0.06695643 0.02356360 0.01370000
v -0.06768345 0.02576078 0.01370000
v -0.06753419 0.02346383 0.01370000
v -0.06802387 0.02576254 0.01370000
v -0.06835118 0.02585606 0.01370000
v -0.06977217 0.02401716 0.01370000
v -0.06864113 0.02603444 0.01370000
v -0.07023688 0.02437467 0.01370000
v -0.07063640 0.02480379 0.01370000
v -0.06812049 0.02346053 0.01370000
v -0.06869935 0.02355377 0.01370000
v -0.06925496 0.02374102 0.01370000
v -0.07119838 0.02582841 0.01370000
v -0.07134552 0.02639597 0.01370000
v -0.06909479 0.02692112 0.01370000
v -0.07139723 0.02697999 0.01370000
v -0.06906981 0.02726062 0.01370000
v -0.06706343 0.02602631 0.01370000
v -0.06588890 0.02403905 0.01370000
v -0.06640296 0.02375709 0.01370000
v -0.06667162 0.02657534 0.01370000
v -0.06471568 0.02532801 0.01370000
v -0.06682979 0.02627390 0.01370000
v -0.06503359 0.02483537 0.01370000
v -0.06542825 0.02440177 0.01370000
v -0.06817833 0.02820537 0.01370000
v -0.06816037 0.03053617 0.01370000
v -0.06784084 0.02824998 0.01370000
v -0.06757407 0.03053947 0.01370000
v -0.06750385 0.02820189 0.01370000
v -0.06660065 0.02690828 0.01370000
v -0.06434246 0.02643543 0.01370000
v -0.06448319 0.02586626 0.01370000
v -0.06673448 0.02756936 0.01370000
v -0.06449618 0.02817159 0.01370000
v -0.06662214 0.02724802 0.01370000
v -0.06434905 0.02760403 0.01370000
v -0.06429734 0.02702001 0.01370000
v -0.06849126 0.02807135 0.01370000
v -0.06929160 0.03024291 0.01370000
v -0.06873813 0.03043641 0.01370000
v -0.06895416 0.02758079 0.01370000
v -0.07066098 0.02916463 0.01370000
v -0.06875642 0.02785788 0.01370000
v -0.07026631 0.02959823 0.01370000
v -0.06980567 0.02996095 0.01370000
v -0.07135210 0.02756457 0.01370000
v -0.07121138 0.02813374 0.01370000
v -0.07097889 0.02867199 0.01370000
v -0.06719232 0.02806467 0.01370000
v -0.06545769 0.02962533 0.01370000
v -0.06692936 0.02784848 0.01370000
v -0.06505816 0.02919621 0.01370000
v -0.06473472 0.02870718 0.01370000
v -0.06699522 0.03044623 0.01370000
v -0.06643961 0.03025898 0.01370000
v -0.06592239 0.02998284 0.01370000
v -0.07134552 0.02639597 0.01450000
v -0.07139723 0.02697999 0.01450000
v -0.07135210 0.02756457 0.01450000
v -0.07121138 0.02813374 0.01450000
v -0.07097889 0.02867199 0.01450000
v -0.07066098 0.02916463 0.01450000
v -0.07026631 0.02959823 0.01450000
v -0.06980567 0.02996095 0.01450000
v -0.06929160 0.03024291 0.01450000
v -0.06873813 0.03043641 0.01450000
v -0.06816037 0.03053617 0.01450000
v -0.06757407 0.03053947 0.01450000
v -0.06699522 0.03044623 0.01450000
v -0.06643961 0.03025898 0.01450000
v -0.06592239 0.02998284 0.01450000
v -0.06545769 0.02962533 0.01450000
v -0.06505816 0.02919621 0.01450000
v -0.06473472 0.02870718 0.01450000
v -0.06449618 0.02817159 0.01450000
v -0.06434905 0.02760403 0.01450000
v -0.06429734 0.02702001 0.01450000
v -0.06434246 0.02643543 0.01450000
v -0.06448319 0.02586626 0.01450000
v -0.06471568 0.02532801 0.01450000
v -0.06503359 0.02483537 0.01450000
v -0.06542825 0.02440177 0.01450000
v -0.06588890 0.02403905 0.01450000
v -0.06640296 0.02375709 0.01450000
v -0.06695643 0.02356360 0.01450000
v -0.06753419 0.02346383 0.01450000
v -0.06812049 0.02346053 0.01450000
v -0.06869935 0.02355377 0.01450000
v -0.06925496 0.02374102 0.01450000
v -0.06977217 0.02401716 0.01450000
v -0.07023688 0.02437467 0.01450000
v -0.07063640 0.02480379 0.01450000
v -0.07095984 0.02529282 0.01450000
v -0.07119838 0.02582841 0.01450000
v -0.06511552 0.02823994 0.01450000
v -0.06538082 0.02870779 0.01450000
v -0.06572539 0.02912075 0.01450000
v -0.06613816 0.02946554 0.01450000
v -0.06660587 0.02973110 0.01450000
v -0.06711347 0.02990887 0.01450000
v -0.06764467 0.02999315 0.01450000
v -0.06818237 0.02998123 0.01450000
v -0.06870931 0.02987348 0.01450000
v -0.06920853 0.02967339 0.01450000
v -0.06966401 0.02938736 0.01450000
v -0.07006110 0.02902461 0.01450000
v -0.06831738 0.02403706 0.01450000
v -0.06778078 0.02400074 0.01450000
v -0.06724631 0.02406081 0.01450000
v -0.06673115 0.02421535 0.01450000
v -0.06625187 0.02445940 0.01450000
v -0.06582387 0.02478510 0.01450000
v -0.06546090 0.02518199 0.01450000
v -0.06517463 0.02563731 0.01450000
v -0.06497426 0.02613643 0.01450000
v -0.06486624 0.02666330 0.01450000
v -0.06485403 0.02720100 0.01450000
v -0.06493802 0.02773224 0.01450000
v -0.07038703 0.02859678 0.01450000
v -0.07063133 0.02811763 0.01450000
v -0.07078615 0.02760256 0.01450000
v -0.07084651 0.02706812 0.01450000
v -0.07081047 0.02653150 0.01450000
v -0.07067920 0.02600993 0.01450000
v -0.07045691 0.02552018 0.01450000
v -0.07015073 0.02507799 0.01450000
v -0.06977053 0.02469759 0.01450000
v -0.06932851 0.02439118 0.01450000
v -0.06883889 0.02416862 0.01450000
v -0.07081047 0.02653150 0.01630000
v -0.07084651 0.02706812 0.01630000
v -0.07078615 0.02760256 0.01630000
v -0.07063133 0.02811763 0.01630000
v -0.07038703 0.02859678 0.01630000
v -0.07006110 0.02902461 0.01630000
v -0.06966401 0.02938736 0.01630000
v -0.06920853 0.02967339 0.01630000
v -0.06870931 0.02987348 0.01630000
v -0.06818237 0.02998123 0.01630000
v -0.06764467 0.02999315 0.01630000
v -0.06711347 0.02990887 0.01630000
v -0.06660587 0.02973110 0.01630000
v -0.06613816 0.02946554 0.01630000
v -0.06572539 0.02912075 0.01630000
v -0.06538082 0.02870779 0.01630000
v -0.06511552 0.02823994 0.01630000
v -0.06493802 0.02773224 0.01630000
v -0.06485403 0.02720100 0.01630000
v -0.06486624 0.02666330 0.01630000
v -0.06497426 0.02613643 0.01630000
v -0.06517463 0.02563731 0.01630000
v -0.06546090 0.02518199 0.01630000
v -0.06582387 0.02478510 0.01630000
v -0.06625187 0.02445940 0.01630000
v -0.06673115 0.02421535 0.01630000
v -0.06724631 0.02406081 0.01630000
v -0.06778078 0.02400074 0.01630000
v -0.06831738 0.02403706 0.01630000
v -0.06883889 0.02416862 0.01630000
v -0.06932851 0.02439118 0.01630000
v -0.06977053 0.02469759 0.01630000
v -0.07015073 0.02507799 0.01630000
v -0.07045691 0.02552018 0.01630000
v -0.07067920 0.02600993 0.01630000
v -0.06902725 0.02658747 0.01630000
v -0.06887219 0.02628442 0.01630000
v -0.06864113 0.02603444 0.01630000
v -0.06660065 0.02690828 0.01630000
v -0.06662214 0.02724802 0.01630000
v -0.06673448 0.02756936 0.01630000
v -0.06909479 0.02692112 0.01630000
v -0.06802387 0.02576254 0.01630000
v -0.06768345 0.02576078 0.01630000
v -0.06735519 0.02585094 0.01630000
v -0.06895416 0.02758079 0.01630000
v -0.06906981 0.02726062 0.01630000
v -0.06682979 0.02627390 0.01630000
v -0.06667162 0.02657534 0.01630000
v -0.06706343 0.02602631 0.01630000
v -0.06835118 0.02585606 0.01630000
v -0.06849126 0.02807135 0.01630000
v -0.06875642 0.02785788 0.01630000
v -0.06719232 0.02806467 0.01630000
v -0.06750385 0.02820189 0.01630000
v -0.06784084 0.02824998 0.01630000
v -0.06692936 0.02784848 0.01630000
v -0.06817833 0.02820537 0.01630000
v -0.02419194 0.01802138 0.01870000
v -0.02437130 0.01727000 0.01870000
v -0.02394663 0.01790789 0.01870000
v -0.02405146 0.01715699 0.01870000
v -0.02368265 0.01784978 0.01870000
v -0.02371711 0.01709966 0.01870000
v -0.02341235 0.01784978 0.01870000
v -0.02337789 0.01709966 0.01870000
v -0.02314837 0.01790789 0.01870000
v -0.02304354 0.01715699 0.01870000
v -0.02272370 0.01727000 0.01870000
v -0.02290306 0.01802138 0.01870000
v -0.02242755 0.01743544 0.01870000
v -0.02268788 0.01818496 0.01870000
v -0.02216362 0.01764854 0.01870000
v -0.02251289 0.01839097 0.01870000
v -0.02470872 0.01862978 0.01870000
v -0.02533335 0.01819205 0.01870000
v -0.02458211 0.01839097 0.01870000
v -0.02515549 0.01790319 0.01870000
v -0.02440712 0.01818496 0.01870000
v -0.02493138 0.01764854 0.01870000
v -0.02466745 0.01743544 0.01870000
v -0.02302264 0.02022692 0.01870000
v -0.02288122 0.02097821 0.01870000
v -0.02327879 0.02031323 0.01870000
v -0.02320950 0.02106369 0.01870000
v -0.02354750 0.02034245 0.01870000
v -0.02354750 0.02109246 0.01870000
v -0.02381621 0.02031323 0.01870000
v -0.02234306 0.01942687 0.01870000
v -0.02169172 0.01983817 0.01870000
v -0.02244311 0.01967796 0.01870000
v -0.02184444 0.02014107 0.01870000
v -0.02259480 0.01990169 0.01870000
v -0.02204616 0.02041380 0.01870000
v -0.02279103 0.02008757 0.01870000
v -0.02229106 0.02064853 0.01870000
v -0.02257211 0.02083848 0.01870000
v -0.02193951 0.01790319 0.01870000
v -0.02176165 0.01819205 0.01870000
v -0.02238628 0.01862978 0.01870000
v -0.02163517 0.01850681 0.01870000
v -0.02231397 0.01889023 0.01870000
v -0.02156370 0.01883842 0.01870000
v -0.02229933 0.01916013 0.01870000
v -0.02154930 0.01917734 0.01870000
v -0.02159239 0.01951381 0.01870000
v -0.02465189 0.01967796 0.01870000
v -0.02540328 0.01983817 0.01870000
v -0.02475194 0.01942687 0.01870000
v -0.02550261 0.01951381 0.01870000
v -0.02479567 0.01916013 0.01870000
v -0.02554570 0.01917734 0.01870000
v -0.02478103 0.01889023 0.01870000
v -0.02553130 0.01883842 0.01870000
v -0.02545983 0.01850681 0.01870000
v -0.02388550 0.02106369 0.01870000
v -0.02421378 0.02097821 0.01870000
v -0.02407236 0.02022692 0.01870000
v -0.02452289 0.02083848 0.01870000
v -0.02430397 0.02008757 0.01870000
v -0.02480394 0.02064853 0.01870000
v -0.02450020 0.01990169 0.01870000
v -0.02504884 0.02041380 0.01870000
v -0.02525056 0.02014107 0.01870000
v -0.02354750 0.02034245 0.01620000
v -0.02327879 0.02031323 0.01620000
v -0.02302264 0.02022692 0.01620000
v -0.02279103 0.02008757 0.01620000
v -0.02259480 0.01990169 0.01620000
v -0.02244311 0.01967796 0.01620000
v -0.02234306 0.01942687 0.01620000
v -0.02229933 0.01916013 0.01620000
v -0.02231397 0.01889023 0.01620000
v -0.02238628 0.01862978 0.01620000
v -0.02251289 0.01839097 0.01620000
v -0.02268788 0.01818496 0.01620000
v -0.02290306 0.01802138 0.01620000
v -0.02314837 0.01790789 0.01620000
v -0.02341235 0.01784978 0.01620000
v -0.02368265 0.01784978 0.01620000
v -0.02394663 0.01790789 0.01620000
v -0.02419194 0.01802138 0.01620000
v -0.02440712 0.01818496 0.01620000
v -0.02458211 0.01839097 0.01620000
v -0.02470872 0.01862978 0.01620000
v -0.02478103 0.01889023 0.01620000
v -0.02479567 0.01916013 0.01620000
v -0.02475194 0.01942687 0.01620000
v -0.02465189 0.01967796 0.01620000
v -0.02450020 0.01990169 0.01620000
v -0.02430397 0.02008757 0.01620000
v -0.02407236 0.02022692 0.01620000
v -0.02381621 0.02031323 0.01620000
v -0.02421378 0.02097821 0.01620000
v -0.02388550 0.02106369 0.01620000
v -0.02354750 0.02109246 0.01620000
v -0.02540328 0.01983817 0.01620000
v -0.02525056 0.02014107 0.01620000
v -0.02504884 0.02041380 0.01620000
v -0.02480394 0.02064853 0.01620000
v -0.02452289 0.02083848 0.01620000
v -0.02533335 0.01819205 0.01620000
v -0.02545983 0.01850681 0.01620000
v -0.02553130 0.01883842 0.01620000
v -0.02554570 0.01917734 0.01620000
v -0.02550261 0.01951381 0.01620000
v -0.02272370 0.01727000 0.01620000
v -0.02304354 0.01715699 0.01620000
v -0.02337789 0.01709966 0.01620000
v -0.02371711 0.01709966 0.01620000
v -0.02405146 0.01715699 0.01620000
v -0.02437130 0.01727000 0.01620000
v -0.02466745 0.01743544 0.01620000
v -0.02493138 0.01764854 0.01620000
v -0.02515549 0.01790319 0.01620000
v -0.02176165 0.01819205 0.01620000
v -0.02193951 0.01790319 0.01620000
v -0.02216362 0.01764854 0.01620000
v -0.02242755 0.01743544 0.01620000
v -0.02169172 0.01983817 0.01620000
v -0.02159239 0.01951381 0.01620000
v -0.02154930 0.01917734 0.01620000
v -0.02156370 0.01883842 0.01620000
v -0.02163517 0.01850681 0.01620000
v -0.02320950 0.02106369 0.01620000
v -0.02288122 0.02097821 0.01620000
v -0.02257211 0.02083848 0.01620000
v -0.02229106 0.02064853 0.01620000
v -0.02204616 0.02041380 0.01620000
v -0.02184444 0.02014107 0.01620000
v -0.06849173 0.02592893 0.01870000
v -0.06867108 0.02517754 0.01870000
v -0.06824641 0.02581543 0.01870000
v -0.06835124 0.02506453 0.01870000
v -0.06798244 0.02575733 0.01870000
v -0.06801689 0.02500721 0.01870000
v -0.06771214 0.02575733 0.01870000
v -0.06767767 0.02500721 0.01870000
v -0.06744815 0.02581543 0.01870000
v -0.06734332 0.02506453 0.01870000
v -0.06702348 0.02517754 0.01870000
v -0.06720284 0.02592893 0.01870000
v -0.06672733 0.02534298 0.01870000
v -0.06698766 0.02609251 0.01870000
v -0.06646340 0.02555609 0.01870000
v -0.06681267 0.02629852 0.01870000
v -0.06900851 0.02653733 0.01870000
v -0.06963313 0.02609959 0.01870000
v -0.06888189 0.02629852 0.01870000
v -0.06945528 0.02581073 0.01870000
v -0.06870691 0.02609251 0.01870000
v -0.06923116 0.02555609 0.01870000
v -0.06896723 0.02534298 0.01870000
v -0.06732242 0.02813447 0.01870000
v -0.06718101 0.02888576 0.01870000
v -0.06757857 0.02822078 0.01870000
v -0.06750928 0.02897123 0.01870000
v -0.06784728 0.02825000 0.01870000
v -0.06784728 0.02900000 0.01870000
v -0.06811599 0.02822078 0.01870000
v -0.06664284 0.02733441 0.01870000
v -0.06599151 0.02774571 0.01870000
v -0.06674289 0.02758551 0.01870000
v -0.06614423 0.02804861 0.01870000
v -0.06689458 0.02780923 0.01870000
v -0.06634594 0.02832135 0.01870000
v -0.06709082 0.02799512 0.01870000
v -0.06659085 0.02855607 0.01870000
v -0.06687190 0.02874603 0.01870000
v -0.06623929 0.02581073 0.01870000
v -0.06606143 0.02609959 0.01870000
v -0.06668606 0.02653733 0.01870000
v -0.06593495 0.02641436 0.01870000
v -0.06661375 0.02679777 0.01870000
v -0.06586348 0.02674596 0.01870000
v -0.06659912 0.02706767 0.01870000
v -0.06584909 0.02708488 0.01870000
v -0.06589217 0.02742136 0.01870000
v -0.06895167 0.02758551 0.01870000
v -0.06970306 0.02774571 0.01870000
v -0.06905172 0.02733441 0.01870000
v -0.06980240 0.02742136 0.01870000
v -0.06909545 0.02706767 0.01870000
v -0.06984548 0.02708488 0.01870000
v -0.06908081 0.02679777 0.01870000
v -0.06983108 0.02674596 0.01870000
v -0.06975961 0.02641436 0.01870000
v -0.06818528 0.02897123 0.01870000
v -0.06851356 0.02888576 0.01870000
v -0.06837215 0.02813447 0.01870000
v -0.06882267 0.02874603 0.01870000
v -0.06860375 0.02799512 0.01870000
v -0.06910373 0.02855607 0.01870000
v -0.06879999 0.02780923 0.01870000
v -0.06934863 0.02832135 0.01870000
v -0.06955034 0.02804861 0.01870000
v -0.06784728 0.02825000 0.01620000
v -0.06757857 0.02822078 0.01620000
v -0.06732242 0.02813447 0.01620000
v -0.06709082 0.02799512 0.01620000
v -0.06689458 0.02780923 0.01620000
v -0.06674289 0.02758551 0.01620000
v -0.06664284 0.02733441 0.01620000
v -0.06659912 0.02706767 0.01620000
v -0.06661375 0.02679777 0.01620000
v -0.06668606 0.02653733 0.01620000
v -0.06681267 0.02629852 0.01620000
v -0.06698766 0.02609251 0.01620000
v -0.06720284 0.02592893 0.01620000
v -0.06744815 0.02581543 0.01620000
v -0.06771214 0.02575733 0.01620000
v -0.06798244 0.02575733 0.01620000
v -0.06824641 0.02581543 0.01620000
v -0.06849173 0.02592893 0.01620000
v -0.06870691 0.02609251 0.01620000
v -0.06888189 0.02629852 0.01620000
v -0.06900851 0.02653733 0.01620000
v -0.06908081 0.02679777 0.01620000
v -0.06909545 0.02706767 0.01620000
v -0.06905172 0.02733441 0.01620000
v -0.06895167 0.02758551 0.01620000
v -0.06879999 0.02780923 0.01620000
v -0.06860375 0.02799512 0.01620000
v -0.06837215 0.02813447 0.01620000
v -0.06811599 0.02822078 0.01620000
v -0.06851356 0.02888576 0.01620000
v -0.06818528 0.02897123 0.01620000
v -0.06784728 0.02900000 0.01620000
v -0.06970306 0.02774571 0.01620000
v -0.06955034 0.02804861 0.01620000
v -0.06934863 0.02832135 0.01620000
v -0.06910373 0.02855607 0.01620000
v -0.06882267 0.02874603 0.01620000
v -0.06963313 0.02609959 0.01620000
v -0.06975961 0.02641436 0.01620000
v -0.06983108 0.02674596 0.01620000
v -0.06984548 0.02708488 0.01620000
v -0.06980240 0.02742136 0.01620000
v -0.06702348 0.02517754 0.01620000
v -0.06734332 0.02506453 0.01620000
v -0.06767767 0.02500721 0.01620000
v -0.06801689 0.02500721 0.01620000
v -0.06835124 0.02506453 0.01620000
v -0.06867108 0.02517754 0.01620000
v -0.06896723 0.02534298 0.01620000
v -0.06923116 0.02555609 0.01620000
v -0.06945528 0.02581073 0.01620000
v -0.06606143 0.02609959 0.01620000
v -0.06623929 0.02581073 0.01620000
v -0.06646340 0.02555609 0.01620000
v -0.06672733 0.02534298 0.01620000
v -0.06599151 0.02774571 0.01620000
v -0.06589217 0.02742136 0.01620000
v -0.06584909 0.02708488 0.01620000
v -0.06586348 0.02674596 0.01620000
v -0.06593495 0.02641436 0.01620000
v -0.06750928 0.02897123 0.01620000
v -0.06718101 0.02888576 0.01620000
v -0.06687190 0.02874603 0.01620000
v -0.06659085 0.02855607 0.01620000
v -0.06634594 0.02832135 0.01620000
v -0.06614423 0.02804861 0.01620000
f 78 186 80
f 136 182 209
f 136 209 137
f 137 209 176
f 137 176 114
f 207 100 220
f 220 100 99
f 220 99 6
f 6 99 141
f 174 115 176
f 176 115 114
f 140 8 141
f 141 8 6
f 78 187 186
f 90 187 78
f 90 189 187
f 89 189 90
f 89 191 189
f 87 191 89
f 87 193 191
f 85 193 87
f 85 195 193
f 83 195 85
f 83 197 195
f 133 149 134
f 97 197 83
f 107 161 109
f 12 200 202
f 133 151 149
f 131 151 133
f 131 153 151
f 129 153 131
f 129 155 153
f 128 155 129
f 128 157 155
f 111 157 128
f 111 159 157
f 109 159 111
f 109 161 159
f 167 104 214
f 107 163 161
f 105 163 107
f 105 165 163
f 104 165 105
f 104 167 165
f 178 139 144
f 223 139 178
f 223 140 139
f 8 140 223
f 174 103 115
f 214 103 174
f 214 104 103
f 5 69 219
f 177 75 224
f 179 62 76
f 218 62 179
f 218 63 62
f 169 63 218
f 5 70 69
f 7 70 5
f 72 169 171
f 63 169 72
f 208 73 20
f 219 73 208
f 219 69 73
f 224 75 74
f 171 30 72
f 215 30 171
f 215 31 30
f 145 31 215
f 18 208 20
f 18 206 208
f 17 206 18
f 17 204 206
f 11 204 17
f 11 202 204
f 12 202 11
f 93 94 95
f 222 124 123
f 96 199 97
f 96 201 199
f 94 201 96
f 94 203 201
f 92 203 94
f 92 205 203
f 100 205 92
f 100 207 205
f 184 136 138
f 182 136 184
f 186 123 80
f 222 123 186
f 97 199 197
f 4 124 222
f 127 184 138
f 127 211 184
f 126 211 127
f 126 2 211
f 4 126 124
f 2 126 4
f 76 177 179
f 75 177 76
f 7 74 70
f 224 74 7
f 27 49 28
f 34 33 35
f 34 35 36
f 36 35 37
f 36 37 38
f 38 37 39
f 38 39 40
f 40 39 41
f 41 39 42
f 41 42 43
f 44 45 46
f 46 45 47
f 46 47 48
f 32 33 34
f 28 49 50
f 28 50 51
f 51 50 52
f 51 52 53
f 53 52 54
f 53 54 55
f 55 54 56
f 55 56 57
f 43 42 58
f 58 42 59
f 58 59 60
f 61 62 63
f 9 18 19
f 1 2 3
f 3 2 4
f 5 6 7
f 7 6 8
f 9 10 11
f 11 10 12
f 12 10 13
f 12 13 14
f 14 13 15
f 14 15 16
f 11 17 9
f 9 17 18
f 56 64 57
f 19 18 20
f 19 20 21
f 22 23 24
f 24 23 25
f 24 25 26
f 26 25 27
f 26 27 28
f 29 30 22
f 22 30 31
f 22 31 23
f 16 15 32
f 32 15 33
f 170 142 135
f 82 83 84
f 84 83 85
f 84 85 86
f 86 85 87
f 86 87 88
f 88 87 89
f 88 89 77
f 77 89 90
f 77 90 78
f 91 92 93
f 172 135 122
f 170 135 172
f 79 80 81
f 217 142 170
f 217 143 142
f 180 143 217
f 146 121 119
f 216 121 146
f 216 122 121
f 172 122 216
f 144 180 178
f 143 180 144
f 117 146 119
f 117 147 146
f 134 147 117
f 20 73 21
f 57 64 65
f 57 65 66
f 66 65 67
f 66 67 44
f 44 67 68
f 44 68 45
f 69 70 71
f 48 61 46
f 46 61 63
f 46 63 29
f 29 63 72
f 29 72 30
f 134 149 147
f 21 73 69
f 21 69 59
f 59 69 71
f 59 71 60
f 70 74 71
f 71 74 75
f 71 75 61
f 61 75 76
f 61 76 62
f 77 78 79
f 79 78 80
f 28 130 26
f 57 106 55
f 55 106 108
f 55 108 53
f 53 108 110
f 53 110 51
f 51 110 112
f 51 112 28
f 28 112 130
f 57 101 106
f 26 130 132
f 26 132 24
f 24 132 116
f 24 116 22
f 22 116 118
f 22 118 29
f 29 118 120
f 29 120 46
f 66 101 57
f 166 167 168
f 166 165 167
f 164 165 166
f 164 163 165
f 162 163 164
f 162 161 163
f 160 161 162
f 160 159 161
f 158 159 160
f 158 157 159
f 156 157 158
f 156 155 157
f 154 155 156
f 154 153 155
f 188 187 189
f 202 203 204
f 202 201 203
f 200 201 202
f 200 199 201
f 198 199 200
f 198 197 199
f 196 197 198
f 196 195 197
f 194 195 196
f 194 193 195
f 192 193 194
f 192 191 193
f 190 191 192
f 190 189 191
f 188 189 190
f 152 153 154
f 185 187 188
f 185 186 187
f 183 182 184
f 181 182 183
f 179 178 180
f 177 178 179
f 175 174 176
f 173 174 175
f 171 170 172
f 169 170 171
f 66 102 101
f 44 102 66
f 44 113 102
f 46 113 44
f 46 120 113
f 108 109 110
f 125 126 127
f 125 124 126
f 81 124 125
f 81 123 124
f 80 123 81
f 120 121 122
f 120 119 121
f 118 119 120
f 118 117 119
f 116 117 118
f 102 115 103
f 102 114 115
f 113 114 102
f 110 111 112
f 110 109 111
f 111 128 112
f 108 107 109
f 106 107 108
f 106 105 107
f 101 105 106
f 101 104 105
f 103 104 101
f 101 102 103
f 91 100 92
f 91 99 100
f 98 99 91
f 82 97 83
f 82 96 97
f 95 96 82
f 95 94 96
f 93 92 94
f 125 138 140
f 152 151 153
f 150 151 152
f 150 149 151
f 148 149 150
f 148 147 149
f 145 147 148
f 145 146 147
f 138 144 139
f 138 143 144
f 136 143 138
f 136 142 143
f 135 142 136
f 98 141 99
f 98 140 141
f 125 140 98
f 14 198 200
f 127 138 125
f 138 139 140
f 113 137 114
f 113 136 137
f 120 136 113
f 120 135 136
f 122 135 120
f 116 134 117
f 116 133 134
f 132 133 116
f 132 131 133
f 130 131 132
f 130 129 131
f 112 129 130
f 112 128 129
f 145 216 146
f 175 209 210
f 210 209 182
f 210 182 181
f 183 184 211
f 183 211 212
f 212 211 2
f 212 2 1
f 168 167 213
f 213 167 214
f 213 214 173
f 173 214 174
f 171 172 215
f 215 172 216
f 215 216 145
f 175 176 209
f 170 169 217
f 217 169 218
f 217 218 180
f 180 218 179
f 208 207 219
f 219 207 220
f 219 220 5
f 5 220 6
f 3 4 221
f 221 4 222
f 221 222 185
f 185 222 186
f 178 177 223
f 223 177 224
f 9 93 10
f 204 203 205
f 204 205 206
f 206 205 207
f 206 207 208
f 39 79 42
f 42 79 81
f 42 81 59
f 59 81 125
f 59 125 21
f 21 125 98
f 21 98 19
f 19 98 91
f 19 91 9
f 9 91 93
f 14 200 12
f 10 93 95
f 10 95 13
f 13 95 82
f 13 82 15
f 15 82 84
f 15 84 33
f 33 84 86
f 33 86 35
f 35 86 88
f 35 88 37
f 37 88 77
f 37 77 39
f 39 77 79
f 65 166 168
f 27 152 154
f 27 154 49
f 49 154 156
f 49 156 50
f 50 156 158
f 50 158 52
f 52 158 160
f 52 160 54
f 54 160 162
f 54 162 56
f 56 162 164
f 56 164 64
f 64 164 166
f 64 166 65
f 8 224 7
f 65 168 67
f 40 185 188
f 40 188 38
f 38 188 190
f 38 190 36
f 36 190 192
f 36 192 34
f 34 192 194
f 34 194 32
f 32 194 196
f 32 196 16
f 16 196 198
f 16 198 14
f 223 224 8
f 25 150 152
f 25 152 27
f 61 181 71
f 71 181 183
f 47 175 210
f 47 210 48
f 48 210 181
f 48 181 61
f 71 183 212
f 71 212 60
f 60 212 1
f 60 1 58
f 45 173 47
f 47 173 175
f 3 43 1
f 173 45 213
f 1 43 58
f 23 150 25
f 23 148 150
f 31 148 23
f 31 145 148
f 3 41 43
f 221 41 3
f 221 40 41
f 185 40 221
f 168 68 67
f 213 68 168
f 213 45 68
f 402 230 401
f 401 230 232
f 256 255 257
f 256 257 258
f 259 260 249
f 249 260 261
f 249 261 250
f 246 247 228
f 407 259 249
f 407 249 406
f 406 249 251
f 406 251 408
f 408 246 403
f 412 258 278
f 403 228 402
f 402 228 230
f 412 278 415
f 415 278 280
f 415 280 399
f 399 280 262
f 399 262 398
f 409 232 233
f 398 264 397
f 397 259 407
f 404 245 270
f 401 232 409
f 397 264 259
f 404 270 411
f 398 262 264
f 370 369 414
f 408 251 246
f 413 258 412
f 227 241 225
f 225 241 242
f 225 242 243
f 262 263 264
f 243 244 245
f 230 231 232
f 228 247 248
f 228 248 229
f 235 236 226
f 226 236 237
f 226 237 227
f 246 252 253
f 232 238 239
f 278 284 285
f 233 239 240
f 233 240 234
f 242 286 287
f 242 287 244
f 244 287 288
f 243 242 244
f 230 229 231
f 278 279 280
f 233 234 235
f 235 234 236
f 246 253 247
f 225 226 227
f 254 255 256
f 228 229 230
f 231 238 232
f 258 284 278
f 278 285 279
f 241 286 242
f 268 294 295
f 268 295 269
f 269 295 296
f 282 304 263
f 255 296 297
f 275 289 276
f 257 297 298
f 257 298 283
f 277 290 291
f 277 291 271
f 271 291 292
f 284 300 285
f 273 292 293
f 238 317 239
f 274 293 294
f 274 294 268
f 240 318 319
f 240 319 234
f 234 319 320
f 269 296 255
f 275 288 289
f 247 313 248
f 276 289 290
f 276 290 277
f 262 281 282
f 262 282 263
f 257 283 258
f 271 292 273
f 238 316 317
f 272 273 267
f 239 317 318
f 239 318 240
f 252 310 311
f 252 311 253
f 253 311 312
f 234 320 236
f 247 312 313
f 263 305 265
f 248 313 314
f 248 314 229
f 266 306 307
f 266 307 260
f 260 307 308
f 231 316 238
f 261 308 309
f 333 294 334
f 250 309 310
f 250 310 252
f 336 316 337
f 337 316 315
f 337 315 338
f 253 312 247
f 263 304 305
f 329 298 330
f 265 305 306
f 265 306 266
f 283 298 299
f 283 299 284
f 284 299 300
f 260 308 261
f 333 295 294
f 273 293 274
f 334 294 293
f 334 293 335
f 327 301 300
f 327 300 328
f 328 300 299
f 338 315 314
f 329 299 298
f 236 321 237
f 330 298 297
f 330 297 331
f 227 322 323
f 227 323 241
f 241 323 286
f 332 295 333
f 325 303 302
f 348 290 349
f 326 302 301
f 326 301 327
f 350 289 288
f 350 288 351
f 351 288 287
f 328 299 329
f 236 320 321
f 347 306 305
f 237 321 322
f 237 322 227
f 229 314 315
f 229 315 231
f 231 315 316
f 324 303 325
f 348 291 290
f 261 309 250
f 349 290 289
f 349 289 350
f 344 308 345
f 345 308 307
f 345 307 346
f 351 287 352
f 346 306 347
f 339 314 313
f 347 305 324
f 324 305 304
f 340 312 341
f 341 312 311
f 341 311 342
f 335 291 348
f 342 310 343
f 348 363 364
f 343 309 344
f 344 309 308
f 335 365 334
f 334 365 366
f 334 366 333
f 346 307 306
f 338 314 339
f 352 359 360
f 339 313 340
f 340 313 312
f 331 297 296
f 331 296 332
f 332 296 295
f 342 311 310
f 349 363 348
f 325 302 326
f 348 364 335
f 335 364 365
f 358 319 318
f 358 318 336
f 336 318 317
f 333 366 367
f 353 359 352
f 352 286 353
f 352 360 351
f 351 360 361
f 354 323 322
f 354 322 355
f 355 322 321
f 349 362 363
f 356 321 320
f 344 379 380
f 357 320 319
f 357 319 358
f 343 381 342
f 342 381 382
f 342 382 341
f 336 317 316
f 352 287 286
f 324 375 376
f 353 286 323
f 353 323 354
f 324 304 303
f 293 292 335
f 335 292 291
f 355 321 356
f 345 379 344
f 343 310 309
f 344 380 343
f 343 380 381
f 327 373 326
f 326 373 374
f 326 374 325
f 341 382 383
f 325 375 324
f 332 367 368
f 324 376 347
f 347 376 377
f 331 369 330
f 330 369 370
f 330 370 329
f 345 378 379
f 329 371 328
f 397 377 398
f 328 372 327
f 327 372 373
f 400 359 394
f 394 359 393
f 394 393 392
f 325 374 375
f 333 367 332
f 355 391 392
f 332 368 331
f 331 368 369
f 351 361 350
f 350 361 362
f 350 362 349
f 329 370 371
f 395 391 396
f 356 320 357
f 398 377 376
f 398 376 399
f 358 389 357
f 357 389 390
f 357 390 356
f 401 386 402
f 356 391 355
f 340 383 384
f 355 392 354
f 354 392 393
f 339 385 338
f 338 385 386
f 338 386 337
f 395 392 391
f 337 387 336
f 401 387 386
f 336 388 358
f 358 388 389
f 411 364 404
f 404 364 363
f 404 363 362
f 356 390 391
f 341 383 340
f 406 382 381
f 340 384 339
f 339 384 385
f 347 377 346
f 346 377 378
f 346 378 345
f 337 386 387
f 401 388 387
f 328 371 372
f 410 365 411
f 411 365 364
f 385 384 403
f 403 384 383
f 403 383 408
f 412 371 413
f 408 382 406
f 402 385 403
f 406 381 380
f 391 390 396
f 405 361 400
f 400 361 360
f 400 360 359
f 409 388 401
f 407 380 379
f 410 272 267
f 397 379 378
f 397 378 377
f 416 254 414
f 414 254 256
f 414 256 413
f 408 383 382
f 402 386 385
f 400 225 243
f 404 362 405
f 405 362 361
f 354 393 353
f 353 393 359
f 394 392 395
f 406 380 407
f 411 272 410
f 336 387 388
f 410 267 416
f 416 267 254
f 416 367 410
f 410 367 366
f 413 256 258
f 394 225 400
f 413 370 414
f 400 243 405
f 405 243 245
f 405 245 404
f 415 374 373
f 415 373 412
f 411 270 272
f 412 372 371
f 396 233 235
f 414 369 368
f 414 368 416
f 416 368 367
f 395 226 394
f 394 226 225
f 410 366 365
f 413 371 370
f 403 246 228
f 376 375 399
f 399 375 374
f 399 374 415
f 396 390 389
f 396 389 409
f 409 389 388
f 412 373 372
f 409 233 396
f 407 379 397
f 396 235 395
f 395 235 226
f 244 275 245
f 245 275 276
f 245 276 270
f 244 288 275
f 270 277 271
f 264 265 259
f 280 279 281
f 280 281 262
f 267 268 254
f 254 268 269
f 254 269 255
f 258 283 284
f 272 271 273
f 285 301 279
f 267 273 274
f 267 274 268
f 281 302 303
f 281 303 282
f 282 303 304
f 270 276 277
f 264 263 265
f 255 297 257
f 259 265 266
f 259 266 260
f 249 250 251
f 251 250 252
f 251 252 246
f 270 271 272
f 285 300 301
f 232 239 233
f 279 301 302
f 279 302 281
f 607 565 604
f 549 511 550
f 550 511 510
f 529 508 507
f 520 492 491
f 528 509 508
f 545 551 544
f 544 551 552
f 532 576 531
f 531 576 577
f 531 577 530
f 545 585 551
f 541 554 555
f 529 578 579
f 529 579 528
f 528 579 580
f 536 572 535
f 522 562 521
f 521 563 520
f 525 559 524
f 525 558 559
f 526 558 525
f 544 552 543
f 518 565 566
f 527 557 526
f 527 556 557
f 540 556 527
f 520 563 564
f 549 512 511
f 521 562 563
f 543 552 553
f 543 553 542
f 522 561 562
f 542 554 541
f 524 559 560
f 541 555 540
f 540 555 556
f 461 487 488
f 524 488 487
f 524 487 525
f 525 487 486
f 525 486 526
f 518 494 493
f 518 493 519
f 519 493 492
f 473 495 474
f 533 504 503
f 520 491 521
f 521 491 490
f 521 490 522
f 545 478 515
f 545 515 546
f 546 515 514
f 542 553 554
f 530 578 529
f 523 489 488
f 522 489 523
f 522 490 489
f 531 506 505
f 530 506 531
f 530 507 506
f 529 507 530
f 537 500 499
f 528 508 529
f 526 485 527
f 526 486 485
f 535 502 501
f 534 502 535
f 534 503 502
f 597 437 596
f 527 484 483
f 538 569 570
f 523 561 522
f 523 560 561
f 524 560 523
f 539 498 497
f 538 498 539
f 538 499 498
f 445 503 504
f 432 511 426
f 536 500 537
f 536 501 500
f 535 501 536
f 540 482 541
f 540 483 482
f 527 483 540
f 592 552 551
f 546 514 547
f 516 496 495
f 516 497 496
f 539 497 516
f 544 478 545
f 544 479 478
f 543 479 544
f 543 480 479
f 550 510 528
f 542 481 480
f 541 481 542
f 541 482 481
f 548 512 549
f 548 513 512
f 547 513 548
f 603 556 596
f 593 579 578
f 593 580 579
f 601 580 593
f 601 581 580
f 607 566 565
f 588 582 581
f 583 582 588
f 598 573 572
f 605 562 606
f 605 563 562
f 604 563 605
f 596 555 554
f 608 559 602
f 589 571 570
f 603 557 556
f 602 557 603
f 562 561 606
f 604 564 563
f 604 565 564
f 596 462 603
f 596 437 462
f 591 566 607
f 591 567 566
f 568 567 591
f 547 583 584
f 548 583 547
f 590 454 456
f 597 435 437
f 592 435 597
f 604 450 470
f 605 450 604
f 605 448 450
f 606 448 605
f 598 441 443
f 608 446 606
f 608 459 446
f 602 459 608
f 589 456 451
f 590 456 589
f 548 582 583
f 591 472 454
f 593 422 424
f 607 472 591
f 607 470 472
f 604 470 607
f 598 574 573
f 600 574 598
f 600 575 574
f 518 566 517
f 534 573 574
f 577 576 595
f 589 570 569
f 537 571 536
f 597 553 592
f 597 554 553
f 596 554 597
f 516 567 568
f 517 567 516
f 517 566 567
f 537 499 538
f 542 480 543
f 519 565 518
f 519 564 565
f 520 564 519
f 536 571 572
f 588 581 601
f 537 570 571
f 538 570 537
f 530 577 578
f 539 569 538
f 539 568 569
f 516 568 539
f 532 575 576
f 533 575 532
f 533 574 575
f 534 574 533
f 549 581 582
f 535 573 534
f 547 584 546
f 528 510 509
f 526 557 558
f 550 581 549
f 550 580 581
f 528 580 550
f 589 569 590
f 587 583 588
f 587 584 583
f 586 584 587
f 592 553 552
f 546 585 545
f 546 584 585
f 535 572 573
f 594 577 595
f 594 578 577
f 593 578 594
f 586 585 584
f 595 576 575
f 592 551 586
f 590 568 591
f 590 569 568
f 599 571 589
f 599 572 571
f 598 572 599
f 591 454 590
f 462 463 464
f 420 439 440
f 456 457 451
f 456 455 457
f 454 455 456
f 441 453 442
f 437 467 468
f 451 452 441
f 448 449 450
f 448 447 449
f 464 465 459
f 464 463 465
f 420 440 421
f 452 499 500
f 454 474 455
f 459 460 446
f 451 458 452
f 451 457 458
f 418 428 429
f 422 423 424
f 422 421 423
f 420 421 422
f 417 418 419
f 435 436 437
f 470 477 471
f 465 485 466
f 465 484 485
f 463 484 465
f 433 515 478
f 475 491 476
f 469 482 483
f 468 482 469
f 468 481 482
f 438 439 420
f 417 433 434
f 435 434 436
f 419 433 417
f 425 432 426
f 425 431 432
f 446 447 448
f 438 445 439
f 438 444 445
f 443 444 438
f 446 460 461
f 441 442 443
f 588 425 427
f 592 417 435
f 588 427 587
f 587 427 418
f 587 418 586
f 595 420 594
f 594 420 422
f 594 422 593
f 593 424 601
f 601 424 425
f 601 425 588
f 586 417 592
f 589 451 599
f 599 451 441
f 599 441 598
f 596 556 555
f 595 575 600
f 600 443 438
f 600 438 595
f 595 438 420
f 602 559 558
f 606 446 448
f 603 462 464
f 424 431 425
f 424 430 431
f 423 430 424
f 463 483 484
f 443 442 444
f 427 428 418
f 427 426 428
f 425 426 427
f 446 461 447
f 418 429 419
f 532 504 533
f 603 464 602
f 602 464 459
f 606 561 560
f 606 560 608
f 608 560 559
f 586 418 417
f 598 443 600
f 586 551 585
f 549 582 548
f 602 558 557
f 419 514 515
f 426 511 512
f 519 492 520
f 432 510 511
f 431 510 432
f 431 509 510
f 517 494 518
f 517 495 494
f 516 495 517
f 547 514 513
f 523 488 524
f 426 512 428
f 429 514 419
f 429 513 514
f 447 489 449
f 447 488 489
f 461 488 447
f 417 434 435
f 441 452 453
f 460 486 487
f 466 486 460
f 466 485 486
f 442 501 502
f 485 484 527
f 532 505 504
f 531 505 532
f 439 505 440
f 439 504 505
f 445 504 439
f 437 468 462
f 434 479 436
f 444 502 503
f 442 502 444
f 434 478 479
f 430 509 431
f 430 508 509
f 423 508 430
f 423 507 508
f 419 515 433
f 421 506 507
f 440 506 421
f 440 505 506
f 428 513 429
f 428 512 513
f 433 478 434
f 477 493 471
f 436 479 480
f 436 480 467
f 467 480 481
f 467 481 468
f 472 471 473
f 470 471 472
f 462 469 463
f 462 468 469
f 472 473 454
f 457 497 498
f 460 487 461
f 454 473 474
f 469 483 463
f 436 467 437
f 459 466 460
f 459 465 466
f 449 475 450
f 470 476 477
f 450 476 470
f 450 475 476
f 473 494 495
f 477 492 493
f 476 492 477
f 476 491 492
f 458 499 452
f 475 490 491
f 449 490 475
f 449 489 490
f 455 497 457
f 455 496 497
f 474 496 455
f 474 495 496
f 444 503 445
f 457 498 458
f 471 494 473
f 471 493 494
f 453 501 442
f 453 500 501
f 452 500 453
f 533 503 534
f 421 507 423
f 458 498 499
f 713 755 712
f 735 744 745
f 713 754 755
f 712 755 756
f 732 748 719
f 719 748 749
f 719 749 718
f 710 757 758
f 718 750 717
f 717 750 751
f 717 751 716
f 716 751 752
f 736 744 735
f 615 700 622
f 637 695 696
f 719 676 675
f 719 675 732
f 732 675 674
f 732 674 733
f 727 693 728
f 728 693 692
f 728 692 729
f 624 703 618
f 784 744 743
f 730 691 690
f 730 690 731
f 731 690 689
f 716 752 715
f 715 752 753
f 715 753 714
f 730 761 762
f 714 754 713
f 725 696 695
f 715 681 680
f 714 681 715
f 714 682 681
f 723 698 697
f 722 698 723
f 722 699 698
f 721 699 722
f 729 692 691
f 720 700 721
f 718 677 719
f 718 678 677
f 727 694 693
f 726 694 727
f 726 695 694
f 716 680 679
f 677 676 719
f 724 696 725
f 724 697 696
f 723 697 724
f 631 697 632
f 631 696 697
f 637 696 631
f 629 660 654
f 626 671 628
f 636 694 695
f 634 694 636
f 634 693 694
f 622 701 623
f 622 700 701
f 740 774 775
f 734 745 746
f 708 688 687
f 708 689 688
f 731 689 708
f 736 670 737
f 736 671 670
f 735 671 736
f 735 672 671
f 742 702 720
f 734 673 672
f 733 673 734
f 733 674 673
f 740 704 741
f 740 705 704
f 739 705 740
f 722 770 721
f 738 706 739
f 738 707 706
f 737 707 738
f 737 670 707
f 713 682 714
f 713 683 682
f 712 683 713
f 653 679 680
f 665 687 666
f 711 685 684
f 710 685 711
f 710 686 685
f 717 678 718
f 717 679 678
f 716 679 717
f 782 648 781
f 718 749 750
f 742 773 741
f 742 772 773
f 779 610 778
f 797 642 796
f 797 640 642
f 787 767 792
f 798 640 797
f 790 633 635
f 800 638 798
f 800 651 638
f 794 651 800
f 720 702 701
f 782 646 648
f 793 773 772
f 785 614 616
f 799 664 783
f 799 662 664
f 796 662 799
f 796 642 662
f 798 753 752
f 754 753 798
f 796 756 755
f 788 748 747
f 783 758 799
f 781 648 643
f 792 635 630
f 788 747 746
f 800 751 794
f 795 748 788
f 795 749 748
f 794 749 795
f 785 771 770
f 785 772 771
f 793 772 785
f 788 629 654
f 791 633 790
f 783 759 758
f 760 759 783
f 797 754 798
f 797 755 754
f 796 755 797
f 741 774 740
f 778 743 777
f 800 752 751
f 794 656 651
f 795 656 794
f 795 654 656
f 737 743 736
f 727 765 726
f 727 764 765
f 728 764 727
f 720 771 772
f 721 771 720
f 721 770 771
f 799 757 796
f 737 777 743
f 723 769 722
f 723 768 769
f 724 768 723
f 736 743 744
f 741 773 774
f 720 701 700
f 712 684 683
f 721 700 699
f 742 703 702
f 741 703 742
f 741 704 703
f 732 747 748
f 733 747 732
f 733 746 747
f 734 746 733
f 714 753 754
f 728 763 764
f 791 643 633
f 781 643 791
f 796 757 756
f 708 759 760
f 709 759 708
f 709 758 759
f 729 691 730
f 734 672 735
f 711 757 710
f 711 756 757
f 712 756 711
f 735 745 734
f 729 763 728
f 729 762 763
f 730 762 729
f 722 769 770
f 731 761 730
f 731 760 761
f 708 760 731
f 724 767 768
f 725 767 724
f 725 766 767
f 726 766 725
f 790 765 764
f 615 622 616
f 655 675 676
f 635 634 636
f 619 620 610
f 619 618 620
f 617 618 619
f 638 653 639
f 610 621 611
f 799 758 757
f 780 774 773
f 775 774 780
f 616 622 623
f 790 766 765
f 792 766 790
f 792 767 766
f 798 752 800
f 779 619 610
f 780 619 779
f 780 617 619
f 793 617 780
f 793 616 617
f 794 751 750
f 798 638 640
f 644 691 692
f 648 649 643
f 648 647 649
f 646 647 648
f 633 645 634
f 629 659 660
f 643 644 633
f 640 641 642
f 640 639 641
f 656 657 651
f 656 655 657
f 654 655 656
f 788 654 795
f 646 666 647
f 651 652 638
f 643 650 644
f 643 649 650
f 610 620 621
f 614 615 616
f 614 613 615
f 612 613 614
f 609 610 611
f 609 625 626
f 616 623 617
f 789 746 745
f 778 777 776
f 787 768 767
f 784 743 778
f 782 760 783
f 782 761 760
f 781 761 782
f 779 775 780
f 779 776 775
f 783 646 782
f 780 773 793
f 789 745 784
f 720 772 742
f 788 746 789
f 786 769 787
f 786 770 769
f 785 770 786
f 710 758 709
f 726 765 766
f 769 768 787
f 781 762 761
f 781 763 762
f 791 763 781
f 791 764 763
f 786 612 614
f 783 664 646
f 789 629 788
f 789 627 629
f 784 627 789
f 784 609 627
f 778 609 784
f 794 750 749
f 790 635 792
f 778 610 609
f 785 616 793
f 786 614 785
f 612 631 632
f 787 612 786
f 787 630 612
f 792 630 787
f 790 764 791
f 778 776 779
f 784 745 744
f 738 777 737
f 738 776 777
f 739 776 738
f 739 775 776
f 740 775 739
f 641 681 682
f 633 644 645
f 652 678 679
f 658 678 652
f 658 677 678
f 669 685 663
f 669 684 685
f 668 684 669
f 668 683 684
f 650 691 644
f 667 682 683
f 641 682 667
f 609 626 627
f 647 689 649
f 647 688 689
f 666 688 647
f 666 687 688
f 636 695 637
f 665 686 687
f 663 686 665
f 663 685 686
f 645 693 634
f 645 692 693
f 644 692 645
f 623 701 702
f 611 707 625
f 613 698 699
f 632 698 613
f 632 697 698
f 620 705 621
f 620 704 705
f 618 704 620
f 618 703 704
f 711 684 712
f 624 702 703
f 623 702 624
f 725 695 726
f 709 686 710
f 709 687 686
f 708 687 709
f 739 706 705
f 715 680 716
f 611 706 707
f 621 706 611
f 621 705 706
f 639 681 641
f 639 680 681
f 653 680 639
f 627 628 629
f 625 670 626
f 662 669 663
f 657 677 658
f 657 676 677
f 655 676 657
f 625 707 670
f 667 683 668
f 661 674 675
f 660 674 661
f 660 673 674
f 630 631 612
f 626 670 671
f 627 626 628
f 611 625 609
f 617 624 618
f 617 623 624
f 638 639 640
f 630 637 631
f 630 636 637
f 635 636 630
f 638 652 653
f 633 634 635
f 612 632 613
f 642 668 662
f 613 699 615
f 650 690 691
f 649 690 650
f 649 689 690
f 662 663 664
f 654 661 655
f 654 660 661
f 628 659 629
f 651 658 652
f 651 657 658
f 662 668 669
f 615 699 700
f 642 667 668
f 641 667 642
f 661 675 655
f 646 665 666
f 664 665 646
f 664 663 665
f 659 673 660
f 659 672 673
f 628 672 659
f 628 671 672
f 652 679 653
f 991 950 949
f 985 965 964
f 985 808 809
f 985 809 972
f 972 809 811
f 972 811 971
f 971 811 802
f 971 802 970
f 980 940 939
f 979 959 984
f 984 959 958
f 984 958 982
f 982 958 957
f 982 957 956
f 967 966 972
f 972 966 965
f 991 856 975
f 977 806 808
f 974 838 840
f 974 840 973
f 973 840 835
f 973 835 983
f 983 835 825
f 983 825 982
f 992 830 990
f 982 825 827
f 990 832 989
f 989 832 834
f 989 834 988
f 988 834 854
f 988 854 991
f 991 854 856
f 990 830 832
f 986 943 942
f 986 942 941
f 970 801 976
f 976 801 819
f 976 819 981
f 981 819 821
f 981 821 980
f 982 827 984
f 984 827 822
f 984 822 979
f 979 822 804
f 979 804 978
f 978 804 806
f 978 806 977
f 977 808 985
f 811 810 812
f 811 812 802
f 827 826 828
f 847 867 868
f 807 814 808
f 808 814 815
f 808 815 809
f 970 802 801
f 802 813 803
f 830 845 831
f 801 817 818
f 801 802 803
f 804 805 806
f 806 805 807
f 806 807 808
f 809 810 811
f 804 824 805
f 825 826 827
f 830 844 845
f 827 828 822
f 860 876 861
f 861 876 877
f 861 877 855
f 855 877 878
f 850 870 844
f 844 870 871
f 825 836 837
f 801 818 819
f 819 818 820
f 819 820 821
f 822 823 804
f 804 823 824
f 852 866 853
f 853 866 867
f 859 875 860
f 817 899 862
f 847 868 849
f 849 868 869
f 849 869 850
f 850 869 870
f 817 862 818
f 818 862 863
f 844 871 845
f 820 863 864
f 820 864 851
f 851 864 865
f 851 865 852
f 852 865 866
f 856 857 838
f 838 857 858
f 853 867 847
f 833 859 834
f 807 892 814
f 814 892 893
f 814 893 815
f 815 893 894
f 826 886 828
f 828 886 887
f 818 863 820
f 821 852 846
f 846 852 853
f 846 853 847
f 854 855 856
f 856 855 857
f 841 882 842
f 842 882 883
f 805 891 807
f 917 887 918
f 836 884 837
f 837 884 885
f 837 885 826
f 826 885 886
f 855 878 857
f 857 878 879
f 828 887 829
f 858 879 880
f 858 880 839
f 839 880 881
f 839 881 841
f 841 881 882
f 833 874 859
f 859 874 875
f 842 883 836
f 860 875 876
f 908 871 909
f 909 871 870
f 909 870 910
f 910 870 869
f 902 877 903
f 903 877 876
f 857 879 858
f 845 871 872
f 845 872 831
f 831 872 873
f 831 873 833
f 833 873 874
f 813 898 803
f 803 898 899
f 907 872 908
f 931 898 897
f 900 879 901
f 901 879 878
f 901 878 902
f 902 878 877
f 815 894 816
f 816 894 895
f 903 876 904
f 810 895 896
f 810 896 812
f 812 896 897
f 812 897 813
f 813 897 898
f 824 890 805
f 805 890 891
f 803 899 817
f 807 891 892
f 911 867 924
f 924 867 866
f 924 866 925
f 925 866 865
f 920 885 884
f 920 884 921
f 816 895 810
f 829 887 888
f 829 888 823
f 823 888 889
f 823 889 824
f 824 889 890
f 916 889 888
f 916 888 917
f 869 868 911
f 906 946 905
f 918 887 886
f 918 886 919
f 919 886 885
f 919 885 920
f 910 869 911
f 912 892 913
f 921 884 883
f 913 891 914
f 914 891 890
f 914 890 915
f 915 890 889
f 915 889 916
f 906 873 907
f 907 873 872
f 917 888 887
f 908 872 871
f 925 938 939
f 925 939 924
f 924 939 940
f 924 940 911
f 933 895 934
f 934 895 894
f 913 892 891
f 904 876 875
f 904 875 905
f 905 875 874
f 905 874 906
f 906 874 873
f 929 899 930
f 930 899 898
f 926 937 938
f 914 962 913
f 931 897 932
f 932 897 896
f 932 896 933
f 933 896 895
f 925 865 926
f 926 865 864
f 934 894 912
f 927 864 863
f 927 863 928
f 928 863 862
f 928 862 929
f 929 862 899
f 900 881 880
f 900 880 879
f 930 898 931
f 911 868 867
f 921 954 955
f 921 955 920
f 920 955 956
f 920 956 919
f 903 948 949
f 903 949 902
f 926 864 927
f 921 883 922
f 922 883 882
f 922 882 923
f 923 882 881
f 923 881 900
f 907 944 945
f 907 945 906
f 922 953 954
f 976 936 935
f 905 946 947
f 905 947 904
f 904 947 948
f 904 948 903
f 911 940 941
f 911 941 910
f 902 949 950
f 910 942 909
f 909 942 943
f 909 943 908
f 908 943 944
f 908 944 907
f 927 936 937
f 927 937 926
f 906 945 946
f 926 938 925
f 971 968 967
f 971 967 972
f 973 953 974
f 974 953 952
f 934 964 965
f 934 965 933
f 910 941 942
f 912 894 893
f 912 893 892
f 929 935 928
f 928 935 936
f 928 936 927
f 915 960 961
f 915 961 914
f 929 969 935
f 991 949 988
f 913 962 963
f 913 963 912
f 912 963 964
f 912 964 934
f 919 956 957
f 919 957 918
f 933 965 966
f 918 958 917
f 917 958 959
f 917 959 916
f 916 959 960
f 916 960 915
f 923 952 953
f 923 953 922
f 914 961 962
f 922 954 921
f 985 964 977
f 977 964 963
f 977 963 962
f 986 941 987
f 973 954 953
f 961 960 979
f 918 957 958
f 902 950 901
f 901 950 951
f 901 951 900
f 900 951 952
f 900 952 923
f 981 938 937
f 981 937 976
f 972 965 985
f 975 838 974
f 982 956 983
f 983 956 955
f 983 955 973
f 973 955 954
f 974 952 975
f 976 935 970
f 979 960 959
f 970 969 968
f 977 962 978
f 978 962 961
f 978 961 979
f 980 938 981
f 930 969 929
f 976 937 936
f 970 968 971
f 987 846 848
f 987 848 986
f 986 848 843
f 986 843 992
f 992 843 830
f 992 944 943
f 970 935 969
f 933 966 932
f 932 966 967
f 932 967 931
f 931 967 968
f 931 968 930
f 930 968 969
f 975 951 950
f 975 950 991
f 980 821 846
f 988 949 948
f 988 948 947
f 946 945 990
f 990 945 944
f 990 944 992
f 987 941 940
f 987 940 980
f 992 943 986
f 980 939 938
f 988 947 989
f 989 947 946
f 989 946 990
f 952 951 975
f 843 849 850
f 843 850 844
f 820 851 821
f 802 812 813
f 834 859 860
f 834 860 854
f 854 860 861
f 854 861 855
f 835 841 842
f 835 842 836
f 843 844 830
f 838 858 839
f 836 883 884
f 846 847 848
f 848 847 849
f 848 849 843
f 832 831 833
f 832 833 834
f 835 836 825
f 821 851 852
f 825 837 826
f 838 839 840
f 840 839 841
f 840 841 835
f 975 856 838
f 980 846 987
f 809 815 816
f 809 816 810
f 803 817 801
f 822 828 829
f 822 829 823
f 830 831 832
f 1062 1121 1122
f 1091 1042 1058
f 1091 1058 1092
f 1092 1058 1057
f 1092 1057 1093
f 1093 1057 1055
f 1093 1055 1094
f 1119 1019 1017
f 1119 1017 1120
f 1120 1017 1031
f 1120 1031 1121
f 1121 1031 1030
f 1121 1030 1122
f 1122 1030 1028
f 1122 1028 1123
f 1123 1028 1026
f 1111 1032 1007
f 1124 1026 1024
f 1124 1024 1114
f 1114 1024 1040
f 1114 1040 1115
f 1115 1040 1039
f 1115 1039 1116
f 1116 1039 1037
f 1077 1107 1108
f 1081 1099 1082
f 1082 1099 1100
f 1082 1100 1091
f 1071 1101 1072
f 1072 1101 1102
f 1072 1102 1073
f 1073 1102 1103
f 1102 1000 1103
f 1103 1000 998
f 1103 998 1104
f 1104 998 996
f 1104 996 1105
f 1105 996 994
f 1105 994 1106
f 1106 994 1015
f 1099 1044 1100
f 1107 1015 1014
f 1107 1014 1108
f 1108 1014 1012
f 1108 1012 1109
f 1109 1012 1010
f 1109 1010 1096
f 1096 1010 1049
f 1100 1042 1091
f 1094 1055 1053
f 1096 1049 1097
f 1097 1049 1048
f 1097 1048 1098
f 1098 1048 1046
f 1098 1046 1099
f 1099 1046 1044
f 1067 1117 1068
f 1095 1053 1051
f 1095 1051 1088
f 1088 1051 1050
f 1088 1050 1089
f 1089 1050 1021
f 1089 1021 1090
f 1090 1021 1019
f 1034 1035 1036
f 1020 1019 1021
f 1004 1070 1071
f 1004 1071 1001
f 1001 1071 1072
f 1001 1072 999
f 999 1072 1073
f 999 1073 997
f 1043 1042 1044
f 1029 1030 1016
f 1016 1030 1031
f 1016 1031 1017
f 1007 1032 1008
f 1008 1032 1033
f 1008 1033 1034
f 1034 1033 1035
f 1021 1050 1022
f 1011 1078 1009
f 1036 1037 1038
f 1038 1037 1039
f 1038 1039 1023
f 1023 1039 1040
f 1023 1040 1024
f 1041 1042 1043
f 999 1000 1001
f 1000 1002 1001
f 1022 1051 1052
f 1052 1051 1053
f 1052 1053 1054
f 1054 1053 1055
f 1054 1055 1056
f 1056 1055 1057
f 1029 1061 1062
f 1022 1050 1051
f 1022 1086 1087
f 1022 1087 1020
f 1020 1087 1059
f 1086 1088 1087
f 1087 1088 1089
f 1087 1089 1059
f 1038 1065 1066
f 1041 1057 1058
f 1041 1058 1042
f 1020 1059 1018
f 1018 1059 1060
f 1018 1060 1016
f 1016 1060 1061
f 1016 1061 1029
f 1006 1069 1070
f 1086 1094 1095
f 1027 1062 1063
f 1027 1063 1025
f 1025 1063 1064
f 1025 1064 1023
f 1023 1064 1065
f 1023 1065 1038
f 1029 1028 1030
f 1011 1012 1013
f 1013 1012 1014
f 1013 1014 993
f 993 1014 1015
f 993 1015 994
f 1016 1017 1018
f 1018 1017 1019
f 1011 1077 1078
f 1006 1070 1004
f 1074 1104 1075
f 1104 1105 1075
f 1075 1105 1106
f 1075 1106 1076
f 1076 1106 1107
f 1076 1107 1077
f 1043 1081 1082
f 997 1074 995
f 995 1074 1075
f 995 1075 993
f 993 1075 1076
f 993 1076 1013
f 1013 1076 1077
f 1013 1077 1011
f 1052 1085 1086
f 1071 1112 1113
f 1009 1078 1079
f 1009 1079 1047
f 1047 1079 1080
f 1047 1080 1045
f 1045 1080 1081
f 1045 1081 1043
f 1056 1057 1041
f 1043 1044 1045
f 1045 1044 1046
f 1045 1046 1047
f 1047 1046 1048
f 1047 1048 1009
f 1009 1048 1049
f 1009 1049 1010
f 1085 1094 1086
f 1052 1086 1022
f 1062 1122 1063
f 1063 1122 1123
f 1063 1123 1064
f 1064 1123 1124
f 1064 1124 1114
f 1090 1019 1119
f 1081 1098 1099
f 1059 1090 1060
f 1082 1091 1083
f 1083 1091 1092
f 1083 1092 1084
f 1084 1092 1093
f 1084 1093 1085
f 1085 1093 1094
f 1073 1103 1074
f 1123 1026 1124
f 1086 1095 1088
f 1078 1096 1079
f 1079 1096 1097
f 1079 1097 1080
f 1080 1097 1098
f 1080 1098 1081
f 997 1073 1074
f 1038 1066 1036
f 1036 1066 1067
f 1036 1067 1034
f 1034 1067 1068
f 1034 1068 1008
f 1008 1068 1069
f 1008 1069 1006
f 1070 1112 1071
f 1074 1103 1104
f 1112 1007 1005
f 1112 1005 1113
f 1113 1005 1003
f 1113 1003 1101
f 1101 1003 1002
f 1101 1002 1102
f 1067 1116 1117
f 1077 1108 1078
f 1078 1108 1109
f 1078 1109 1096
f 1068 1110 1069
f 1069 1110 1111
f 1069 1111 1070
f 1070 1111 1112
f 1061 1121 1062
f 1106 1015 1107
f 1071 1113 1101
f 1064 1114 1065
f 1065 1114 1115
f 1065 1115 1066
f 1066 1115 1116
f 1066 1116 1067
f 1059 1089 1090
f 1043 1082 1041
f 1041 1082 1083
f 1041 1083 1056
f 1056 1083 1084
f 1056 1084 1054
f 1054 1084 1085
f 1054 1085 1052
f 1009 1010 1011
f 1011 1010 1012
f 993 994 995
f 995 994 996
f 995 996 997
f 997 996 998
f 997 998 999
f 999 998 1000
f 1027 1028 1029
f 1018 1019 1020
f 1029 1062 1027
f 1001 1003 1004
f 1004 1003 1005
f 1004 1005 1006
f 1006 1005 1007
f 1006 1007 1008
f 1110 1032 1111
f 1036 1035 1037
f 1001 1002 1003
f 1020 1021 1022
f 1023 1024 1025
f 1025 1024 1026
f 1025 1026 1027
f 1027 1026 1028
f 1111 1007 1112
f 1102 1002 1000
f 1116 1037 1117
f 1117 1037 1035
f 1117 1035 1118
f 1118 1035 1033
f 1118 1033 1110
f 1110 1033 1032
f 1068 1117 1118
f 1068 1118 1110
f 1090 1119 1060
f 1060 1119 1120
f 1060 1120 1061
f 1061 1120 1121
f 1100 1044 1042
f 1094 1053 1095
f 1231 1178 1176
f 1231 1176 1232
f 1222 1153 1151
f 1232 1174 1223
f 1223 1174 1190
f 1223 1190 1224
f 1224 1190 1189
f 1224 1189 1225
f 1225 1189 1187
f 1225 1187 1226
f 1227 1185 1183
f 1227 1183 1220
f 1220 1183 1182
f 1220 1182 1221
f 1221 1182 1153
f 1221 1153 1222
f 1206 1235 1236
f 1206 1236 1207
f 1236 1237 1207
f 1207 1237 1238
f 1207 1238 1208
f 1208 1238 1239
f 1208 1239 1209
f 1243 1164 1139
f 1234 1132 1235
f 1210 1240 1241
f 1210 1241 1228
f 1200 1242 1201
f 1201 1242 1243
f 1201 1243 1202
f 1202 1243 1244
f 1202 1244 1203
f 1255 1160 1158
f 1194 1253 1254
f 1194 1254 1195
f 1195 1254 1255
f 1195 1255 1196
f 1196 1255 1256
f 1196 1256 1246
f 1222 1151 1251
f 1248 1171 1169
f 1226 1185 1227
f 1252 1149 1163
f 1252 1163 1253
f 1253 1163 1162
f 1253 1162 1254
f 1254 1162 1160
f 1254 1160 1255
f 1205 1235 1206
f 1218 1226 1227
f 1218 1227 1220
f 1210 1228 1211
f 1211 1228 1229
f 1211 1229 1212
f 1212 1229 1230
f 1212 1230 1213
f 1243 1139 1244
f 1213 1231 1214
f 1249 1169 1167
f 1249 1167 1250
f 1250 1167 1165
f 1250 1165 1242
f 1242 1165 1164
f 1242 1164 1243
f 1125 1126 1127
f 1143 1142 1144
f 1145 1144 1146
f 1145 1146 1125
f 1125 1146 1147
f 1125 1147 1126
f 1148 1149 1150
f 1150 1149 1151
f 1161 1162 1148
f 1175 1174 1176
f 1177 1176 1178
f 1177 1178 1179
f 1179 1178 1180
f 1179 1180 1141
f 1141 1180 1181
f 1141 1181 1142
f 1173 1189 1190
f 1127 1126 1128
f 1127 1128 1129
f 1129 1128 1130
f 1129 1130 1131
f 1131 1130 1132
f 1131 1132 1133
f 1132 1134 1133
f 1133 1134 1135
f 1133 1135 1136
f 1136 1135 1137
f 1136 1137 1138
f 1138 1137 1139
f 1138 1139 1140
f 1141 1142 1143
f 1170 1197 1198
f 1143 1144 1145
f 1168 1198 1199
f 1168 1199 1166
f 1166 1199 1200
f 1166 1200 1140
f 1140 1200 1201
f 1140 1201 1138
f 1150 1151 1152
f 1152 1151 1153
f 1152 1153 1154
f 1155 1156 1157
f 1157 1156 1158
f 1157 1158 1159
f 1159 1158 1160
f 1159 1160 1161
f 1161 1160 1162
f 1129 1206 1127
f 1148 1162 1163
f 1148 1163 1149
f 1139 1164 1140
f 1140 1164 1165
f 1140 1165 1166
f 1166 1165 1167
f 1166 1167 1168
f 1168 1167 1169
f 1168 1169 1170
f 1170 1169 1171
f 1170 1171 1155
f 1155 1171 1172
f 1155 1172 1156
f 1173 1174 1175
f 1175 1213 1214
f 1175 1176 1177
f 1173 1214 1215
f 1173 1215 1188
f 1188 1215 1216
f 1188 1216 1186
f 1186 1216 1217
f 1186 1217 1184
f 1153 1182 1154
f 1154 1182 1183
f 1154 1183 1184
f 1184 1183 1185
f 1184 1185 1186
f 1186 1185 1187
f 1186 1187 1188
f 1188 1187 1189
f 1188 1189 1173
f 1191 1222 1192
f 1173 1190 1174
f 1152 1191 1150
f 1150 1191 1192
f 1150 1192 1148
f 1148 1192 1193
f 1148 1193 1161
f 1161 1193 1194
f 1161 1194 1159
f 1159 1194 1195
f 1159 1195 1157
f 1157 1195 1196
f 1157 1196 1155
f 1155 1196 1197
f 1155 1197 1170
f 1213 1230 1231
f 1170 1198 1168
f 1214 1231 1232
f 1214 1232 1223
f 1203 1233 1204
f 1204 1233 1234
f 1204 1234 1205
f 1205 1234 1235
f 1138 1201 1202
f 1138 1202 1136
f 1136 1202 1203
f 1136 1203 1133
f 1133 1203 1204
f 1133 1204 1131
f 1131 1204 1205
f 1131 1205 1129
f 1129 1205 1206
f 1209 1240 1210
f 1127 1206 1207
f 1127 1207 1125
f 1125 1207 1208
f 1125 1208 1145
f 1145 1208 1209
f 1145 1209 1143
f 1143 1209 1210
f 1143 1210 1141
f 1141 1210 1211
f 1141 1211 1179
f 1179 1211 1212
f 1179 1212 1177
f 1177 1212 1213
f 1177 1213 1175
f 1199 1248 1249
f 1175 1214 1173
f 1200 1249 1250
f 1200 1250 1242
f 1222 1251 1192
f 1192 1251 1252
f 1192 1252 1193
f 1193 1252 1253
f 1184 1217 1218
f 1184 1218 1154
f 1154 1218 1219
f 1154 1219 1152
f 1152 1219 1191
f 1218 1220 1219
f 1219 1220 1221
f 1219 1221 1191
f 1191 1221 1222
f 1251 1149 1252
f 1214 1223 1215
f 1215 1223 1224
f 1215 1224 1216
f 1216 1224 1225
f 1216 1225 1217
f 1217 1225 1226
f 1217 1226 1218
f 1238 1126 1147
f 1239 1147 1146
f 1239 1146 1240
f 1240 1146 1144
f 1240 1144 1241
f 1241 1144 1142
f 1241 1142 1228
f 1226 1187 1185
f 1228 1181 1229
f 1255 1158 1256
f 1256 1158 1156
f 1256 1156 1246
f 1246 1156 1172
f 1246 1172 1247
f 1247 1172 1171
f 1247 1171 1248
f 1234 1134 1132
f 1248 1169 1249
f 1232 1176 1174
f 1203 1244 1245
f 1203 1245 1233
f 1196 1246 1197
f 1197 1246 1247
f 1197 1247 1198
f 1198 1247 1248
f 1198 1248 1199
f 1251 1151 1149
f 1199 1249 1200
f 1229 1181 1180
f 1229 1180 1230
f 1230 1180 1178
f 1230 1178 1231
f 1244 1139 1137
f 1244 1137 1245
f 1245 1137 1135
f 1245 1135 1233
f 1233 1135 1134
f 1233 1134 1234
f 1228 1142 1181
f 1235 1132 1130
f 1235 1130 1236
f 1236 1130 1128
f 1236 1128 1237
f 1237 1128 1126
f 1237 1126 1238
f 1193 1253 1194
f 1238 1147 1239
f 1209 1239 1240

