# https://github.com/mikedh/trimesh
v -0.02389097 0.02029434 0.02130000
v -0.02355397 0.02034244 0.02130000
v -0.02394783 0.02261981 0.02130000
v -0.02232498 0.01935310 0.02130000
v -0.02022636 0.02034645 0.02130000
v -0.02244063 0.01967327 0.02130000
v -0.02047805 0.02087599 0.02130000
v -0.02263838 0.01995036 0.02130000
v -0.02290356 0.02016383 0.02130000
v -0.02222075 0.02238521 0.02130000
v -0.02321649 0.02029783 0.02130000
v -0.02278081 0.02255868 0.02130000
v -0.02336179 0.02263759 0.02130000
v -0.02081348 0.02135688 0.02130000
v -0.02122348 0.02177600 0.02130000
v -0.02169687 0.02212192 0.02130000
v -0.02452296 0.02250581 0.02130000
v -0.02507147 0.02229870 0.02130000
v -0.02420250 0.02015710 0.02130000
v -0.02557842 0.02200413 0.02130000
v -0.02446545 0.01994091 0.02130000
v -0.02229999 0.01901361 0.02130000
v -0.01999913 0.01920013 0.02130000
v -0.02006525 0.01978271 0.02130000
v -0.02252257 0.01837690 0.02130000
v -0.02037556 0.01749832 0.02130000
v -0.02236752 0.01867996 0.02130000
v -0.02015643 0.01804215 0.02130000
v -0.02002981 0.01861462 0.02130000
v -0.02472314 0.01866777 0.02130000
v -0.02661695 0.01730892 0.02130000
v -0.02456497 0.01836633 0.02130000
v -0.02628152 0.01682803 0.02130000
v -0.02433133 0.01811875 0.02130000
v -0.02275363 0.01812691 0.02130000
v -0.02106504 0.01655477 0.02130000
v -0.02068120 0.01699798 0.02130000
v -0.02337089 0.01785500 0.02130000
v -0.02257205 0.01567910 0.02130000
v -0.02304357 0.01794853 0.02130000
v -0.02202353 0.01588621 0.02130000
v -0.02151658 0.01618078 0.02130000
v -0.02479413 0.01900070 0.02130000
v -0.02702975 0.01840220 0.02130000
v -0.02686864 0.01783846 0.02130000
v -0.02466032 0.01966179 0.02130000
v -0.02693857 0.02014276 0.02130000
v -0.02477266 0.01934044 0.02130000
v -0.02706520 0.01957029 0.02130000
v -0.02709587 0.01898478 0.02130000
v -0.02602996 0.02163015 0.02130000
v -0.02641380 0.02118693 0.02130000
v -0.02671945 0.02068659 0.02130000
v -0.02403956 0.01794338 0.02130000
v -0.02431419 0.01562623 0.02130000
v -0.02371130 0.01785323 0.02130000
v -0.02373321 0.01554732 0.02130000
v -0.02314717 0.01556510 0.02130000
v -0.02587152 0.01640891 0.02130000
v -0.02539813 0.01606299 0.02130000
v -0.02487426 0.01579970 0.02130000
v -0.02507147 0.02229870 0.02050000
v -0.02557842 0.02200413 0.02050000
v -0.02602996 0.02163015 0.02050000
v -0.02641380 0.02118693 0.02050000
v -0.02671945 0.02068659 0.02050000
v -0.02693857 0.02014276 0.02050000
v -0.02706520 0.01957029 0.02050000
v -0.02709587 0.01898478 0.02050000
v -0.02702975 0.01840220 0.02050000
v -0.02686864 0.01783846 0.02050000
v -0.02661695 0.01730892 0.02050000
v -0.02628152 0.01682803 0.02050000
v -0.02587152 0.01640891 0.02050000
v -0.02539813 0.01606299 0.02050000
v -0.02487426 0.01579970 0.02050000
v -0.02431419 0.01562623 0.02050000
v -0.02373321 0.01554732 0.02050000
v -0.02314717 0.01556510 0.02050000
v -0.02257205 0.01567910 0.02050000
v -0.02202353 0.01588621 0.02050000
v -0.02151658 0.01618078 0.02050000
v -0.02106504 0.01655477 0.02050000
v -0.02068120 0.01699798 0.02050000
v -0.02037556 0.01749832 0.02050000
v -0.02015643 0.01804215 0.02050000
v -0.02002981 0.01861462 0.02050000
v -0.01999913 0.01920013 0.02050000
v -0.02006525 0.01978271 0.02050000
v -0.02022636 0.02034645 0.02050000
v -0.02047805 0.02087599 0.02050000
v -0.02081348 0.02135688 0.02050000
v -0.02122348 0.02177600 0.02050000
v -0.02169687 0.02212192 0.02050000
v -0.02222075 0.02238521 0.02050000
v -0.02278081 0.02255868 0.02050000
v -0.02336179 0.02263759 0.02050000
v -0.02394783 0.02261981 0.02050000
v -0.02452296 0.02250581 0.02050000
v -0.02298506 0.01614565 0.02050000
v -0.02352027 0.01609258 0.02050000
v -0.02405635 0.01613593 0.02050000
v -0.02457609 0.01627430 0.02050000
v -0.02506276 0.01650325 0.02050000
v -0.02550073 0.01681542 0.02050000
v -0.02587592 0.01720077 0.02050000
v -0.02617627 0.01764693 0.02050000
v -0.02639214 0.01813954 0.02050000
v -0.02651657 0.01866279 0.02050000
v -0.02654558 0.01919984 0.02050000
v -0.02647822 0.01973344 0.02050000
v -0.02139802 0.02118524 0.02050000
v -0.02105889 0.02076780 0.02050000
v -0.02079973 0.02029652 0.02050000
v -0.02062890 0.01978654 0.02050000
v -0.02055187 0.01925425 0.02050000
v -0.02057112 0.01871676 0.02050000
v -0.02068603 0.01819134 0.02050000
v -0.02089292 0.01769489 0.02050000
v -0.02118512 0.01724335 0.02050000
v -0.02155326 0.01685125 0.02050000
v -0.02198549 0.01653118 0.02050000
v -0.02246792 0.01629343 0.02050000
v -0.02631667 0.02024644 0.02050000
v -0.02606612 0.02072235 0.02050000
v -0.02573461 0.02114587 0.02050000
v -0.02533281 0.02150340 0.02050000
v -0.02487363 0.02178344 0.02050000
v -0.02437183 0.02197698 0.02050000
v -0.02384353 0.02207781 0.02050000
v -0.02330572 0.02208270 0.02050000
v -0.02277567 0.02199147 0.02050000
v -0.02227044 0.02180707 0.02050000
v -0.02180625 0.02153541 0.02050000
v -0.02487363 0.02178344 0.01870000
v -0.02533281 0.02150340 0.01870000
v -0.02573461 0.02114587 0.01870000
v -0.02606612 0.02072235 0.01870000
v -0.02631667 0.02024644 0.01870000
v -0.02647822 0.01973344 0.01870000
v -0.02654558 0.01919984 0.01870000
v -0.02651657 0.01866279 0.01870000
v -0.02639214 0.01813954 0.01870000
v -0.02617627 0.01764693 0.01870000
v -0.02587592 0.01720077 0.01870000
v -0.02550073 0.01681542 0.01870000
v -0.02506276 0.01650325 0.01870000
v -0.02457609 0.01627430 0.01870000
v -0.02405635 0.01613593 0.01870000
v -0.02352027 0.01609258 0.01870000
v -0.02298506 0.01614565 0.01870000
v -0.02246792 0.01629343 0.01870000
v -0.02198549 0.01653118 0.01870000
v -0.02155326 0.01685125 0.01870000
v -0.02118512 0.01724335 0.01870000
v -0.02089292 0.01769489 0.01870000
v -0.02068603 0.01819134 0.01870000
v -0.02057112 0.01871676 0.01870000
v -0.02055187 0.01925425 0.01870000
v -0.02062890 0.01978654 0.01870000
v -0.02079973 0.02029652 0.01870000
v -0.02105889 0.02076780 0.01870000
v -0.02139802 0.02118524 0.01870000
v -0.02180625 0.02153541 0.01870000
v -0.02227044 0.02180707 0.01870000
v -0.02277567 0.02199147 0.01870000
v -0.02330572 0.02208270 0.01870000
v -0.02384353 0.02207781 0.01870000
v -0.02437183 0.02197698 0.01870000
v -0.02389097 0.02029434 0.01870000
v -0.02355397 0.02034244 0.01870000
v -0.02321649 0.02029783 0.01870000
v -0.02275363 0.01812691 0.01870000
v -0.02304357 0.01794853 0.01870000
v -0.02337089 0.01785500 0.01870000
v -0.02420250 0.02015710 0.01870000
v -0.02263838 0.01995036 0.01870000
v -0.02244063 0.01967327 0.01870000
v -0.02232498 0.01935310 0.01870000
v -0.02466032 0.01966179 0.01870000
v -0.02446545 0.01994091 0.01870000
v -0.02236752 0.01867996 0.01870000
v -0.02252257 0.01837690 0.01870000
v -0.02229999 0.01901361 0.01870000
v -0.02290356 0.02016383 0.01870000
v -0.02479413 0.01900070 0.01870000
v -0.02477266 0.01934044 0.01870000
v -0.02403956 0.01794338 0.01870000
v -0.02433133 0.01811875 0.01870000
v -0.02456497 0.01836633 0.01870000
v -0.02371130 0.01785323 0.01870000
v -0.02472314 0.01866777 0.01870000
v -0.03045347 0.02803341 0.00990000
v -0.03045347 0.02803341 0.01310000
v -0.02443131 0.02258801 0.00990000
v -0.02443131 0.02258801 0.01310000
v -0.02711409 0.01962107 0.00990000
v -0.02711409 0.01962107 0.01310000
v -0.03313625 0.02506647 0.00990000
v -0.03313625 0.02506647 0.01310000
v -0.02435300 0.01813659 0.00950000
v -0.02376715 0.01786191 0.00950000
v -0.02398955 0.01653031 0.00950000
v -0.02295033 0.01656196 0.00950000
v -0.02312245 0.01791694 0.00950000
v -0.02200660 0.01699827 0.00950000
v -0.02259164 0.01828695 0.00950000
v -0.02130927 0.01776945 0.00950000
v -0.02495808 0.01690836 0.00950000
v -0.02570105 0.01763567 0.00950000
v -0.02472301 0.01866741 0.00950000
v -0.02609965 0.01859594 0.00950000
v -0.02477805 0.01931211 0.00950000
v -0.06689142 0.02619450 0.00950000
v -0.06633075 0.02488810 0.00950000
v -0.06742223 0.02582449 0.00950000
v -0.06727947 0.02446276 0.00950000
v -0.06806694 0.02576945 0.00950000
v -0.06831898 0.02444315 0.00950000
v -0.06865279 0.02604414 0.00950000
v -0.06661674 0.02678035 0.00950000
v -0.06512551 0.02623609 0.00950000
v -0.06562453 0.02565116 0.00950000
v -0.02096986 0.01875219 0.00950000
v -0.02231695 0.01887280 0.00950000
v -0.02104264 0.01978935 0.00950000
v -0.02237199 0.01951750 0.00950000
v -0.02151596 0.02071506 0.00950000
v -0.02274200 0.02004831 0.00950000
v -0.02231415 0.02138131 0.00950000
v -0.02332785 0.02032300 0.00950000
v -0.02330956 0.02168155 0.00950000
v -0.02405405 0.02187364 0.00950000
v -0.02397255 0.02026797 0.00950000
v -0.02469959 0.02229131 0.00950000
v -0.06704178 0.02795586 0.00950000
v -0.06565961 0.02960271 0.00950000
v -0.06667177 0.02742505 0.00950000
v -0.05812538 0.03262828 0.00950000
v -0.05661215 0.03300219 0.00950000
v -0.06928307 0.02483239 0.00950000
v -0.07001757 0.02556826 0.00950000
v -0.06902280 0.02657495 0.00950000
v -0.07040501 0.02653308 0.00950000
v -0.06907783 0.02721965 0.00950000
v -0.07038346 0.02757256 0.00950000
v -0.06880314 0.02780550 0.00950000
v -0.06995634 0.02852048 0.00950000
v -0.06827233 0.02817551 0.00950000
v -0.03072175 0.02773671 0.00950000
v -0.02450336 0.01989796 0.00950000
v -0.03201216 0.02861107 0.00950000
v -0.05505448 0.03294451 0.00950000
v -0.05628437 0.02981902 0.00950000
v -0.05693289 0.02965878 0.00950000
v -0.06919198 0.02922527 0.00950000
v -0.06821258 0.02957421 0.00950000
v -0.06762763 0.02823055 0.00950000
v -0.06717476 0.02951152 0.00950000
v -0.06640979 0.02943418 0.00950000
v -0.02684581 0.01991777 0.00950000
v -0.03286797 0.02536317 0.00950000
v -0.03349359 0.02909587 0.00950000
v -0.06446712 0.02663320 0.00950000
v -0.02636548 0.01931739 0.00950000
v -0.03342101 0.02573789 0.00950000
v -0.03405590 0.02594566 0.00950000
v -0.05561680 0.02979430 0.00950000
v -0.02274200 0.02004831 0.01350000
v -0.02231415 0.02138131 0.01350000
v -0.02332785 0.02032300 0.01350000
v -0.02330956 0.02168155 0.01350000
v -0.02397255 0.02026797 0.01350000
v -0.02312245 0.01791694 0.01350000
v -0.02200660 0.01699827 0.01350000
v -0.02259164 0.01828695 0.01350000
v -0.02130927 0.01776945 0.01350000
v -0.02231695 0.01887280 0.01350000
v -0.02096986 0.01875219 0.01350000
v -0.02237199 0.01951750 0.01350000
v -0.02104264 0.01978935 0.01350000
v -0.02151596 0.02071506 0.01350000
v -0.02472301 0.01866741 0.01350000
v -0.02570105 0.01763567 0.01350000
v -0.02435300 0.01813659 0.01350000
v -0.02495808 0.01690836 0.01350000
v -0.02376715 0.01786191 0.01350000
v -0.02398955 0.01653031 0.01350000
v -0.02295033 0.01656196 0.01350000
v -0.02477805 0.01931211 0.01350000
v -0.02636548 0.01931739 0.01350000
v -0.02609965 0.01859594 0.01350000
v -0.06762763 0.02823055 0.01350000
v -0.06704178 0.02795586 0.01350000
v -0.06640979 0.02943418 0.01350000
v -0.06717476 0.02951152 0.01350000
v -0.06821258 0.02957421 0.01350000
v -0.06827233 0.02817551 0.01350000
v -0.06919198 0.02922527 0.01350000
v -0.06880314 0.02780550 0.01350000
v -0.06995634 0.02852048 0.01350000
v -0.06907783 0.02721965 0.01350000
v -0.07038346 0.02757256 0.01350000
v -0.06902280 0.02657495 0.01350000
v -0.06667177 0.02742505 0.01350000
v -0.05812538 0.03262828 0.01350000
v -0.06565961 0.02960271 0.01350000
v -0.06742223 0.02582449 0.01350000
v -0.06633075 0.02488810 0.01350000
v -0.06689142 0.02619450 0.01350000
v -0.06562453 0.02565116 0.01350000
v -0.06661674 0.02678035 0.01350000
v -0.06512551 0.02623609 0.01350000
v -0.06446712 0.02663320 0.01350000
v -0.02405405 0.02187364 0.01350000
v -0.02469959 0.02229131 0.01350000
v -0.02450336 0.01989796 0.01350000
v -0.03072175 0.02773671 0.01350000
v -0.03201216 0.02861107 0.01350000
v -0.07040501 0.02653308 0.01350000
v -0.07001757 0.02556826 0.01350000
v -0.06865279 0.02604414 0.01350000
v -0.06928307 0.02483239 0.01350000
v -0.06806694 0.02576945 0.01350000
v -0.06831898 0.02444315 0.01350000
v -0.06727947 0.02446276 0.01350000
v -0.05693289 0.02965878 0.01350000
v -0.05505448 0.03294451 0.01350000
v -0.05661215 0.03300219 0.01350000
v -0.03349359 0.02909587 0.01350000
v -0.03342101 0.02573789 0.01350000
v -0.03286797 0.02536317 0.01350000
v -0.02684581 0.01991777 0.01350000
v -0.05628437 0.02981902 0.01350000
v -0.05561680 0.02979430 0.01350000
v -0.03405590 0.02594566 0.01350000
v -0.06528258 0.02544364 0.00990000
v -0.06528258 0.02544364 0.01310000
v -0.06609743 0.02456320 0.01310000
v -0.06609743 0.02456320 0.00990000
v -0.06719211 0.02407242 0.01310000
v -0.06719211 0.02407242 0.00990000
v -0.06839155 0.02404978 0.01310000
v -0.06839155 0.02404978 0.00990000
v -0.06950396 0.02449892 0.01310000
v -0.06950396 0.02449892 0.00990000
v -0.07035146 0.02534799 0.01310000
v -0.07035146 0.02534799 0.00990000
v -0.07079851 0.02646124 0.01310000
v -0.07079851 0.02646124 0.00990000
v -0.07077364 0.02766064 0.01310000
v -0.07077364 0.02766064 0.00990000
v -0.07028081 0.02875440 0.01310000
v -0.07028081 0.02875440 0.00990000
v -0.06939885 0.02956761 0.01310000
v -0.06939885 0.02956761 0.00990000
v -0.06826878 0.02997024 0.01310000
v -0.06826878 0.02997024 0.00990000
v -0.06707130 0.02989790 0.01310000
v -0.06707130 0.02989790 0.00990000
v -0.05678383 0.02928759 0.00990000
v -0.05678383 0.02928759 0.01310000
v -0.06431807 0.02626201 0.00990000
v -0.06431807 0.02626201 0.01310000
v -0.06580867 0.02997390 0.00990000
v -0.06580867 0.02997390 0.01310000
v -0.05827444 0.03299947 0.00990000
v -0.05827444 0.03299947 0.01310000
v -0.03412619 0.02555189 0.00990000
v -0.03412619 0.02555189 0.01310000
v -0.05568708 0.02940052 0.00990000
v -0.05568708 0.02940052 0.01310000
v -0.05498419 0.03333828 0.00990000
v -0.05498419 0.03333828 0.01310000
v -0.03342330 0.02948965 0.00990000
v -0.03342330 0.02948965 0.01310000
v -0.02327295 0.02207987 0.00990000
v -0.02327295 0.02207987 0.01310000
v -0.02212440 0.02173344 0.01310000
v -0.02212440 0.02173344 0.00990000
v -0.02120342 0.02096469 0.01310000
v -0.02120342 0.02096469 0.00990000
v -0.02065727 0.01989656 0.01310000
v -0.02065727 0.01989656 0.00990000
v -0.02057330 0.01869985 0.01310000
v -0.02057330 0.01869985 0.00990000
v -0.02096493 0.01756591 0.01310000
v -0.02096493 0.01756591 0.00990000
v -0.02176954 0.01667609 0.01310000
v -0.02176954 0.01667609 0.00990000
v -0.02285845 0.01617266 0.01310000
v -0.02285845 0.01617266 0.00990000
v -0.02405756 0.01613613 0.01310000
v -0.02405756 0.01613613 0.00990000
v -0.02517509 0.01657235 0.01310000
v -0.02517509 0.01657235 0.00990000
v -0.02603237 0.01741155 0.01310000
v -0.02603237 0.01741155 0.00990000
v -0.02649229 0.01851955 0.01310000
v -0.02649229 0.01851955 0.00990000
v -0.05665312 0.03340008 0.01310000
v -0.05665312 0.03340008 0.00990000
v -0.03183606 0.02897022 0.01310000
v -0.03183606 0.02897022 0.00990000
v -0.06643382 0.02983345 0.00990000
v -0.06643382 0.02983345 0.01310000
v -0.06486672 0.02593109 0.00990000
v -0.06486672 0.02593109 0.01310000
v -0.05624339 0.02942112 0.01310000
v -0.05624339 0.02942112 0.00990000
v -0.02671381 0.01912076 0.00990000
v -0.02671381 0.01912076 0.01310000
v -0.02389336 0.02223995 0.00990000
v -0.02389336 0.02223995 0.01310000
v -0.03359711 0.02537875 0.01310000
v -0.03359711 0.02537875 0.00990000
v -0.06804112 0.02576512 0.02130000
v -0.06836709 0.02586321 0.02130000
v -0.06896750 0.02363138 0.02130000
v -0.06906606 0.02727765 0.02130000
v -0.07138782 0.02725899 0.02130000
v -0.06909577 0.02693853 0.02130000
v -0.07138216 0.02667270 0.02130000
v -0.06903289 0.02660397 0.02130000
v -0.06888208 0.02629879 0.02130000
v -0.07043577 0.02457055 0.02130000
v -0.06865452 0.02604561 0.02130000
v -0.07000059 0.02417763 0.02130000
v -0.06950668 0.02386170 0.02130000
v -0.07128008 0.02609534 0.02130000
v -0.07108436 0.02554266 0.02130000
v -0.07080034 0.02502973 0.02130000
v -0.06839776 0.02349294 0.02130000
v -0.06781301 0.02345017 0.02130000
v -0.06770076 0.02575862 0.02130000
v -0.06722920 0.02350422 0.02130000
v -0.06737127 0.02584418 0.02130000
v -0.06894595 0.02759618 0.02130000
v -0.07111190 0.02839457 0.02130000
v -0.07129691 0.02783821 0.02130000
v -0.06847624 0.02808023 0.02130000
v -0.07005468 0.02978027 0.02130000
v -0.06874436 0.02787049 0.02130000
v -0.07048219 0.02937902 0.02130000
v -0.07083783 0.02891288 0.02130000
v -0.06660205 0.02689089 0.02130000
v -0.06431241 0.02732730 0.02130000
v -0.06661879 0.02723090 0.02130000
v -0.06441449 0.02790466 0.02130000
v -0.06672665 0.02755378 0.02130000
v -0.06816148 0.02820987 0.02130000
v -0.06903233 0.03034637 0.02130000
v -0.06956696 0.03010567 0.02130000
v -0.06748711 0.02819698 0.02130000
v -0.06729680 0.03050706 0.02130000
v -0.06782341 0.02824977 0.02130000
v -0.06788155 0.03054984 0.02130000
v -0.06846537 0.03049578 0.02130000
v -0.06667767 0.02655898 0.02130000
v -0.06439766 0.02616179 0.02130000
v -0.06430674 0.02674101 0.02130000
v -0.06707709 0.02601547 0.02130000
v -0.06521237 0.02462098 0.02130000
v -0.06684002 0.02625978 0.02130000
v -0.06485674 0.02508712 0.02130000
v -0.06458267 0.02560543 0.02130000
v -0.06666224 0.02365363 0.02130000
v -0.06612761 0.02389432 0.02130000
v -0.06563988 0.02421973 0.02130000
v -0.06691761 0.02783559 0.02130000
v -0.06569397 0.02982237 0.02130000
v -0.06717752 0.02805542 0.02130000
v -0.06618789 0.03013830 0.02130000
v -0.06672707 0.03036862 0.02130000
v -0.06461021 0.02845734 0.02130000
v -0.06489423 0.02897027 0.02130000
v -0.06525880 0.02942945 0.02130000
v -0.06781301 0.02345017 0.02050000
v -0.06722920 0.02350422 0.02050000
v -0.06666224 0.02365363 0.02050000
v -0.06612761 0.02389432 0.02050000
v -0.06563988 0.02421973 0.02050000
v -0.06521237 0.02462098 0.02050000
v -0.06485674 0.02508712 0.02050000
v -0.06458267 0.02560543 0.02050000
v -0.06439766 0.02616179 0.02050000
v -0.06430674 0.02674101 0.02050000
v -0.06431241 0.02732730 0.02050000
v -0.06441449 0.02790466 0.02050000
v -0.06461021 0.02845734 0.02050000
v -0.06489423 0.02897027 0.02050000
v -0.06525880 0.02942945 0.02050000
v -0.06569397 0.02982237 0.02050000
v -0.06618789 0.03013830 0.02050000
v -0.06672707 0.03036862 0.02050000
v -0.06729680 0.03050706 0.02050000
v -0.06788155 0.03054984 0.02050000
v -0.06846537 0.03049578 0.02050000
v -0.06903233 0.03034637 0.02050000
v -0.06956696 0.03010567 0.02050000
v -0.07005468 0.02978027 0.02050000
v -0.07048219 0.02937902 0.02050000
v -0.07083783 0.02891288 0.02050000
v -0.07111190 0.02839457 0.02050000
v -0.07129691 0.02783821 0.02050000
v -0.07138782 0.02725899 0.02050000
v -0.07138216 0.02667270 0.02050000
v -0.07128008 0.02609534 0.02050000
v -0.07108436 0.02554266 0.02050000
v -0.07080034 0.02502973 0.02050000
v -0.07043577 0.02457055 0.02050000
v -0.07000059 0.02417763 0.02050000
v -0.06950668 0.02386170 0.02050000
v -0.06896750 0.02363138 0.02050000
v -0.06839776 0.02349294 0.02050000
v -0.06711829 0.02991008 0.02050000
v -0.06661040 0.02973315 0.02050000
v -0.06614225 0.02946837 0.02050000
v -0.06572891 0.02912426 0.02050000
v -0.06538365 0.02871187 0.02050000
v -0.06511758 0.02824446 0.02050000
v -0.06493923 0.02773705 0.02050000
v -0.06485436 0.02720596 0.02050000
v -0.06486569 0.02666824 0.02050000
v -0.06497284 0.02614119 0.02050000
v -0.06517237 0.02564174 0.02050000
v -0.06545789 0.02518594 0.02050000
v -0.07067756 0.02600524 0.02050000
v -0.07080969 0.02652659 0.02050000
v -0.07084662 0.02706315 0.02050000
v -0.07078714 0.02759769 0.02050000
v -0.07063317 0.02811302 0.02050000
v -0.07038967 0.02859257 0.02050000
v -0.07006445 0.02902094 0.02050000
v -0.06966797 0.02938435 0.02050000
v -0.06921296 0.02967113 0.02050000
v -0.06871407 0.02987205 0.02050000
v -0.06818731 0.02998067 0.02050000
v -0.06764963 0.02999348 0.02050000
v -0.06582020 0.02478845 0.02050000
v -0.06624766 0.02446204 0.02050000
v -0.06672654 0.02421721 0.02050000
v -0.06724144 0.02406181 0.02050000
v -0.06777581 0.02400085 0.02050000
v -0.06831247 0.02403629 0.02050000
v -0.06883419 0.02416698 0.02050000
v -0.06932419 0.02438872 0.02050000
v -0.06976672 0.02469440 0.02050000
v -0.07014755 0.02507418 0.02050000
v -0.07045445 0.02551586 0.02050000
v -0.06777581 0.02400085 0.01870000
v -0.06724144 0.02406181 0.01870000
v -0.06672654 0.02421721 0.01870000
v -0.06624766 0.02446204 0.01870000
v -0.06582020 0.02478845 0.01870000
v -0.06545789 0.02518594 0.01870000
v -0.06517237 0.02564174 0.01870000
v -0.06497284 0.02614119 0.01870000
v -0.06486569 0.02666824 0.01870000
v -0.06485436 0.02720596 0.01870000
v -0.06493923 0.02773705 0.01870000
v -0.06511758 0.02824446 0.01870000
v -0.06538365 0.02871187 0.01870000
v -0.06572891 0.02912426 0.01870000
v -0.06614225 0.02946837 0.01870000
v -0.06661040 0.02973315 0.01870000
v -0.06711829 0.02991008 0.01870000
v -0.06764963 0.02999348 0.01870000
v -0.06818731 0.02998067 0.01870000
v -0.06871407 0.02987205 0.01870000
v -0.06921296 0.02967113 0.01870000
v -0.06966797 0.02938435 0.01870000
v -0.07006445 0.02902094 0.01870000
v -0.07038967 0.02859257 0.01870000
v -0.07063317 0.02811302 0.01870000
v -0.07078714 0.02759769 0.01870000
v -0.07084662 0.02706315 0.01870000
v -0.07080969 0.02652659 0.01870000
v -0.07067756 0.02600524 0.01870000
v -0.07045445 0.02551586 0.01870000
v -0.07014755 0.02507418 0.01870000
v -0.06976672 0.02469440 0.01870000
v -0.06932419 0.02438872 0.01870000
v -0.06883419 0.02416698 0.01870000
v -0.06831247 0.02403629 0.01870000
v -0.06804112 0.02576512 0.01870000
v -0.06836709 0.02586321 0.01870000
v -0.06865452 0.02604561 0.01870000
v -0.06816148 0.02820987 0.01870000
v -0.06782341 0.02824977 0.01870000
v -0.06748711 0.02819698 0.01870000
v -0.06770076 0.02575862 0.01870000
v -0.06903289 0.02660397 0.01870000
v -0.06909577 0.02693853 0.01870000
v -0.06906606 0.02727765 0.01870000
v -0.06707709 0.02601547 0.01870000
v -0.06737127 0.02584418 0.01870000
v -0.06874436 0.02787049 0.01870000
v -0.06847624 0.02808023 0.01870000
v -0.06894595 0.02759618 0.01870000
v -0.06888208 0.02629879 0.01870000
v -0.06667767 0.02655898 0.01870000
v -0.06684002 0.02625978 0.01870000
v -0.06691761 0.02783559 0.01870000
v -0.06672665 0.02755378 0.01870000
v -0.06661879 0.02723090 0.01870000
v -0.06717752 0.02805542 0.01870000
v -0.06660205 0.02689089 0.01870000
f 25 26 27
f 27 26 28
f 27 28 22
f 22 28 29
f 8 14 15
f 8 15 9
f 19 20 21
f 22 23 4
f 3 17 1
f 1 17 18
f 1 18 19
f 19 18 20
f 6 5 7
f 6 7 8
f 4 23 24
f 4 24 5
f 9 10 11
f 11 10 12
f 11 12 2
f 2 12 13
f 2 13 3
f 7 14 8
f 9 15 16
f 9 16 10
f 33 59 34
f 34 59 60
f 48 47 49
f 48 49 43
f 1 2 3
f 4 5 6
f 46 53 47
f 54 55 56
f 119 85 120
f 120 85 84
f 120 84 121
f 121 84 83
f 121 83 122
f 122 83 82
f 114 90 115
f 115 90 89
f 115 89 116
f 116 89 88
f 116 88 117
f 117 88 87
f 117 87 118
f 118 87 86
f 109 71 70
f 109 70 110
f 110 70 69
f 110 69 111
f 112 92 113
f 113 92 91
f 113 91 114
f 114 91 90
f 129 135 128
f 128 135 136
f 123 81 100
f 100 81 80
f 100 80 79
f 69 68 111
f 126 138 125
f 125 138 139
f 132 97 96
f 132 96 133
f 104 148 103
f 103 148 149
f 103 149 102
f 102 149 150
f 102 150 101
f 101 150 151
f 109 143 108
f 108 143 144
f 108 144 107
f 107 144 145
f 107 145 106
f 106 145 146
f 106 146 105
f 105 146 147
f 125 139 124
f 124 139 140
f 124 140 111
f 111 140 141
f 111 141 110
f 110 141 142
f 110 142 109
f 109 142 143
f 132 167 131
f 131 167 168
f 131 168 130
f 130 168 169
f 130 169 129
f 129 169 135
f 170 168 171
f 171 168 167
f 113 163 112
f 112 163 164
f 112 164 134
f 134 164 165
f 134 165 133
f 133 165 166
f 133 166 132
f 132 166 167
f 117 159 116
f 116 159 160
f 116 160 115
f 115 160 161
f 115 161 114
f 114 161 162
f 114 162 113
f 113 162 163
f 121 155 120
f 120 155 156
f 120 156 119
f 119 156 157
f 119 157 118
f 118 157 158
f 118 158 117
f 117 158 159
f 184 158 182
f 182 158 157
f 182 157 156
f 167 166 172
f 172 166 165
f 172 165 185
f 185 165 164
f 185 164 177
f 183 156 155
f 183 155 173
f 173 155 154
f 173 154 153
f 161 160 179
f 179 160 159
f 179 159 184
f 184 159 158
f 178 162 161
f 178 161 179
f 180 138 181
f 181 138 137
f 181 137 176
f 176 137 136
f 176 136 135
f 182 156 183
f 171 167 172
f 173 153 174
f 174 153 152
f 174 152 175
f 176 135 170
f 170 135 169
f 170 169 168
f 177 162 178
f 170 1 176
f 176 1 19
f 176 19 181
f 181 19 21
f 181 21 180
f 180 21 46
f 180 46 187
f 187 46 48
f 188 148 147
f 146 145 190
f 190 145 144
f 190 144 192
f 192 144 143
f 192 143 186
f 186 143 142
f 186 142 141
f 189 147 146
f 189 146 190
f 152 151 175
f 175 151 150
f 175 150 191
f 191 150 149
f 191 149 188
f 188 149 148
f 177 164 163
f 177 163 162
f 186 141 187
f 187 141 140
f 187 140 180
f 180 140 139
f 180 139 138
f 188 147 189
f 184 22 179
f 179 22 4
f 179 4 178
f 178 4 6
f 178 6 177
f 177 6 8
f 177 8 185
f 185 8 9
f 174 40 173
f 173 40 35
f 21 52 46
f 46 52 53
f 40 39 41
f 40 41 35
f 56 55 57
f 56 57 38
f 38 57 58
f 38 58 39
f 30 45 31
f 46 47 48
f 22 29 23
f 30 31 32
f 43 49 50
f 43 50 44
f 20 51 21
f 21 51 52
f 25 37 26
f 38 39 40
f 31 72 73
f 31 73 33
f 35 41 42
f 35 42 36
f 43 44 30
f 30 44 45
f 60 75 76
f 60 76 61
f 49 68 69
f 49 69 50
f 32 31 33
f 32 33 34
f 35 36 25
f 25 36 37
f 171 2 170
f 170 2 1
f 185 9 172
f 172 9 11
f 7 91 92
f 7 92 14
f 37 84 85
f 37 85 26
f 183 25 182
f 182 25 27
f 182 27 184
f 184 27 22
f 189 34 188
f 188 34 54
f 172 11 171
f 171 11 2
f 191 56 175
f 175 56 38
f 175 38 174
f 174 38 40
f 187 48 186
f 186 48 43
f 173 35 183
f 183 35 25
f 186 43 192
f 192 43 30
f 192 30 190
f 190 30 32
f 190 32 189
f 189 32 34
f 188 54 191
f 191 54 56
f 33 73 74
f 33 74 59
f 59 74 75
f 59 75 60
f 58 79 80
f 58 80 39
f 105 75 74
f 105 74 106
f 50 69 70
f 50 70 44
f 44 70 71
f 44 71 45
f 45 71 72
f 45 72 31
f 51 64 65
f 51 65 52
f 52 65 66
f 52 66 53
f 53 66 67
f 53 67 47
f 47 67 68
f 47 68 49
f 34 60 54
f 54 60 61
f 54 61 55
f 17 62 18
f 18 62 63
f 18 63 20
f 20 63 64
f 20 64 51
f 23 88 89
f 23 89 24
f 108 72 71
f 108 71 109
f 101 79 78
f 101 78 102
f 55 77 78
f 55 78 57
f 57 78 79
f 57 79 58
f 24 89 90
f 24 90 5
f 5 90 91
f 5 91 7
f 106 74 73
f 106 73 107
f 107 73 72
f 107 72 108
f 26 85 86
f 26 86 28
f 28 86 87
f 28 87 29
f 29 87 88
f 29 88 23
f 39 80 81
f 39 81 41
f 41 81 82
f 41 82 42
f 42 82 83
f 42 83 36
f 36 83 84
f 36 84 37
f 61 76 77
f 61 77 55
f 104 76 75
f 104 75 105
f 12 96 97
f 12 97 13
f 128 136 127
f 127 136 137
f 127 137 126
f 126 137 138
f 17 99 62
f 100 79 101
f 14 92 93
f 14 93 15
f 102 78 77
f 102 77 103
f 103 77 76
f 103 76 104
f 10 95 96
f 10 96 12
f 122 82 123
f 123 82 81
f 13 97 98
f 13 98 3
f 3 98 99
f 3 99 17
f 111 68 67
f 111 67 124
f 118 86 119
f 119 86 85
f 15 93 94
f 15 94 16
f 16 94 95
f 16 95 10
f 133 96 95
f 133 95 134
f 134 95 94
f 134 94 112
f 112 94 93
f 112 93 92
f 128 63 62
f 128 62 129
f 129 62 99
f 129 99 130
f 130 99 98
f 130 98 131
f 131 98 97
f 131 97 132
f 124 67 66
f 124 66 125
f 125 66 65
f 125 65 126
f 126 65 64
f 126 64 127
f 127 64 63
f 127 63 128
f 101 151 100
f 100 151 152
f 100 152 123
f 123 152 153
f 123 153 122
f 122 153 154
f 122 154 121
f 121 154 155
f 105 147 104
f 104 147 148
f 312 311 313
f 312 313 314
f 293 296 297
f 293 297 298
f 216 308 214
f 214 308 310
f 214 310 221
f 221 310 312
f 302 301 303
f 302 303 304
f 287 288 274
f 274 288 289
f 294 307 295
f 308 309 310
f 310 309 311
f 310 311 312
f 293 294 295
f 295 296 293
f 340 339 341
f 340 341 342
f 298 297 299
f 298 299 300
f 300 299 301
f 300 301 302
f 346 345 347
f 346 347 348
f 290 333 291
f 327 334 328
f 274 289 275
f 290 291 283
f 283 291 292
f 283 292 284
f 337 338 339
f 337 339 340
f 312 328 305
f 305 328 329
f 392 391 393
f 392 393 394
f 394 393 395
f 394 395 396
f 317 332 290
f 290 332 333
f 322 321 323
f 322 323 324
f 328 334 335
f 328 335 330
f 330 335 336
f 330 336 331
f 314 327 312
f 312 327 328
f 218 324 216
f 216 324 308
f 305 329 306
f 330 331 332
f 319 330 317
f 317 330 332
f 221 312 238
f 238 312 305
f 247 300 245
f 245 300 302
f 324 323 325
f 324 325 308
f 308 325 326
f 308 326 309
f 220 322 218
f 218 322 324
f 356 355 357
f 356 357 358
f 367 368 401
f 367 401 402
f 402 401 374
f 402 374 373
f 249 298 247
f 247 298 300
f 348 347 349
f 348 349 350
f 245 302 243
f 243 302 304
f 243 304 220
f 220 304 322
f 354 353 355
f 354 355 356
f 390 389 391
f 390 391 392
f 358 357 359
f 358 359 360
f 258 293 249
f 249 293 298
f 396 395 397
f 396 397 398
f 382 381 383
f 382 383 384
f 350 349 351
f 350 351 352
f 352 351 353
f 352 353 354
f 388 387 389
f 388 389 390
f 369 370 371
f 371 370 372
f 253 373 263
f 263 373 375
f 239 367 402
f 239 402 240
f 380 379 381
f 380 381 382
f 238 305 236
f 236 305 294
f 384 383 385
f 384 385 386
f 386 385 387
f 386 387 388
f 365 366 367
f 367 366 368
f 229 269 231
f 231 269 271
f 373 374 375
f 375 374 376
f 377 378 379
f 377 379 380
f 375 376 403
f 375 403 404
f 205 274 207
f 207 274 276
f 236 294 258
f 258 294 293
f 361 362 363
f 363 362 364
f 227 280 229
f 229 280 269
f 213 290 211
f 211 290 283
f 242 348 350
f 242 350 244
f 244 350 352
f 244 352 246
f 202 287 205
f 205 287 274
f 398 397 399
f 398 399 400
f 207 276 225
f 225 276 278
f 225 278 227
f 227 278 280
f 251 317 213
f 213 317 290
f 415 416 200
f 200 416 199
f 211 283 201
f 201 283 285
f 201 285 202
f 202 285 287
f 240 402 373
f 240 373 253
f 411 412 197
f 197 412 198
f 231 271 234
f 234 271 273
f 234 273 251
f 251 273 317
f 370 369 415
f 415 369 416
f 407 408 337
f 337 408 338
f 210 398 400
f 210 400 212
f 337 223 407
f 407 223 222
f 400 399 411
f 411 399 412
f 404 403 194
f 404 194 193
f 195 196 413
f 413 196 414
f 413 414 377
f 377 414 378
f 363 364 407
f 407 364 408
f 241 346 348
f 241 348 242
f 362 361 409
f 409 361 410
f 409 410 372
f 372 410 371
f 246 352 354
f 246 354 248
f 223 337 340
f 223 340 215
f 360 359 405
f 405 359 406
f 405 406 365
f 365 406 366
f 219 344 346
f 219 346 241
f 365 237 405
f 405 237 260
f 414 315 378
f 378 315 272
f 374 328 376
f 376 328 330
f 413 233 195
f 195 233 235
f 263 375 404
f 263 404 252
f 215 340 342
f 215 342 217
f 217 342 344
f 217 344 219
f 195 235 193
f 193 235 250
f 209 396 398
f 209 398 210
f 405 260 360
f 360 260 259
f 377 232 413
f 413 232 233
f 407 222 363
f 363 222 264
f 208 388 390
f 208 390 206
f 252 404 193
f 252 193 250
f 237 365 239
f 239 365 367
f 203 394 396
f 203 396 209
f 230 380 382
f 230 382 228
f 412 291 198
f 198 291 333
f 366 307 368
f 368 307 306
f 224 386 388
f 224 388 208
f 248 354 356
f 248 356 256
f 206 390 392
f 206 392 204
f 204 392 394
f 204 394 203
f 232 377 380
f 232 380 230
f 196 316 414
f 414 316 315
f 228 382 384
f 228 384 226
f 226 384 386
f 226 386 224
f 292 399 397
f 292 397 284
f 267 369 268
f 268 369 371
f 256 356 358
f 256 358 257
f 257 358 360
f 257 360 259
f 319 403 376
f 319 376 330
f 361 255 410
f 410 255 254
f 326 341 339
f 326 339 309
f 309 339 338
f 309 338 311
f 416 266 199
f 199 266 262
f 197 261 411
f 411 261 265
f 194 318 196
f 196 318 316
f 318 194 403
f 318 403 319
f 199 262 197
f 197 262 261
f 399 292 412
f 412 292 291
f 410 254 371
f 371 254 268
f 369 267 416
f 416 267 266
f 332 200 333
f 333 200 198
f 282 381 379
f 282 379 270
f 411 265 400
f 400 265 212
f 255 361 264
f 264 361 363
f 329 401 368
f 329 368 306
f 275 389 387
f 275 387 277
f 406 295 366
f 366 295 307
f 200 332 415
f 415 332 331
f 281 383 381
f 281 381 282
f 284 397 395
f 284 395 286
f 270 379 378
f 270 378 272
f 328 374 401
f 328 401 329
f 289 391 389
f 289 389 275
f 325 343 341
f 325 341 326
f 277 387 385
f 277 385 279
f 279 385 383
f 279 383 281
f 335 372 336
f 336 372 370
f 303 351 349
f 303 349 320
f 286 395 393
f 286 393 288
f 288 393 391
f 288 391 289
f 323 345 343
f 323 343 325
f 296 359 357
f 296 357 297
f 301 353 351
f 301 351 303
f 359 296 406
f 406 296 295
f 320 349 347
f 320 347 321
f 321 347 345
f 321 345 323
f 415 331 370
f 370 331 336
f 362 327 364
f 364 327 314
f 297 357 355
f 297 355 299
f 299 355 353
f 299 353 301
f 278 277 279
f 278 279 280
f 213 261 251
f 251 261 263
f 342 341 343
f 342 343 344
f 344 343 345
f 344 345 346
f 253 267 268
f 253 268 254
f 261 262 263
f 240 253 238
f 271 272 273
f 274 275 276
f 276 275 277
f 276 277 278
f 212 265 213
f 213 265 261
f 272 315 273
f 273 315 316
f 251 263 252
f 262 266 263
f 263 266 267
f 263 267 253
f 304 320 321
f 304 321 322
f 305 306 294
f 294 306 307
f 238 253 255
f 238 255 221
f 221 255 264
f 221 264 222
f 372 335 409
f 409 335 334
f 409 334 362
f 362 334 327
f 364 314 408
f 408 314 313
f 408 313 338
f 338 313 311
f 250 234 251
f 250 251 252
f 233 234 235
f 236 237 238
f 273 316 317
f 317 316 318
f 317 318 319
f 303 320 304
f 220 242 243
f 243 242 244
f 226 225 227
f 226 227 228
f 245 246 247
f 247 246 248
f 247 248 249
f 235 234 250
f 232 231 233
f 233 231 234
f 280 279 281
f 280 281 269
f 238 237 239
f 238 239 240
f 219 241 220
f 220 241 242
f 285 286 287
f 287 286 288
f 269 270 271
f 271 270 272
f 228 227 229
f 228 229 230
f 230 229 231
f 230 231 232
f 216 215 217
f 216 217 218
f 197 198 199
f 199 198 200
f 269 281 282
f 269 282 270
f 283 284 285
f 285 284 286
f 206 205 207
f 206 207 208
f 201 210 211
f 211 210 212
f 211 212 213
f 214 215 216
f 193 194 195
f 195 194 196
f 253 254 255
f 248 256 249
f 201 202 203
f 203 202 204
f 204 202 205
f 204 205 206
f 236 259 260
f 236 260 237
f 243 244 245
f 245 244 246
f 249 256 257
f 249 257 258
f 258 257 259
f 258 259 236
f 218 217 219
f 218 219 220
f 224 207 225
f 224 225 226
f 203 209 201
f 201 209 210
f 221 222 214
f 214 222 223
f 214 223 215
f 208 207 224
f 608 559 602
f 608 560 559
f 606 560 608
f 606 561 560
f 562 561 606
f 604 564 563
f 604 565 564
f 607 565 604
f 607 566 565
f 591 566 607
f 591 567 566
f 568 567 591
f 605 562 606
f 605 563 562
f 604 563 605
f 596 555 554
f 596 556 555
f 603 556 596
f 603 557 556
f 602 557 603
f 593 579 578
f 603 464 602
f 604 450 470
f 548 583 547
f 605 450 604
f 605 448 450
f 606 448 605
f 606 446 448
f 608 446 606
f 608 459 446
f 602 459 608
f 602 464 459
f 602 559 558
f 603 462 464
f 596 462 603
f 596 437 462
f 597 437 596
f 597 435 437
f 592 435 597
f 592 417 435
f 586 417 592
f 602 558 557
f 589 569 590
f 597 554 553
f 596 554 597
f 594 577 595
f 594 578 577
f 593 578 594
f 586 585 584
f 586 551 585
f 592 551 586
f 590 568 591
f 590 569 568
f 597 553 592
f 587 583 588
f 587 584 583
f 586 584 587
f 545 585 551
f 546 585 545
f 546 584 585
f 547 584 546
f 547 583 584
f 548 582 583
f 595 575 600
f 601 580 593
f 601 581 580
f 588 581 601
f 588 582 581
f 583 582 588
f 598 573 572
f 598 574 573
f 600 574 598
f 600 575 574
f 593 580 579
f 595 576 575
f 577 576 595
f 589 570 569
f 589 571 570
f 599 571 589
f 599 572 571
f 598 572 599
f 592 552 551
f 592 553 552
f 451 452 441
f 420 439 440
f 420 440 421
f 441 442 443
f 443 442 444
f 443 444 438
f 438 444 445
f 438 445 439
f 446 447 448
f 448 447 449
f 448 449 450
f 438 439 420
f 441 452 453
f 441 453 442
f 454 455 456
f 456 455 457
f 456 457 451
f 451 457 458
f 451 458 452
f 459 460 446
f 446 460 461
f 423 430 424
f 417 418 419
f 420 421 422
f 422 421 423
f 422 423 424
f 425 426 427
f 427 426 428
f 427 428 418
f 418 428 429
f 418 429 419
f 446 461 447
f 424 430 431
f 424 431 425
f 425 431 432
f 425 432 426
f 419 433 417
f 417 433 434
f 417 434 435
f 435 434 436
f 435 436 437
f 599 441 598
f 593 424 601
f 593 422 424
f 594 422 593
f 594 420 422
f 595 420 594
f 595 438 420
f 600 438 595
f 600 443 438
f 598 443 600
f 598 441 443
f 601 424 425
f 599 451 441
f 589 451 599
f 589 456 451
f 590 456 589
f 590 454 456
f 591 454 590
f 591 472 454
f 607 472 591
f 607 470 472
f 462 469 463
f 462 463 464
f 464 463 465
f 464 465 459
f 459 465 466
f 459 466 460
f 436 467 437
f 437 467 468
f 437 468 462
f 462 468 469
f 604 470 607
f 470 471 472
f 472 471 473
f 472 473 454
f 586 418 417
f 587 418 586
f 587 427 418
f 588 427 587
f 588 425 427
f 601 425 588
f 430 509 431
f 433 515 478
f 419 515 433
f 419 514 515
f 429 514 419
f 429 513 514
f 428 513 429
f 428 512 513
f 426 512 428
f 426 511 512
f 432 511 426
f 432 510 511
f 431 510 432
f 431 509 510
f 516 495 517
f 430 508 509
f 423 508 430
f 423 507 508
f 421 507 423
f 421 506 507
f 440 506 421
f 440 505 506
f 439 505 440
f 439 504 505
f 445 504 439
f 445 503 504
f 444 503 445
f 444 502 503
f 523 489 488
f 531 506 505
f 530 506 531
f 530 507 506
f 529 507 530
f 529 508 507
f 528 508 529
f 526 485 527
f 526 486 485
f 525 486 526
f 525 487 486
f 524 487 525
f 524 488 487
f 523 488 524
f 442 502 444
f 522 489 523
f 522 490 489
f 521 490 522
f 521 491 490
f 520 491 521
f 520 492 491
f 519 492 520
f 519 493 492
f 518 493 519
f 518 494 493
f 517 494 518
f 517 495 494
f 468 481 482
f 461 488 447
f 461 487 488
f 460 487 461
f 460 486 487
f 466 486 460
f 466 485 486
f 465 485 466
f 465 484 485
f 463 484 465
f 463 483 484
f 469 483 463
f 469 482 483
f 468 482 469
f 447 488 489
f 467 481 468
f 467 480 481
f 436 480 467
f 436 479 480
f 434 479 436
f 434 478 479
f 433 478 434
f 470 477 471
f 470 476 477
f 450 476 470
f 450 475 476
f 449 475 450
f 454 474 455
f 473 495 474
f 442 501 502
f 453 501 442
f 453 500 501
f 452 500 453
f 452 499 500
f 458 499 452
f 458 498 499
f 457 498 458
f 457 497 498
f 455 497 457
f 455 496 497
f 474 496 455
f 474 495 496
f 531 505 532
f 473 494 495
f 471 494 473
f 471 493 494
f 477 493 471
f 477 492 493
f 476 492 477
f 476 491 492
f 475 491 476
f 475 490 491
f 449 490 475
f 449 489 490
f 447 489 449
f 522 562 521
f 539 568 569
f 516 568 539
f 516 567 568
f 517 567 516
f 517 566 567
f 518 566 517
f 518 565 566
f 519 565 518
f 519 564 565
f 520 564 519
f 520 563 564
f 521 563 520
f 521 562 563
f 539 569 538
f 522 561 562
f 523 561 522
f 523 560 561
f 524 560 523
f 524 559 560
f 525 559 524
f 525 558 559
f 526 558 525
f 526 557 558
f 527 557 526
f 527 556 557
f 540 556 527
f 540 555 556
f 532 575 576
f 549 582 548
f 549 581 582
f 550 581 549
f 550 580 581
f 528 580 550
f 528 579 580
f 529 579 528
f 529 578 579
f 530 578 529
f 530 577 578
f 531 577 530
f 531 576 577
f 532 576 531
f 541 555 540
f 533 575 532
f 533 574 575
f 534 574 533
f 534 573 574
f 535 573 534
f 535 572 573
f 536 572 535
f 536 571 572
f 537 571 536
f 537 570 571
f 538 570 537
f 538 569 570
f 538 499 498
f 542 481 480
f 541 481 542
f 541 482 481
f 540 482 541
f 540 483 482
f 527 483 540
f 527 484 483
f 485 484 527
f 516 496 495
f 516 497 496
f 539 497 516
f 539 498 497
f 538 498 539
f 542 480 543
f 537 499 538
f 537 500 499
f 536 500 537
f 536 501 500
f 535 501 536
f 535 502 501
f 534 502 535
f 534 503 502
f 533 503 534
f 533 504 503
f 532 504 533
f 532 505 504
f 549 512 511
f 541 554 555
f 542 554 541
f 542 553 554
f 543 553 542
f 543 552 553
f 544 552 543
f 544 551 552
f 545 551 544
f 528 509 508
f 528 510 509
f 550 510 528
f 550 511 510
f 549 511 550
f 454 473 474
f 548 512 549
f 548 513 512
f 547 513 548
f 547 514 513
f 546 514 547
f 546 515 514
f 545 515 546
f 545 478 515
f 544 478 545
f 544 479 478
f 543 479 544
f 543 480 479

